<?xml version="1.0" encoding="utf-8"?>
<!-- Generator: Adobe Illustrator 23.1.0, SVG Export Plug-In . SVG Version: 6.00 Build 0)  -->
<svg version="1.1" id="Layer_1" xmlns="http://www.w3.org/2000/svg" xmlns:xlink="http://www.w3.org/1999/xlink" x="0px" y="0px"
	 viewBox="0 0 358.1 122.1" style="enable-background:new 0 0 358.1 122.1;" xml:space="preserve">
<style type="text/css">
	.st0{fill:#D1D3D4;}
	.st1{fill:#231F20;}
	.st2{fill:#FF1414;}
	.st3{fill:#FFFFFF;}
	.st4{fill:none;}
</style>
<g id="_212_diversity_flatline">
	<path class="st0" d="M272.2,22.3c0,0,9.8-19.2,11.5-19.9s6.5,1.3,6.2,2.3s-2.4,10.2-2.4,10.2s5.3-3.4,5.8-2
		c0.5,1.4-5.9,8.3-5.9,8.3l-8.8,14.7L272.2,22.3z"/>
	<path class="st1" d="M278.6,36.4L278.6,36.4c-0.2,0-0.4-0.1-0.4-0.3l-6.4-13.6c-0.1-0.1-0.1-0.3,0-0.5c2.3-4.5,10.1-19.4,11.8-20.1
		c1.7-0.7,5.3,0.7,6.5,1.8c0.4,0.3,0.5,0.7,0.4,1.2c-0.2,0.7-1.4,5.9-2.1,8.9c1.5-0.9,3.8-2,4.9-1.7c0.3,0.1,0.5,0.3,0.6,0.6
		c0.6,1.5-3.5,6.1-6,8.8l-8.8,14.7C279,36.3,278.8,36.4,278.6,36.4z M272.7,22.3l5.9,12.5l8.3-13.9l0.1-0.1c2.9-3.1,5.9-7,5.8-7.8
		c-0.4-0.2-2.8,0.9-5.1,2.3c-0.2,0.1-0.4,0.1-0.6,0c-0.2-0.1-0.3-0.3-0.2-0.5c0.1-0.4,2-8.9,2.4-10.1c-0.4-0.5-1-0.8-1.6-1
		c-1.5-0.7-3.2-1-3.9-0.7C282.8,3.5,277.4,13.3,272.7,22.3z"/>
	<path class="st2" d="M272.9,52.6l10.7-24.2l-12-10.2c0,0-29.4,37.9-17.1,47.6l28.1,27.6l25.8-18.1L272.9,52.6z"/>
	<path class="st3" d="M306.5,36c1.1-3.9,3.6-7.3,7.1-9.4c6-3.8,22.4-1.3,25.4,5.4s-5.8,24.4-5.8,24.4L305,64L306.5,36z"/>
	<path class="st1" d="M305,64.5c-0.1,0-0.2,0-0.3-0.1c-0.1-0.1-0.2-0.3-0.2-0.4l1.5-28c0,0,0,0,0-0.1c1.1-4.1,3.7-7.5,7.3-9.7
		c3.5-2.3,10.8-2.5,17.2-0.6c4.6,1.4,7.8,3.6,9,6.3c3,6.9-5.4,24-5.8,24.8c-0.1,0.1-0.2,0.2-0.3,0.3l-28.2,7.6L305,64.5z M307,36.1
		l-1.5,27.2l27.3-7.4c1-2,8.4-17.6,5.7-23.7c-1-2.3-4.1-4.4-8.4-5.7c-6.1-1.8-13.1-1.6-16.3,0.5C310.5,29.1,308.1,32.3,307,36.1
		L307,36.1z"/>
	<path class="st1" d="M331.8,116.4c2-15.2,3.3-30.2,1.7-33.1c-5.7-9.8-31.6-3.8-36.4-1.6c-1.9,0.9-0.8,16.2-3.8,34.7L331.8,116.4z"
		/>
	<path class="st2" d="M356.1,117.1c0,0,5.2-25.9-2.7-33.7s-26.8-6.6-26.8-6.6s-29.9-4.2-39.1,0.6c-3.7,1.9-8.6,18.9-13.1,38.9h25.9
		l7.1-34.5l23.2,0.7l-7.6,33.8L356.1,117.1z"/>
	<path class="st0" d="M309.4,68.4l-2,13.5c0,0,0.9,8.9,10,7.8c5.4-0.7,10.2-3.8,13-8.5l2.7-24.8c0,0-6.1-4.2-2.6-18.1
		c-8.1,0.4-16.2-0.3-24.1-2.2c0,0-4.8,17.7-4.5,24.6C302.2,67.5,309.4,68.4,309.4,68.4z"/>
	<path class="st1" d="M315.9,90.3c-2,0.1-3.9-0.6-5.5-1.8c-1.9-1.7-3.2-4-3.5-6.6c0,0,0-0.1,0-0.1l1.9-13c-1.7-0.4-7.2-2-7.4-8.1
		c-0.3-6.9,4.4-24,4.6-24.8c0.1-0.3,0.4-0.4,0.6-0.4c7.8,1.9,15.9,2.6,24,2.2c0.2,0,0.3,0.1,0.4,0.2c0.1,0.1,0.2,0.3,0.1,0.5
		c-3.4,13.4,2.3,17.6,2.4,17.6c0.2,0.1,0.2,0.3,0.2,0.5L331,81.3c0,0.1,0,0.1-0.1,0.2c-2.9,4.8-7.9,8-13.4,8.7
		C316.9,90.3,316.4,90.3,315.9,90.3z M308,81.8c0.3,2.3,1.4,4.3,3.1,5.8c1.8,1.3,4.1,1.8,6.2,1.4c5.2-0.7,9.8-3.7,12.6-8.1l2.7-24.4
		c-1.2-1-5.6-5.7-2.7-17.8c-7.8,0.3-15.5-0.4-23.1-2.2c-0.8,2.9-4.6,17.8-4.4,24c0.3,6.4,6.8,7.2,7,7.3c0.1,0,0.3,0.1,0.4,0.2
		c0.1,0.1,0.1,0.3,0.1,0.4L308,81.8z"/>
	<path class="st1" d="M308.4,75.4c0,0,3.4,1.1,7.7-2.2c4.3-3.3,4.2-5.5,4.2-5.5c-3.5,1.4-7.3,1.7-10.9,0.6L308.4,75.4z"/>
	<path class="st1" d="M309.9,76.1c-0.6,0-1.1-0.1-1.7-0.2c-0.2-0.1-0.4-0.3-0.3-0.5l1-7.1c0-0.1,0.1-0.3,0.2-0.4
		c0.1-0.1,0.3-0.1,0.4-0.1c3.5,1,7.2,0.8,10.5-0.6c0.2-0.1,0.5,0,0.7,0.2c0,0.1,0.1,0.1,0.1,0.2c0,0.3,0,2.6-4.4,5.9
		C314.6,75.1,312.3,76,309.9,76.1z M308.4,75.4L308.4,75.4z M309,75c1,0.2,3.6,0.3,6.9-2.2c1.6-1.1,2.9-2.5,3.8-4.3
		c-3.1,1.1-6.5,1.3-9.8,0.5L309,75z"/>
	<path class="st0" d="M317.5,48.7c0,0-5,7.2-3.8,8.5c1.1,1.3,4.4,0.5,4.4,0.5"/>
	<path class="st1" d="M316,58.5c-1,0.1-2-0.2-2.7-0.9c-1.3-1.4,2.2-6.9,3.8-9.1c0.2-0.2,0.5-0.2,0.7-0.1c0.2,0.2,0.2,0.4,0.1,0.7
		c-2.5,3.6-4.3,7.4-3.9,7.9c0.8,0.9,3.1,0.5,3.9,0.3c0.3-0.1,0.6,0.1,0.6,0.4c0.1,0.3-0.1,0.6-0.4,0.6l0,0
		C317.5,58.4,316.8,58.5,316,58.5z"/>
	<path class="st1" d="M316.7,63.5h-0.3c-4.2-0.2-7.2-3.5-7.3-3.6c-0.2-0.2-0.2-0.5,0-0.7c0.2-0.2,0.5-0.2,0.7,0c0,0,2.9,3.1,6.6,3.3
		c2.2,0,4.3-0.9,5.9-2.5c0.2-0.2,0.5-0.2,0.7,0c0,0,0,0,0,0c0.2,0.2,0.2,0.5,0,0.7C321.4,62.4,319.1,63.4,316.7,63.5z"/>
	
		<ellipse transform="matrix(3.856220e-02 -0.9993 0.9993 3.856220e-02 263.1393 369.0417)" class="st1" cx="323.3" cy="47.8" rx="2" ry="0.9"/>
	
		<ellipse transform="matrix(3.996804e-02 -0.9992 0.9992 3.996804e-02 252.6954 355.6452)" class="st1" cx="311.4" cy="46.3" rx="2" ry="0.9"/>
	<path class="st0" d="M327.9,52.1c0.9-1.3,2.1-2.3,3.4-3.1c0.7-0.5,1.5-0.8,2.4-0.8c0.7,0.1,1.3,0.4,1.9,0.8
		c1.6,1.2,2.7,3.1,2.9,5.1c0.1,0.9,0,1.9-0.4,2.7c-0.6,1.3-1.7,2.4-3,3c-1.3,0.6-2.8,1-4.2,1.3"/>
	<path class="st1" d="M330.7,61.7c-0.3,0-0.5-0.3-0.4-0.6c0-0.2,0.2-0.3,0.3-0.4c1.4-0.3,2.8-0.7,4.1-1.3c1.2-0.6,2.2-1.5,2.8-2.8
		c0.3-0.8,0.4-1.6,0.4-2.5c-0.2-1.9-1.2-3.6-2.7-4.7c-0.5-0.4-1-0.6-1.6-0.7c-0.7,0-1.4,0.3-2,0.7c-1.3,0.8-2.4,1.8-3.2,3
		c-0.2,0.2-0.5,0.3-0.7,0.1c0,0,0,0,0,0c-0.2-0.2-0.3-0.5-0.1-0.7c1-1.3,2.2-2.4,3.5-3.3c0.8-0.5,1.7-0.8,2.7-0.8
		c0.8,0.1,1.5,0.4,2.2,0.9c1.8,1.3,2.9,3.3,3.1,5.5c0.1,1,0,2.1-0.4,3c-0.7,1.4-1.9,2.6-3.3,3.3c-1.4,0.6-2.8,1.1-4.3,1.3
		L330.7,61.7z"/>
	<path class="st2" d="M348.9,101.5c-2.6,3.4-6.2,8.7-9.9,14.7h9.9V101.5z"/>
	<line class="st4" x1="339" y1="116.2" x2="348.9" y2="93.5"/>
	<path class="st1" d="M339,116.7c-0.1,0-0.1,0-0.2-0.1c-0.3-0.1-0.4-0.4-0.3-0.7c0,0,0,0,0,0l9.9-22.7c0.1-0.3,0.4-0.4,0.7-0.3
		c0.3,0.1,0.4,0.4,0.3,0.7c0,0,0,0,0,0l-9.9,22.7C339.4,116.6,339.2,116.7,339,116.7z"/>
	<path class="st1" d="M279.5,18.3c-0.1,0-0.2,0-0.3-0.1c-0.2-0.2-0.3-0.5-0.1-0.7c0,0,0,0,0,0c3.2-4.3,8.3-3.1,8.5-3
		c0.3,0.1,0.5,0.3,0.4,0.6c-0.1,0.3-0.3,0.5-0.6,0.4c0,0,0,0,0,0c-0.2,0-4.7-1-7.4,2.7C279.8,18.3,279.7,18.4,279.5,18.3z"/>
	<path class="st2" d="M95.9,91.4c0,0,0-5.3,16.4-14.1s41.3-6.4,50.1-1.2c8.7,5.2,13,6.2,16.5,17.8c2.2,7.3,3.3,14.9,3.4,22.5H93.1
		L95.9,91.4z"/>
	<path class="st3" d="M127.1,100.8c1.9,1.6,10.7,3.2,12.7,2.7c5.4-1.4,11-3.3,14.3-7.9c1.9-2.6,2.7-5.9,3.5-9
		c0.8-3.7,1.5-7.7,0.4-11.3c-3.6-12.4-22.7-13.6-32.1-8.6C112.3,73.7,117.6,92.8,127.1,100.8z"/>
	<path class="st1" d="M138.7,104.1c-3.3,0-10.2-1.4-11.9-2.9l0,0c-6.3-5.3-10.3-14.8-9.5-22.6c0.4-5.4,3.6-10.1,8.4-12.5
		c6.5-3.5,16.5-3.8,23.6-0.8c4.8,2,8,5.4,9.2,9.7c1.1,3.7,0.5,7.8-0.4,11.6c-0.7,3-1.5,6.4-3.5,9.2c-3.3,4.7-9,6.7-14.6,8.1
		C139.6,104,139.2,104.1,138.7,104.1z M127.5,100.4c1.7,1.5,10.3,3,12.3,2.6c5.5-1.4,10.9-3.3,14-7.7c1.9-2.6,2.7-6,3.4-8.9
		c0.8-3.7,1.4-7.6,0.4-11.1c-1.2-4-4.2-7.1-8.7-9c-6.8-2.9-16.6-2.6-22.7,0.7c-4.5,2.3-7.5,6.7-7.9,11.8
		C117.5,86.2,121.3,95.4,127.5,100.4L127.5,100.4z"/>
	<path class="st3" d="M131.9,20.9c-9.2,1.6-17.5,7.2-17.3,17.5c0.1,6.3,3.5,12.2,8.2,16.3c6.9,6.1,17.2,8.5,25.7,5.1
		c7.5-3,12.6-10,13.2-18c0.3-6.2-2.4-16.4-8.9-18.7c-2.5-0.9-5.6,1.1-5.6,1.1C146,20.6,135.7,20.2,131.9,20.9z"/>
	<path class="st1" d="M140.3,61.7c-6.5,0-12.9-2.4-17.8-6.7c-5.2-4.6-8.3-10.6-8.4-16.7c-0.2-9.3,6.5-16,17.7-17.9
		c3.8-0.7,13.6-0.3,15.6,3.2c1-0.5,3.4-1.6,5.5-0.9c6.6,2.3,9.6,12.6,9.3,19.1c-0.7,8.2-5.9,15.3-13.5,18.4
		C146,61.2,143.2,61.8,140.3,61.7z M135.6,21.1c-1.2,0-2.4,0.1-3.7,0.3l0,0c-10.8,1.9-17.1,8.3-16.9,17c0.1,5.8,3,11.6,8.1,16
		c7.1,6.2,17.3,8.2,25.3,5c7.3-3,12.2-9.8,12.9-17.6c0.3-6.3-2.5-16.1-8.6-18.2c-2.3-0.8-5.2,1-5.2,1.1c-0.1,0.1-0.3,0.1-0.4,0
		c-0.1-0.1-0.2-0.2-0.3-0.3C145.9,21.9,140.1,21.1,135.6,21.1z M131.9,20.9L131.9,20.9z"/>
	<path class="st3" d="M148.2,69.6l0.1,13.4c0,0-1.4,7.5-9.5,5.2c-4.9-1.4-8.9-5-10.9-9.6c0,0-0.7-28.3-0.8-36.9
		c9.9-0.2,20.9-6.6,20.9-6.6s3.4,5.1,4.9,6.8c1.2,1.2,2.2,2.6,3,4.1c1.4,2.6,1.3,5.8,1.3,8.7c0,3.4-0.4,6.8-1,10.1
		C154.8,71.1,148.2,69.6,148.2,69.6z"/>
	<path class="st1" d="M141.6,89.1c-1,0-2.1-0.2-3-0.5c-5-1.4-9.1-5.1-11.2-9.9c0-0.1,0-0.1,0-0.2c0-0.3-0.7-28.4-0.8-36.9
		c0-0.1,0-0.2,0.1-0.3c0.1-0.1,0.2-0.1,0.3-0.1c9.7-0.2,20.6-6.4,20.7-6.5c0.2-0.1,0.5-0.1,0.6,0.1c0,0,3.4,5.1,4.9,6.7
		c1.2,1.2,2.3,2.6,3.1,4.2c1.5,2.7,1.4,6.2,1.3,8.9c0,3.4-0.4,6.8-1,10.2c-0.3,1.7-1.3,3.3-2.7,4.3c-1.6,0.9-3.4,1.2-5.2,1l0.1,12.9
		c-0.4,2.1-1.6,3.9-3.4,5.1C144.3,88.8,143,89.2,141.6,89.1z M128.3,78.5c2,4.5,5.8,7.9,10.6,9.3c2,0.7,4.2,0.6,6-0.5
		c1.5-1,2.5-2.6,2.9-4.4l-0.1-13.4c0-0.3,0.2-0.5,0.5-0.5c0,0,0.1,0,0.1,0c1.7,0.4,3.5,0.1,5.1-0.7c1.2-0.9,2.1-2.2,2.3-3.7
		c0.6-3.3,1-6.7,1-10c0.1-2.8,0.1-5.9-1.2-8.5c-0.8-1.4-1.9-2.8-3-4c-1.3-1.4-3.9-5.2-4.7-6.5c-2,1.1-11.5,6.1-20.3,6.4
		C127.7,50.9,128.3,76.8,128.3,78.5z"/>
	<path class="st1" d="M148.1,76.2c0,0-5.5,0.2-9-3.4c-3.5-3.6-3-7.3-3-7.3s5.9,4,12,4.1L148.1,76.2z"/>
	<path class="st1" d="M147.9,76.6c-1.2,0-5.8-0.2-9-3.5c-3.6-3.8-3.1-7.5-3.1-7.7c0-0.2,0.1-0.3,0.3-0.3c0.1-0.1,0.3-0.1,0.4,0
		c0,0,5.9,3.9,11.8,4.1c0.2,0,0.4,0.2,0.4,0.4l-0.1,6.6c0,0.2-0.2,0.4-0.4,0.4c0,0,0,0,0,0H147.9z M148.1,76.1L148.1,76.1z
		 M136.6,66.2c0.2,2.3,1.2,4.5,2.9,6.2c2.8,2.9,6.9,3.2,8.2,3.3l0.1-5.7C143.8,69.6,140,68.3,136.6,66.2L136.6,66.2z"/>
	<path class="st3" d="M143,48.1c0,0,4.3,6.5,3.3,7.6c-1,1.1-3.9,0.4-3.9,0.4"/>
	<path class="st1" d="M144.2,56.8c-0.7,0-1.4-0.1-2-0.3c-0.2-0.1-0.4-0.3-0.3-0.5c0.1-0.2,0.3-0.4,0.5-0.3c0.7,0.2,2.8,0.5,3.5-0.2
		c0.4-0.5-1.2-3.8-3.3-7c-0.1-0.2-0.1-0.5,0.1-0.6c0.2-0.1,0.5-0.1,0.6,0.1c0,0,0,0,0,0c1.4,2,4.4,6.9,3.3,8.1
		C145.9,56.5,145.1,56.8,144.2,56.8z"/>
	
		<ellipse transform="matrix(0.9992 -3.925982e-02 3.925982e-02 0.9992 -1.6948 5.8699)" class="st1" cx="148.6" cy="46.1" rx="0.7" ry="1.4"/>
	
		<ellipse transform="matrix(2.966619e-02 -0.9996 0.9996 2.966619e-02 86.4028 180.4137)" class="st1" cx="136.1" cy="45.7" rx="1.4" ry="0.7"/>
	<path class="st3" d="M129.8,50.5c-1.4-2-3.7-5.7-6.6-4.5c-0.8,0.3-1.5,0.8-2,1.5c-2.4,2.8-2,6.6-0.4,9.7c1.4,2.7,5.6,6.7,8.6,3.4"
		/>
	<path class="st1" d="M126.7,62.2c-0.2,0-0.3,0-0.5,0c-2.7-0.3-5.1-3.2-5.9-4.9c-1.9-3.8-1.7-7.6,0.5-10.2c0.6-0.7,1.3-1.3,2.2-1.6
		c3-1.1,5.3,2,6.8,4.2l0.3,0.5c0.1,0.2,0.1,0.5-0.1,0.6c0,0,0,0,0,0c-0.2,0.1-0.5,0.1-0.6-0.1c0,0,0,0,0,0l-0.4-0.5
		c-1.4-2-3.3-4.8-5.7-3.9c-0.7,0.3-1.3,0.8-1.8,1.4c-2,2.3-2.1,5.8-0.4,9.2c0.8,1.7,3,4.1,5.2,4.4c1,0.1,2-0.3,2.6-1.1
		c0.2-0.2,0.5-0.2,0.7,0c0.2,0.2,0.2,0.5,0,0.7C128.8,61.7,127.8,62.2,126.7,62.2z"/>
	<path class="st1" d="M143.5,63.1c-0.3,0-0.5,0-0.8,0c-4.3-0.5-7.2-4.9-7.4-5.1c-0.1-0.2-0.1-0.5,0.1-0.6c0.2-0.1,0.5-0.1,0.6,0.1
		c0,0,2.9,4.2,6.7,4.7c2.1,0.1,4.1-0.7,5.5-2.2c0.2-0.2,0.5-0.2,0.6,0s0.2,0.5,0,0.6C147.5,62.2,145.5,63,143.5,63.1z"/>
	<path class="st1" d="M110.5,116.9c-0.3,0-0.5-0.2-0.5-0.5V95.3c0-0.3,0.2-0.5,0.5-0.5c0.3,0,0.5,0.2,0.5,0.5v21.1
		C111,116.7,110.8,116.9,110.5,116.9L110.5,116.9z"/>
	<path class="st1" d="M164.1,116.9c-0.2,0-0.5-0.2-0.5-0.4l-4.2-22c0-0.3,0.1-0.5,0.4-0.6c0.3-0.1,0.5,0.1,0.6,0.4c0,0,0,0,0,0
		l4.2,22c0.1,0.3-0.1,0.5-0.4,0.6C164.2,116.9,164.2,116.9,164.1,116.9L164.1,116.9z"/>
	<path class="st3" d="M139,86.6c0,0-11.4,12-10.8,23.8l19.1,2.2c0,0-3.5-20.9-1.3-26.1L139,86.6z"/>
	<path class="st1" d="M147.3,113.1L147.3,113.1l-19.2-2.2c-0.2,0-0.4-0.2-0.4-0.5c-0.6-11.9,10.4-23.7,10.9-24.2
		c0.1-0.1,0.2-0.1,0.4-0.2l7-0.1c0.3,0,0.5,0.2,0.5,0.5c0,0.1,0,0.1,0,0.2c-2.1,5.1,1.3,25.6,1.4,25.9c0,0.2,0,0.3-0.1,0.4
		C147.7,113.1,147.5,113.1,147.3,113.1z M128.7,110l18.1,2c-0.6-3.5-3-19.4-1.4-25l-6.1,0.1C137.9,88.5,128.4,99.4,128.7,110
		L128.7,110z"/>
	<path class="st0" d="M137.8,100L137.8,100c-0.4,0-0.5-0.3-0.5-0.6c0,0,0,0,0,0c0.6-4,2.1-7.8,4.4-11.1c0.2-0.2,0.5-0.3,0.7-0.1
		c0,0,0,0,0,0c0.2,0.2,0.3,0.5,0.1,0.7c-2.2,3.2-3.7,6.8-4.2,10.6C138.2,99.9,138,100,137.8,100z"/>
	<path class="st0" d="M149.1,90.9c-0.1,0-0.1,0-0.2,0c-0.3-0.1-0.4-0.4-0.3-0.7c0,0,0,0,0,0c1.1-2.3,1.9-4.7,2.5-7.1
		c0.6-2.4,0.6-4.9-0.1-7.3c-0.1-0.3,0-0.6,0.3-0.7c0.3-0.1,0.6,0,0.7,0.3c0,0,0,0,0,0c0.8,2.6,0.8,5.3,0.2,7.8
		c-0.6,2.5-1.5,4.9-2.6,7.3C149.5,90.8,149.3,90.9,149.1,90.9z"/>
	<path class="st1" d="M137.9,50.1h-5.7c-2,0-3.6-1.6-3.6-3.6v-3.9c0-0.3,0.2-0.5,0.5-0.5h12c0.3,0,0.5,0.2,0.5,0.5v3.9
		C141.5,48.5,139.9,50.1,137.9,50.1z M129.6,43.1v3.4c0,1.4,1.2,2.6,2.6,2.6h5.7c1.4,0,2.6-1.2,2.6-2.6v-3.4H129.6z"/>
	<path class="st1" d="M152.1,50.1h-5.7c-2,0-3.6-1.6-3.6-3.6l0,0v-3.9c0-0.3,0.2-0.5,0.5-0.5h12c0.3,0,0.5,0.2,0.5,0.5v3.9
		C155.7,48.5,154.1,50.1,152.1,50.1C152.1,50.1,152.1,50.1,152.1,50.1z M143.8,43.1v3.4c0,1.4,1.2,2.6,2.6,2.6l0,0h5.7
		c1.4,0,2.6-1.2,2.6-2.6v-3.4H143.8z"/>
	<line class="st4" x1="140.2" y1="42.6" x2="146.4" y2="42.6"/>
	<path class="st1" d="M146.4,43.1h-6.3c-0.3,0-0.5-0.2-0.5-0.5s0.2-0.5,0.5-0.5h6.3c0.3,0,0.5,0.2,0.5,0.5S146.7,43.1,146.4,43.1z"
		/>
	<path class="st2" d="M178,91.1c2.2-6.9,6.1-9.4,22.6-18.2s40.6-2.2,49.3,3.1c8.7,5.2,15.1,13,19.9,19c4.9,6.1,4.8,21.4,4.8,21.4
		h-98.5C176.1,116.4,175.9,98,178,91.1z"/>
	<line class="st4" x1="249.3" y1="116.2" x2="247.4" y2="93.1"/>
	<path class="st1" d="M249.3,116.7c-0.3,0-0.5-0.2-0.5-0.5l-1.9-23.2c0-0.3,0.2-0.5,0.5-0.6c0.3,0,0.5,0.2,0.6,0.5l1.9,23.2
		C249.8,116.4,249.7,116.7,249.3,116.7C249.4,116.7,249.4,116.7,249.3,116.7L249.3,116.7z"/>
	<path class="st3" d="M222,18.7c11.7,1,17.3,6.7,20.4,31.2c2.5,19.3,0.9,17.8,13.5,29.6c0,0-11.4,15.7-34.6,15.7
		c-14-0.1-27.6-4.3-39.2-12.1c0,0,17.5-10.7,17.2-21.2C198,25.2,210.3,17.7,222,18.7z"/>
	<path class="st1" d="M221.2,95.6c-14.1-0.1-27.8-4.3-39.5-12.2c-0.1-0.1-0.2-0.3-0.2-0.4c0-0.2,0.1-0.3,0.2-0.4
		c0.2-0.1,17.3-10.7,17-20.8c-0.6-19.5,2.5-32.7,9.4-39.1c3.7-3.5,8.4-5,14-4.5l0,0c13,1.1,17.9,8.5,20.8,31.6
		c0.3,2.2,0.5,4.1,0.7,5.7c1.6,13.2,1.6,13.2,12.5,23.4l0.1,0.1c0.2,0.2,0.2,0.5,0.1,0.7C256.1,79.9,244.4,95.6,221.2,95.6z
		 M182.9,83.1c11.4,7.4,24.7,11.4,38.3,11.5c13,0.2,25.4-5.4,33.9-15.1c-11-10.3-11-10.4-12.6-23.8c-0.2-1.7-0.4-3.6-0.7-5.7
		c-3.2-24.9-9-29.8-19.9-30.7c-5.3-0.5-9.8,1-13.2,4.2c-6.6,6.2-9.6,19.2-9,38.4C200,71.5,186.2,81,182.9,83.1z"/>
	<ellipse class="st3" cx="220.2" cy="46.7" rx="13.2" ry="18.8"/>
	<path class="st1" d="M220.2,66c-12,0-13.7-9.3-13.7-19.3c0-10.4,0-19.3,13.7-19.3s13.7,8.9,13.7,19.3C233.9,56.7,232.3,66,220.2,66
		z M220.2,28.4c-12.6,0-12.6,7.7-12.6,18.3c0,11,2.2,18.3,12.6,18.3s12.6-7.3,12.6-18.3C232.9,36.1,232.9,28.4,220.2,28.4
		L220.2,28.4z"/>
	<path class="st3" d="M217.8,43.8c0,0-5,5.9-4.1,7.1s3.8,0.8,3.8,0.8"/>
	<path class="st1" d="M216.4,52.3c-1,0-2.5-0.2-3.1-1.1c-1-1.3,2.2-5.4,4.2-7.7c0.2-0.2,0.5-0.2,0.7-0.1c0.2,0.2,0.2,0.5,0.1,0.7
		c-2.5,2.9-4.4,5.9-4.1,6.5c0.6,0.8,2.6,0.7,3.3,0.6c0.3,0,0.5,0.2,0.6,0.4c0,0.3-0.2,0.5-0.4,0.6C217.2,52.3,216.8,52.3,216.4,52.3
		z"/>
	
		<ellipse transform="matrix(0.9999 -9.999500e-03 9.999500e-03 0.9999 -0.3996 2.1325)" class="st1" cx="213.1" cy="41" rx="1.1" ry="1.5"/>
	<ellipse transform="matrix(1 -5.585025e-03 5.585025e-03 1 -0.2315 1.25)" class="st1" cx="223.7" cy="42.1" rx="1.1" ry="1.5"/>
	<path class="st3" d="M214,55.1l9.7-3.3c1,2.4,0.4,5.3-1.7,7C218.3,62.5,214,55.1,214,55.1z"/>
	<path class="st1" d="M219.7,60.3c-0.2,0-0.3,0-0.5,0c-3-0.4-5.6-4.7-5.7-4.9c-0.1-0.1-0.1-0.3,0-0.4c0.1-0.1,0.2-0.3,0.3-0.3
		l9.6-3.3c0.2-0.1,0.5,0,0.6,0.3c1.1,2.6,0.4,5.7-1.7,7.6C221.7,59.9,220.7,60.3,219.7,60.3z M214.8,55.4c0.7,1.1,2.6,3.6,4.6,3.9
		c0.8,0.1,1.7-0.2,2.3-0.9c1.7-1.5,2.4-3.8,1.7-6L214.8,55.4z"/>
	<path class="st1" d="M199.1,116.7c-0.3,0-0.5-0.2-0.5-0.5V96c0-0.3,0.2-0.5,0.5-0.5s0.5,0.2,0.5,0.5v20.1
		C199.6,116.4,199.4,116.7,199.1,116.7C199.1,116.7,199.1,116.7,199.1,116.7z"/>
	<path class="st2" d="M50.7,71.5c0,0-17.7,0.6-24.7,13.4s-7.3,31.5-7.3,31.5h81c0,0-9-30.8-21.2-38.2C66.2,70.8,50.7,71.5,50.7,71.5
		z"/>
	<path class="st1" d="M30.9,111.6c-0.1,0-0.2,0-0.2-0.1c-0.3-0.1-0.4-0.4-0.2-0.7c0,0,0,0,0,0c0.3-0.8,4.4-15.4,7.1-25
		c0.1-0.3,0.4-0.4,0.6-0.4c0.3,0.1,0.4,0.4,0.4,0.6l0,0c-0.7,2.5-6.7,24.4-7.1,25.2C31.4,111.5,31.2,111.6,30.9,111.6z"/>
	<path class="st3" d="M60.2,26c0,0,4.5-11.4-7.1-14.3S31,16.4,32.3,26.6c1.4,10.2,9.1,10.3,9.1,10.3L60.2,26z"/>
	<path class="st1" d="M41.5,37.4L41.5,37.4c-0.1,0-8.2-0.3-9.6-10.8c-0.6-4.4,1-8.9,4.4-11.8c4.3-3.9,10.7-5.2,17-3.7
		c3.5,0.9,5.9,2.6,7.2,5.1c2.3,4.4,0.3,9.6,0.2,9.8c0,0.1-0.1,0.2-0.2,0.3L41.7,37.3C41.6,37.4,41.5,37.4,41.5,37.4z M48.1,11.6
		C44,11.5,40,13,37,15.7c-3.1,2.7-4.7,6.8-4.1,10.9c1.2,9,7.4,9.8,8.5,9.9l18.4-10.8c0.3-0.9,1.6-5.3-0.2-8.8
		c-1.2-2.3-3.4-3.8-6.6-4.6C51.4,11.8,49.8,11.6,48.1,11.6z M60.2,26L60.2,26z"/>
	<path class="st0" d="M43.3,27.1c1.7-1.1,3.6-1.8,5.6-2.2c5.4-1.1,11.7-0.1,15.5,3.9c-1.8-1.4-4.3-0.3-6.4,0.4
		c-1.9,0.6-3.8,1-5.7,1.5c-2.5,0.8-4.9,2-7,3.6c-1.3,1-4.1,5.1-5.5,5c-2.7-0.2-1.5-4.9-1-6.3C39.5,30.7,41.2,28.6,43.3,27.1z"/>
	<path class="st1" d="M39.8,40L39.8,40c-0.8,0-1.4-0.4-1.8-0.9c-1.2-1.8,0.1-5.6,0.2-6c0.9-2.6,2.5-4.8,4.8-6.3l0,0
		c1.8-1.1,3.7-1.8,5.8-2.2c4.9-1,11.7-0.5,15.9,4.1c0.2,0.2,0.2,0.5,0,0.7c-0.2,0.2-0.5,0.2-0.7,0.1c-1.4-1.1-3.4-0.4-5.4,0.3
		l-0.5,0.2c-1,0.3-2.1,0.6-3.1,0.9c-0.8,0.2-1.7,0.4-2.6,0.7c-2.5,0.8-4.7,2-6.8,3.5c-0.6,0.5-1.1,1.1-1.7,1.7
		C42.2,38.6,40.9,40,39.8,40z M53.1,25.1c-1.4,0-2.7,0.1-4.1,0.4c-1.9,0.3-3.8,1-5.4,2l0,0c-2.1,1.4-3.6,3.4-4.4,5.8
		c-0.5,1.5-1,4.1-0.3,5.1c0.2,0.3,0.5,0.5,0.9,0.5c0.7,0,2.4-1.9,3.4-3c0.6-0.7,1.2-1.3,1.8-1.9c2.1-1.6,4.5-2.9,7.1-3.7
		c0.9-0.3,1.8-0.5,2.6-0.7c0.9-0.2,2-0.5,3-0.8l0.5-0.2c1.2-0.5,2.6-0.8,3.9-0.9C59.5,25.9,56.3,25,53.1,25.1z"/>
	<path class="st3" d="M71.8,29.7c-6.5-3.3-14.1-4.1-21.2-2c-6.8,2-11,7.6-12.6,14.4c-1.1,4.7-1.9,11.9,1.9,15.4
		c4.2,3.7,9.4,6.1,14.9,6.8c5.8,0.9,13,0.8,17.8-3c4.9-4.1,7.8-10,8.1-16.3C80.9,37.7,77.2,32.6,71.8,29.7z"/>
	<path class="st1" d="M60.5,65.2c-1.9,0-3.9-0.2-5.8-0.5c-5.6-0.7-10.9-3.1-15.1-6.9c-3.9-3.5-3.3-10.6-2-15.9
		c1.7-7.4,6.5-12.8,13-14.7c7.2-2.1,14.9-1.3,21.5,2l0,0c5.9,3,9.5,9.1,9.1,15.7c-0.3,6.5-3.3,12.5-8.3,16.7
		C69.3,64.4,64.6,65.2,60.5,65.2z M58.7,27.1c-2.7,0-5.4,0.4-7.9,1.1c-6.3,1.9-10.6,6.8-12.3,14c-1,4.1-2,11.5,1.7,14.9
		c4.1,3.6,9.2,6,14.6,6.7c4.3,0.7,12.2,1.2,17.4-2.9c4.7-4,7.6-9.8,7.9-15.9c0.3-8.1-4.5-12.5-8.6-14.8l0,0
		C67.6,28.1,63.2,27,58.7,27.1z"/>
	<path class="st3" d="M66.2,70.9l0.9,12.2c0,0-1.2,5.7-9.5,4.4s-10-6.9-10-6.9l-0.8-22.9c0,0,12.3-7.8,9.4-20.8
		c0,0,5.8,7.1,17.8,4.6c0,0,1.1,14.6,0.6,21C74.2,68.9,66.2,70.9,66.2,70.9z"/>
	<path class="st1" d="M59.9,88.2c-0.8,0-1.6-0.1-2.4-0.2c-8.5-1.4-10.3-7-10.4-7.2c0,0,0-0.1,0-0.1l-0.8-22.9c0-0.2,0.1-0.4,0.2-0.5
		c0.1-0.1,11.9-7.8,9.2-20.3c-0.1-0.2,0.1-0.5,0.3-0.6c0.2-0.1,0.5,0,0.6,0.1c0,0.1,5.7,6.8,17.3,4.4c0.1,0,0.3,0,0.4,0.1
		c0.1,0.1,0.2,0.2,0.2,0.4c0,0.1,1.1,14.7,0.6,21.1c-0.4,5.9-6.7,8.2-8.4,8.7L67.6,83c0,0,0,0.1,0,0.1
		C67.6,83.3,66.5,88.2,59.9,88.2z M48.1,80.5c0.2,0.6,2,5.2,9.6,6.4c7.3,1.2,8.8-3.3,8.9-3.9l-0.9-12.2c0-0.2,0.1-0.5,0.4-0.5
		c0.1,0,7.6-2,8-7.9c0.4-5.6-0.4-17.6-0.6-20.3c-8.9,1.7-14.3-1.8-16.6-3.7c1.5,11.3-8,18.5-9.7,19.6L48.1,80.5z"/>
	<path class="st3" d="M50.6,56.8c-0.4-1.1-1.1-2.1-2-2.7c-0.9-0.6-1.9-1-3-1.2c-0.6-0.2-1.2-0.2-1.7-0.2c-0.4,0.1-0.8,0.3-1.1,0.5
		c-0.9,0.5-1.5,1.3-1.8,2.2c-0.2,0.8-0.1,1.6,0.1,2.3c0.2,0.8,0.4,1.7,0.8,2.4c1.7,3.2,5.6,4.4,8.8,2.7c0,0,0,0,0,0"/>
	<path class="st1" d="M47.6,64.2c-0.7,0-1.4-0.1-2-0.3c-1.8-0.5-3.3-1.8-4.2-3.4c-0.4-0.8-0.7-1.7-0.9-2.6c-0.2-0.9-0.2-1.8,0-2.6
		c0.3-1.1,1.1-2,2-2.5c0.4-0.3,0.8-0.5,1.3-0.6c0.7-0.1,1.3,0,2,0.2c1.1,0.2,2.2,0.7,3.1,1.3c1,0.7,1.8,1.8,2.2,3
		c0.1,0.3-0.1,0.6-0.3,0.7c-0.3,0.1-0.6-0.1-0.7-0.3c-0.3-1-1-1.9-1.8-2.5c-0.9-0.5-1.8-0.9-2.8-1.1c-0.5-0.2-1-0.2-1.5-0.2
		c-0.3,0.1-0.7,0.2-1,0.4c-0.7,0.4-1.3,1.1-1.6,1.9c-0.1,0.7-0.1,1.4,0.1,2.1c0.1,0.8,0.4,1.6,0.8,2.3c1.5,2.9,5.2,4,8.1,2.5
		c0,0,0,0,0,0c0.2-0.1,0.6,0,0.7,0.2c0,0,0,0,0,0c0.1,0.2,0,0.6-0.2,0.7C49.9,63.9,48.7,64.2,47.6,64.2z"/>
	<path class="st3" d="M64.2,51.1c0,0,5,5.9,4.1,7.1c-0.9,1.2-3.8,0.8-3.8,0.8"/>
	<path class="st1" d="M65.6,59.6c-0.4,0-0.8,0-1.1-0.1c-0.3,0-0.5-0.3-0.4-0.6c0-0.3,0.3-0.5,0.6-0.4c0.7,0.1,2.8,0.2,3.3-0.6
		c0.3-0.6-1.6-3.6-4.1-6.5c-0.2-0.2-0.2-0.5,0.1-0.7c0.2-0.2,0.5-0.2,0.7,0.1c2,2.3,5.1,6.4,4.2,7.7C68.1,59.4,66.6,59.6,65.6,59.6z
		"/>
	<path class="st3" d="M68,62.4l-9.7-3.3c-1,2.4-0.4,5.3,1.7,7C63.8,69.8,68,62.4,68,62.4z"/>
	<path class="st1" d="M62.3,67.6c-1,0-2-0.5-2.6-1.2c-2.1-1.9-2.8-4.9-1.7-7.6c0.1-0.2,0.4-0.3,0.6-0.3l9.7,3.3
		c0.1,0.1,0.3,0.2,0.3,0.3c0.1,0.1,0.1,0.3,0,0.4c-0.1,0.2-2.6,4.5-5.7,4.9C62.6,67.6,62.4,67.6,62.3,67.6z M58.6,59.7
		c-0.7,2.2,0,4.5,1.7,6c0.6,0.6,1.4,1,2.3,0.9c2-0.3,3.9-2.8,4.6-3.9L58.6,59.7z"/>
	<path class="st1" d="M61.4,49.9c-0.1,0-0.2,0-0.3-0.1c-2.5-1.5-4.1-1-4.1-1c-0.3,0.1-0.6-0.1-0.6-0.3c-0.1-0.2,0-0.5,0.2-0.6
		c0.1,0,2-0.8,5,1c0.2,0.1,0.3,0.5,0.2,0.7c0,0,0,0,0,0C61.7,49.8,61.6,49.9,61.4,49.9z"/>
	<path class="st1" d="M67.6,49.9c-0.1,0-0.3-0.1-0.4-0.2c-0.2-0.2-0.2-0.5,0-0.7c0,0,0,0,0,0c0.1-0.1,0.2-0.2,0.4-0.1l0.4-0.2
		c1-0.5,2.9-1.7,4.9-0.9c0.3,0.1,0.4,0.4,0.3,0.6c-0.1,0.3-0.4,0.4-0.6,0.3c0,0-0.1,0-0.1,0c-1.5-0.6-3,0.3-4,0.8
		C68.3,49.8,67.9,49.9,67.6,49.9z"/>
	<path class="st1" d="M66.2,70.9c0,0-6.4,0.3-9.4-1.3c0,0,2.8,7.1,9.8,8.6L66.2,70.9z"/>
	<path class="st1" d="M66.6,78.7h-0.1c-7.2-1.5-10.1-8.7-10.2-9c-0.1-0.2,0-0.4,0.1-0.6c0.2-0.1,0.4-0.2,0.6-0.1
		c2.9,1.5,9.1,1.2,9.1,1.2c0.3,0,0.5,0.2,0.5,0.5c0,0,0,0,0,0l0.4,7.4C67.2,78.5,67,78.7,66.6,78.7C66.7,78.7,66.7,78.8,66.6,78.7
		L66.6,78.7z M57.9,70.5c1,1.9,3.7,5.8,8.2,7l-0.3-6.2C63.1,71.5,60.4,71.2,57.9,70.5z"/>
	<path class="st3" d="M34.7,115.7c1.9-6.9-4.5-19.1-6.3-25.2c-1.7-5.6-9.4-20.4-8-26.2c0,0,3.5-14.1,0.2-12c-1.9,1.2-3.2,7-3.2,7
		s-2.1-12.8-5.4-14.1S2,52.3,3,55.9C6.3,67.6,7.5,80,9,92c1.3,10.8,1.1,28,15.9,28.8C31,121.2,33.8,119.1,34.7,115.7z"/>
	<path class="st1" d="M26.1,121.4c-0.4,0-0.8,0-1.2,0c-13.5-0.7-14.9-14.9-15.9-25.3c-0.1-1.4-0.3-2.7-0.4-4S8.1,89.4,8,88
		C6.7,77.3,5.4,66.4,2.5,56c-0.7-2.5,1.8-6.9,4.7-9.4c1.9-1.7,3.6-2.4,5-1.8c2.7,1.1,4.6,8.5,5.3,12.3c0.6-1.9,1.6-4.3,2.9-5.1
		c0.4-0.4,1-0.4,1.5-0.1c1.8,1.3-0.3,10-0.9,12.6c-1,3.9,2.6,12.7,5.3,19.1c1.2,2.8,2.2,5.2,2.7,6.9c0.5,1.7,1.3,3.6,2.1,5.8
		c2.5,6.4,5.7,14.5,4.2,19.8l0,0C34.2,119.5,31.1,121.4,26.1,121.4z M11.2,45.6c-1.3,0.2-2.5,0.8-3.3,1.8C5,49.9,3,53.9,3.5,55.7
		C6.4,66.1,7.7,77.2,9,87.8c0.2,1.4,0.3,2.8,0.5,4.2s0.3,2.6,0.4,4.1c1,10.6,2.3,23.7,15,24.4c5.3,0.3,8.4-1.3,9.3-4.8
		c1.4-5-1.7-12.8-4.2-19.1c-0.9-2.2-1.7-4.2-2.1-5.8c-0.5-1.6-1.5-4-2.6-6.8c-2.9-6.9-6.4-15.5-5.3-19.7c1.3-5.1,2.1-10.9,1.3-11.5
		c0,0-0.2,0-0.4,0.1c-1.4,0.9-2.7,5.1-3,6.7c0,0.2-0.3,0.4-0.5,0.4c-0.2,0-0.4-0.2-0.5-0.4c-0.6-3.5-2.6-12.7-5.1-13.7
		C11.6,45.6,11.4,45.6,11.2,45.6z M34.7,115.7L34.7,115.7z"/>
	<path class="st1" d="M10.1,65.4H9.9c-0.3-0.1-0.4-0.3-0.4-0.6c1-3.9,7.4-5.8,7.6-5.9c0.3-0.1,0.5,0.1,0.6,0.4
		c0,0.2-0.1,0.5-0.3,0.6c-0.1,0-6.1,1.9-6.9,5.2C10.5,65.3,10.3,65.4,10.1,65.4z"/>
	<path class="st1" d="M80.7,116.9c-0.2,0-0.5-0.2-0.5-0.4l-4.4-28.7c0-0.3,0.2-0.5,0.4-0.6c0.3,0,0.5,0.1,0.6,0.4c0,0,0,0,0,0
		l4.4,28.7C81.2,116.6,81.1,116.8,80.7,116.9L80.7,116.9z"/>
	<path class="st1" d="M45.1,98.9c-0.1,0-0.1,0-0.2,0c-0.3-0.1-0.4-0.4-0.3-0.7c0,0,0,0,0,0l5.5-13.8c0.1-0.3,0.4-0.4,0.7-0.3
		c0.3,0.1,0.4,0.4,0.3,0.7l0,0l-5.5,13.8C45.4,98.8,45.3,98.9,45.1,98.9z"/>
	<path class="st1" d="M51.9,89.7c-0.1,0-0.1,0-0.2,0l-5.9-1.9c-0.3-0.1-0.4-0.4-0.3-0.6c0.1-0.3,0.4-0.4,0.6-0.3l5.9,2
		c0.3,0.1,0.4,0.4,0.3,0.6C52.2,89.6,52.1,89.7,51.9,89.7z"/>
	<path class="st1" d="M50.6,94.5c-0.1,0-0.1,0-0.2,0l-6-2.4c-0.3-0.1-0.4-0.4-0.3-0.7c0,0,0,0,0,0c0.1-0.3,0.4-0.4,0.7-0.3
		c0,0,0,0,0,0l6,2.4c0.3,0.1,0.5,0.3,0.4,0.6C51.1,94.4,50.9,94.6,50.6,94.5L50.6,94.5z"/>
	<path class="st0" d="M221.5,77.6c-4.6-0.1-9.2-0.8-13.6-2c-0.3-0.1-0.4-0.4-0.4-0.6c0.1-0.3,0.3-0.4,0.6-0.4c0,0,0,0,0,0
		c11.5,3.1,19.4,1.8,23.9,0.2c2.7-0.9,5.1-2.4,7.1-4.3c0.2-0.2,0.5-0.2,0.7-0.1c0.2,0.2,0.2,0.5,0.1,0.7
		C239.8,71.4,234.3,77.6,221.5,77.6z"/>
	<path class="st1" d="M176.1,116.7c-0.2,0-0.5-0.2-0.5-0.4c-2.5-14.6,3.2-28.7,3.3-28.8c0.1-0.3,0.4-0.4,0.7-0.3
		c0.3,0.1,0.4,0.4,0.3,0.7c0,0,0,0,0,0c-0.1,0.1-5.7,13.9-3.2,28.2C176.7,116.4,176.5,116.7,176.1,116.7L176.1,116.7z"/>
</g>
</svg>
