<?xml version="1.0" encoding="utf-8"?>
<!-- Generator: Adobe Illustrator 23.1.0, SVG Export Plug-In . SVG Version: 6.00 Build 0)  -->
<svg version="1.1" id="Layer_1" xmlns="http://www.w3.org/2000/svg" xmlns:xlink="http://www.w3.org/1999/xlink" x="0px" y="0px"
	 viewBox="0 0 303.1 247.1" style="enable-background:new 0 0 303.1 247.1;" xml:space="preserve">
<style type="text/css">
	.st0{fill:#D1D3D4;}
	.st1{fill:#FFFFFF;}
	.st2{fill:#FF1F1F;}
	.st3{fill:#231F20;}
	.st4{fill:none;}
</style>
<g id="_24">
	<path class="st0" d="M299.5,207.9H16.2c-0.3,0-0.5-0.2-0.5-0.5c0-0.3,0.2-0.5,0.5-0.5h283.3c0.3,0,0.5,0.2,0.5,0.5
		C300,207.7,299.8,207.9,299.5,207.9z"/>
	<ellipse class="st1" cx="76.3" cy="58.5" rx="72.9" ry="55.8"/>
	<path class="st0" d="M76.4,114.8C35.9,114.8,3,89.5,3,58.5S35.9,2.3,76.4,2.3s73.4,25.2,73.4,56.3S116.8,114.8,76.4,114.8z
		 M76.4,3.3C36.5,3.3,4,28,4,58.5s32.5,55.2,72.4,55.2s72.4-24.8,72.4-55.2S116.2,3.3,76.4,3.3z"/>
	<path class="st1" d="M157.3,34.5c-0.3,0-0.7,0.1-1,0.1c-3.8,1-4.9,6.2-0.6,7.6c2.3,0.6,4.7-0.7,5.3-3.1c0-0.2,0.1-0.3,0.1-0.5
		c0.3-2.1-1.2-3.9-3.3-4.2C157.7,34.5,157.5,34.5,157.3,34.5z"/>
	<path class="st0" d="M156.8,43c-0.4,0-0.9-0.1-1.3-0.2c-1.9-0.5-3.2-2.2-3.1-4.1c0.1-2.2,1.6-4,3.7-4.5c0.4-0.1,0.8-0.1,1.2-0.1
		l0,0c2.3,0,4.3,1.8,4.3,4.2c0,0.2,0,0.4,0,0.6c-0.2,1.4-1,2.6-2.2,3.4C158.7,42.7,157.8,43,156.8,43z M157.3,35
		c-0.3,0-0.6,0-0.9,0.1c-1.7,0.4-2.9,1.8-3,3.5c0,1.5,1,2.8,2.4,3.1c2,0.5,4.1-0.7,4.7-2.7c0-0.1,0.1-0.2,0.1-0.4
		c0.2-1.8-1-3.4-2.8-3.6C157.7,35,157.5,35,157.3,35L157.3,35z M157.3,34.5L157.3,34.5z"/>
	<path class="st2" d="M246,138.5l21-5.3c-0.8-1.5-13.5-39.8-25.2-47.2c-10-8.3-30.2-9.1-53-10c-7.3-0.4-14.6,0.3-21.7,2.1
		c-26.6,7.4-45.3,45.1-45.3,45.1l26.2,5.2c0,0-4.2,39-7.8,86.5c0,0,41.8,9.4,107.1,5.7C247.2,220.6,245.4,145.2,246,138.5z"/>
	<polygon class="st3" points="182.1,89.2 160.4,219.5 204.5,222.7 214.1,81.7 	"/>
	<path class="st3" d="M204.5,223.2L204.5,223.2l-44.1-3.2c-0.1,0-0.3-0.1-0.4-0.2c-0.1-0.1-0.1-0.3-0.1-0.4l21.7-130.3
		c0-0.2,0.2-0.4,0.4-0.4l32-7.5c0.2,0,0.3,0,0.4,0.1c0.1,0.1,0.2,0.3,0.2,0.4l-9.6,141c0,0.1-0.1,0.3-0.2,0.3
		C204.8,223.2,204.7,223.2,204.5,223.2z M161,219.1l43,3.1l9.5-139.8l-31,7.2L161,219.1z"/>
	<path class="st1" d="M185,70.1l-4.1,17c0,0,3.5,11.5,15,10.6c6.9-0.6,13.2-4.3,17.1-10l5-31.4c0,0-7.5-5.7-2.2-23.2
		c-9.7,2.4-19.9,2.2-29.5-0.7c0,0-8.2,18.6-8.3,27.4S185,70.1,185,70.1z"/>
	<path class="st3" d="M194.8,98.3c-10.8,0-14.2-10.9-14.3-11c0-0.1,0-0.2,0-0.3l3.9-16.6c-1.7-0.5-6.9-2.9-6.8-10.6
		c0.1-8.8,8-26.8,8.3-27.6c0.1-0.2,0.4-0.4,0.6-0.3c9.5,2.8,19.6,3.1,29.2,0.7c0.2,0,0.4,0,0.5,0.1c0.1,0.1,0.2,0.3,0.1,0.5
		c-2.7,8.8-2,14.5-0.9,17.8c0.5,1.9,1.6,3.6,3,4.9c0.1,0.1,0.2,0.3,0.2,0.5l-5,31.4c0,0.1,0,0.1-0.1,0.2c-4,5.9-10.4,9.6-17.5,10.3
		C195.6,98.3,195.2,98.3,194.8,98.3z M181.5,87.1c0.4,1.3,4,10.9,14.5,10.1c6.7-0.6,12.8-4.1,16.6-9.7l4.9-31
		c-1.3-1.2-6.8-7.3-2.4-22.7c-9.4,2.1-19.2,1.8-28.5-0.8c-1.2,2.8-8,18.9-8,26.8c-0.1,8.3,6.2,9.7,6.5,9.7c0.1,0,0.3,0.1,0.3,0.2
		c0.1,0.1,0.1,0.3,0.1,0.4L181.5,87.1z"/>
	<path class="st1" d="M211.7,54.8c0.6-1.5,1.7-2.7,3-3.5c1.3-0.7,2.7-1.1,4.2-1.3c0.8-0.2,1.6-0.2,2.4,0c0.5,0.2,1,0.5,1.5,0.8
		c1.1,0.8,1.9,1.9,2.2,3.2c0.1,1.1,0,2.2-0.4,3.2c-0.3,1.1-0.8,2.2-1.4,3.2c-2.6,4.2-8.1,5.4-12.3,2.8c0,0-0.1,0-0.1-0.1"/>
	<path class="st3" d="M215.8,65.1c-1.8,0-3.6-0.5-5.2-1.5c-0.2-0.2-0.3-0.5-0.1-0.7c0.1-0.2,0.5-0.3,0.7-0.2c0,0,0,0,0,0
		c3.9,2.5,9.1,1.4,11.6-2.4c0,0,0-0.1,0.1-0.1c0.6-1,1-2,1.3-3.1c0.4-0.9,0.5-2,0.4-3c-0.3-1.2-1-2.2-2-2.9
		c-0.4-0.3-0.8-0.6-1.3-0.7c-0.7-0.2-1.5-0.2-2.2,0c-1.4,0.2-2.8,0.6-4.1,1.3c-1.3,0.7-2.3,1.9-2.9,3.2c-0.1,0.3-0.4,0.4-0.7,0.3
		c-0.3-0.1-0.4-0.4-0.3-0.7c0.7-1.6,1.8-2.9,3.3-3.7c1.4-0.7,2.8-1.2,4.4-1.4c0.9-0.2,1.8-0.2,2.6,0c0.6,0.2,1.2,0.5,1.7,0.9
		c1.2,0.9,2,2.1,2.4,3.6c0.2,1.2,0,2.3-0.4,3.4c-0.3,1.2-0.8,2.3-1.4,3.4c-1.4,2.1-3.5,3.6-6,4.2C217.1,65.1,216.5,65.1,215.8,65.1z
		"/>
	<path class="st3" d="M183.4,78.7c4.1,1.1,8.4,0.5,12-1.8c5.7-3.9,5.7-6.7,5.7-6.7s-8.6,3-15.6,0.4L183.4,78.7z"/>
	<path class="st3" d="M187.5,79.7c-1.4,0-2.9-0.2-4.2-0.6c-0.3-0.1-0.4-0.3-0.3-0.6l2-8.2c0-0.1,0.1-0.3,0.3-0.3
		c0.1-0.1,0.3-0.1,0.4,0c6.8,2.5,15.2-0.4,15.3-0.4c0.2-0.1,0.3,0,0.5,0.1c0.1,0.1,0.2,0.3,0.2,0.4c0,0.1-0.1,3.1-5.9,7.1
		C193.3,78.9,190.4,79.8,187.5,79.7z M184.1,78.3c3.8,0.9,7.8,0.2,11.1-1.9c3.6-2.5,4.8-4.5,5.3-5.6c-2.3,0.7-8.8,2.2-14.6,0.3
		L184.1,78.3z"/>
	<path class="st1" d="M197.3,45.5c0,0-7.5,7.5-6.4,9.3s5.1,1.5,5.1,1.5"/>
	<path class="st3" d="M195.5,56.8c-1.2,0-4.1-0.2-5.1-1.8c-1.2-2,4.7-8.1,6.5-9.9c0.2-0.2,0.5-0.2,0.7,0c0.2,0.2,0.2,0.5,0,0.7
		c-3.9,3.9-6.8,7.9-6.4,8.6c0.8,1.2,3.6,1.4,4.6,1.3c0.3,0,0.5,0.2,0.5,0.5c0,0,0,0,0,0c0,0.3-0.2,0.5-0.5,0.5c0,0,0,0,0,0
		L195.5,56.8z"/>
	<ellipse transform="matrix(0.1113 -0.9938 0.9938 0.1113 135.6486 244.171)" class="st3" cx="204.3" cy="46.2" rx="2.1" ry="1.5"/>
	<ellipse transform="matrix(0.3992 -0.9169 0.9169 0.3992 74.6342 201.1839)" class="st3" cx="190.8" cy="43.6" rx="2.1" ry="1.5"/>
	<path class="st3" d="M202.9,65.5c-0.1,0-0.3-0.1-0.4-0.1c-4.5-4.3-16.7-7-16.8-7c-0.3-0.1-0.4-0.3-0.4-0.6c0,0,0,0,0,0
		c0.1-0.3,0.3-0.5,0.6-0.4c0,0,0,0,0,0c0.5,0.1,12.6,2.8,17.3,7.3c0.2,0.2,0.2,0.5,0,0.7C203.2,65.5,203,65.5,202.9,65.5L202.9,65.5
		z"/>
	<line class="st4" x1="251" y1="162.6" x2="266" y2="174.1"/>
	<path class="st3" d="M266,174.6c-0.1,0-0.2,0-0.3-0.1l-15-11.5c-0.2-0.2-0.3-0.5-0.1-0.7c0.2-0.2,0.5-0.3,0.7-0.1l15,11.5
		c0.2,0.2,0.3,0.5,0.1,0.7C266.3,174.6,266.1,174.6,266,174.6L266,174.6z"/>
	<path class="st3" d="M224.7,48.4h-0.1c-0.3-0.1-0.4-0.4-0.4-0.6c1.5-5.6,3-11.3,4.4-17l0.2-0.6c0.7-2.4,1.1-4.9,1.2-7.3
		c-0.1-1.8-0.9-2-3.4-2c-0.1,0-0.3,0-0.4-0.1c-0.1-0.1-0.1-0.2-0.2-0.4c0-2.5-1.3-4.9-3.3-6.4c-3.4-2.5-8.4-3-13.6-1.4l-0.3,0.1
		c-5.3,1.6-9.8,3-15.5,3.2c-1.1,0-2.3,0-3.4,0c-2.5-0.1-5,0.1-7.5,0.5c-1.5,0.4-3,0.9-4.5,1.4c-1.3,0.4-2.4,1-3.5,1.8
		c-1,1-1.9,2.3-2.4,3.6c-0.6,1.2-1,2.5-1.3,3.8c-0.6,4.1,2,7.6,3.7,9.4c1,1.1,2.6,2.4,4.1,2c0.3-0.1,0.6,0.1,0.6,0.4
		c0.1,0.3-0.1,0.6-0.4,0.6c-1.6,0.4-3.3-0.3-5.1-2.3c-1.7-1.9-4.6-5.8-3.9-10.3c0.3-1.4,0.7-2.8,1.3-4.1c0.6-1.5,1.5-2.9,2.7-4
		c1.1-0.9,2.4-1.5,3.8-2c1.5-0.6,3.1-1.1,4.6-1.5c2.5-0.5,5.1-0.6,7.7-0.5c1.1,0,2.2,0,3.3,0c5.6-0.2,10.1-1.6,15.3-3.2l0.3-0.1
		c5.6-1.7,10.9-1.1,14.5,1.5c2.1,1.6,3.5,4.1,3.7,6.7c1.8,0,3.9,0.2,4,3c-0.1,2.6-0.5,5.1-1.2,7.6l-0.2,0.6
		c-1.4,5.7-2.9,11.4-4.4,17.1C225.2,48.3,225,48.5,224.7,48.4z"/>
	<path class="st1" d="M208,90.7c0,0-5.7-5.5-7.3-12.2c-1.5-6.7-0.9-8.2-2-8.4c-1-0.2-2.8,0.5-4.1,2.8c-1.3,2.3-1,10.4,1.2,13.6
		S208,90.7,208,90.7z"/>
	<path class="st3" d="M208,91.2L208,91.2c-0.5-0.1-10.4-1.1-12.6-4.5c-2.2-3.4-2.6-11.6-1.2-14.1c1.4-2.5,3.3-3.3,4.7-3
		c0.9,0.2,1,1,1.3,2.7c0.2,1.3,0.4,3.2,1.1,6.1c1.5,6.5,7.1,11.9,7.1,12c0.1,0.2,0.2,0.4,0.1,0.6C208.4,91.1,208.2,91.2,208,91.2z
		 M198.4,70.5c-0.8,0-2.2,0.6-3.3,2.5c-1.1,1.9-0.9,9.9,1.2,13.1c1.4,2.1,7.1,3.4,10.4,3.9c-1.7-1.9-5.2-6.3-6.4-11.4
		c-0.7-2.9-0.9-4.9-1.1-6.2c-0.2-1.5-0.3-1.8-0.5-1.9C198.6,70.5,198.5,70.5,198.4,70.5L198.4,70.5z"/>
	<path class="st1" d="M123.3,123.9c0,0-25.5,62.7-15.9,81.8s103.6,27.6,103.6,27.6s12,5.1,15.7,5.8s17.8,1.6,17.8,1.6
		s-5.3,1-3.5,2.6c1.9,1.6,12.2,1.6,13.3-2.1c1.1-3.7-1.9-18.6-5.1-21c-3.2-2.4-39.3-11.2-42-11.4C204.5,208.6,145,188,145,188
		l7.7-58.3"/>
	<path class="st3" d="M246,244.9c-2.4,0-4.5-0.4-5.4-1.1c-0.4-0.3-0.6-0.8-0.5-1.3c0.3-0.6,0.8-1.1,1.5-1.4
		c-4.3-0.3-12.4-0.9-15.1-1.4c-3.6-0.8-14.6-5.4-15.7-5.8c-4.9-0.4-94.4-8.9-103.9-27.9c-4.1-8-2.6-24.4,4.4-48.4
		c5.1-17.9,11.5-33.6,11.6-33.8c0.1-0.3,0.4-0.4,0.7-0.3c0.3,0.1,0.4,0.4,0.3,0.7c-0.3,0.6-25.3,62.7-16,81.4S210,232.7,211,232.8
		c0,0,0.1,0,0.1,0c0.1,0.1,12,5.1,15.6,5.8c3.6,0.7,17.6,1.6,17.7,1.6c0.3,0,0.5,0.2,0.5,0.5c0,0.3-0.2,0.5-0.4,0.5
		c-1.5,0.3-3.3,1-3.4,1.5c0,0.1,0.1,0.2,0.2,0.3c1,0.9,5.9,1.4,9.5,0.3c1.2-0.4,2.6-1,2.9-2.2c1.1-3.8-2-18.3-4.9-20.4
		c-2.8-2.2-38.5-11-41.7-11.3c-2.7-0.3-59.9-20.1-62.3-20.9c-0.2-0.1-0.4-0.3-0.3-0.5l7.7-58.3c0-0.3,0.3-0.5,0.6-0.4
		c0.3,0,0.5,0.3,0.4,0.6l-7.7,57.9c20.7,7.2,59.6,20.5,61.7,20.7s38.7,8.9,42.2,11.5c3.5,2.6,6.3,17.7,5.2,21.5
		c-0.4,1.2-1.6,2.2-3.6,2.8C249.4,244.7,247.7,244.9,246,244.9z"/>
	<path class="st1" d="M231.1,142.2c0,0-17.1-43.8-21.9-51.1s-25.9-24.8-28.6-23.1c-2.6,1.8-1.9,3.7-0.8,5.1c1.1,1.4,7.2,5.6,7.2,5.6
		s-6.9-3.2-7.1,1c-0.2,4.2,5.1,6.7,5.1,6.7s-5.8-4.3-6,0.3c-0.1,2.7,1.5,5.2,4.1,6.3c0,0-6.2-5.2-5.6,0.2c1,9,19,19.7,19,19.7
		l7.7,74.6c0,0,2.7,43.2,30.3,41.9c35.4-1.7,45.7-52.8,28-96"/>
	<path class="st3" d="M233.3,230c-26.6,0-29.6-42-29.6-42.4l-7.6-74.3c-2.2-1.3-18.1-11.3-19.1-19.9c-0.2-1.5,0.1-2.4,0.9-2.8
		c0.5-0.2,1-0.3,1.5-0.1c-0.6-1.1-0.9-2.4-0.9-3.7c-0.1-1,0.4-1.9,1.3-2.4c0.5-0.2,0.9-0.3,1.4-0.2c-1.1-1.2-1.7-2.8-1.7-4.4
		c0-0.9,0.4-1.7,1.2-2.2c1.1-0.5,2.3-0.6,3.5-0.3c-1.6-1.1-3.2-2.4-4.6-3.8c-1.4-1.3-1.5-3.6-0.2-5c0.3-0.3,0.7-0.6,1.1-0.8
		c1.9-1.3,9.6,4.6,14.1,8.2c5.7,4.7,12.6,11.1,15.2,15c4.8,7.2,21.3,49.4,22,51.2c0.1,0.3,0,0.6-0.3,0.6c-0.2,0.1-0.5,0-0.6-0.3
		c0,0,0,0,0,0c-0.2-0.4-17.2-43.9-21.9-51c-2.2-3.3-8.2-9.3-15-14.8c-8.2-6.7-12.2-8.6-12.8-8.1c-0.8,0.4-1.3,1.1-1.5,2
		c0,0.9,0.3,1.7,0.9,2.3c0.9,1,5.4,4.3,7.1,5.5c0.2,0.2,0.3,0.4,0.1,0.7c-0.1,0.2-0.4,0.3-0.6,0.2c-1.1-0.5-4.3-1.7-5.7-0.8
		c-0.5,0.3-0.7,0.8-0.7,1.4c-0.1,2.4,1.7,4.2,3.2,5.2c0.6,0.3,1.1,0.6,1.7,1c0.2,0.2,0.3,0.5,0.1,0.7c-0.1,0.2-0.4,0.2-0.6,0.1
		c-0.6-0.3-1.2-0.6-1.7-1c-1-0.5-2.2-0.9-2.9-0.6c-0.4,0.2-0.6,0.7-0.7,1.5c-0.1,1.6,0.5,3.2,1.6,4.4c0.8,0.5,1.5,1,2.2,1.6
		c0.2,0.2,0.2,0.4,0.1,0.6c-0.1,0.2-0.4,0.3-0.6,0.2c-0.8-0.4-1.6-0.9-2.3-1.6c-0.9-0.5-1.8-0.8-2.3-0.6c-0.5,0.2-0.5,0.8-0.4,1.8
		c0.9,8.6,18.6,19.2,18.8,19.3c0.1,0.1,0.2,0.2,0.3,0.4l7.7,74.6c0,0.4,3,42.8,29.8,41.5c11.1-0.5,20.4-6.1,26.7-16.1
		c12.1-19,12.4-50.8,0.8-79.2c-0.1-0.3,0-0.5,0.3-0.7c0.3-0.1,0.6,0,0.7,0.3c11.7,28.7,11.4,60.8-0.9,80.1
		c-6.6,10.3-16.1,16-27.5,16.6L233.3,230z"/>
	<path class="st1" d="M230.2,140.5c0,0,13.8,37.6,17.4,49.9"/>
	<path class="st3" d="M247.6,191c-0.2,0-0.4-0.1-0.5-0.4c-3.5-12.2-17.2-49.5-17.3-49.9c-0.1-0.3,0-0.6,0.3-0.7
		c0.3-0.1,0.6,0,0.7,0.3c0,0,0,0,0,0c0.1,0.4,13.9,37.7,17.4,50c0.1,0.3-0.1,0.5-0.3,0.6L247.6,191z"/>
	<path class="st3" d="M155,104.4c0,1.1-2.1,20.9-2.1,20.9"/>
	<path class="st3" d="M152.8,125.8L152.8,125.8c-0.3,0-0.5-0.3-0.5-0.6c0.6-5.5,2.1-20,2.1-20.8c0-0.3,0.2-0.5,0.5-0.5
		c0.3,0,0.5,0.2,0.5,0.5c0,1.1-2,20.1-2.1,20.9C153.3,125.6,153.1,125.8,152.8,125.8z"/>
	<path d="M63.7,66.8c-0.6-7.6,2.4-12.6,10.8-18.6c7.6-5.3,9.7-8.1,9.4-12.4c-0.4-5.1-5-7.9-11.8-7.3c-8.5,0.7-13.2,6.5-13.1,16.2
		l-18.5,0.1c-0.8-18.6,11.3-31.6,30.5-33.1c17-1.3,30.3,8,31.3,22.1c0.7,8.6-3,15-12.6,21.9c-7.7,5.7-9.4,8-9,12.3l0.3,4.4
		l-16.8,1.3L63.7,66.8z M63.7,82.3l19.8-1.5L85,100l-19.9,1.5L63.7,82.3z"/>
	<path class="st1" d="M167.6,47c2.9,0.6,3.2-4.4,0.2-3.8c-1.1,0.1-1.8,1.1-1.7,2.2C166.1,46.2,166.8,46.8,167.6,47z"/>
	<path class="st0" d="M168,47.6c-0.2,0-0.4,0-0.6-0.1l0,0c-1.1-0.2-2-1.2-2-2.3c0-1.2,0.9-2.3,2.1-2.5c0.9-0.2,1.8,0.1,2.4,0.9
		c0.6,0.9,0.5,2.1-0.1,3C169.5,47.2,168.8,47.6,168,47.6z M167.7,46.5c0.5,0.2,1.1-0.1,1.4-0.5c0.4-0.6,0.4-1.3,0.1-1.9
		c-0.3-0.4-0.8-0.6-1.3-0.4c-0.7,0.1-1.3,0.8-1.3,1.5C166.5,45.9,167,46.5,167.7,46.5z"/>
	<path class="st0" d="M68.2,176.5c0.1-1.7-0.3-3.4-1.2-4.9c-0.9-1-1.7-2-2.5-3.1c-1-2-0.3-4.3-0.6-6.5c-0.2-1.9-1.2-3.6-2.6-4.9
		c-1.3-1.2-2.9-1.9-4.2-3.2c-2-2-2.6-4.8-3.7-7.2c-1.7-3.6-4.6-6.5-8.1-8.4c2.2,3.9-2.8,8.9-0.5,12.8c0.7,1.2,2.1,2.1,2.6,3.4
		c1.3,3.2-3,6.6-1.6,9.7c0.7,1.6,2.6,2.5,3.5,3.9c1.2,2,0.3,4.4,0.4,6.7c0.1,3.1,2.3,5.9,4.8,8.1c1.6,1.3,3.3,2.5,5.1,3.7
		c2,1.5,2.9,3,4.7,0.6C66.6,184.2,68,180.4,68.2,176.5z"/>
	<path class="st0" d="M72.7,177.9c-0.7-2.4-1.1-5,0-7.3c1.3-2.6,4.4-4.4,4.7-7.2c0.2-1.8-0.8-3.7-0.4-5.5s2-3,3.4-4.4
		c3.1-2.9,5-6.9,5.3-11.2c2.1,2.2,3.8,4.7,5.1,7.4c1.2,2.7,0.9,5.9-0.7,8.4c-0.5,0.6-0.9,1.2-1.3,1.9c-0.6,1.8,1.1,3.4,2,5.1
		c1.1,1.9,0.8,4.4-0.6,6c-1.8,2-5.3,2.8-6.1,5.2c-0.2,0.9-0.3,1.8-0.3,2.8c-0.5,3.4-3.1,6.2-6.5,6.9c-2.1,0.4-2-0.3-2.5-1.9
		C74.2,182.1,73.3,180.1,72.7,177.9z"/>
	<path class="st0" d="M66,160.6c-1.5-4.6-2.1-9.5-3.7-14.1c-1.4-3.6-3-7.1-4.9-10.5l6.5,2.4c2,0.8,4.3,1.7,5.3,3.5
		c1.7,3.1-1.4,7.2,0.4,10.3c0.8,1,1.6,2,2.6,2.9c1.9,2.4,1.6,5.6,0.6,8.4c-0.4,1.2-2.4,7.3-4.2,5.6c-0.7-0.7-0.8-3.2-1-4.2
		C67,163.5,66.4,162,66,160.6z"/>
	<path class="st0" d="M65,203.4c-1.1-8.4-2.1-15.6-2.1-15.8l-1,0.1c0,0.1,1,7.3,2.1,15.6H65z"/>
	<path class="st0" d="M73.8,203.4c1.4-10.8,2.8-18.8,3.6-19.7l-0.8-0.7c-1.1,1.2-2.6,10.6-3.9,20.4H73.8z"/>
	<path class="st0" d="M72.5,203.4c-1.1-19.6-3-39-3-39.2l-1,0.1c0,0.3,2,19.6,3,39.1H72.5z"/>
	<path class="st0" d="M55,191.8h28.7l-2,21.6c-0.3,3.7-4.5,6.6-9.6,6.6h-5.6c-5.1,0-9.2-2.9-9.6-6.6L55,191.8z"/>
</g>
</svg>
