<?xml version="1.0" encoding="utf-8"?>
<!-- Generator: Adobe Illustrator 23.1.0, SVG Export Plug-In . SVG Version: 6.00 Build 0)  -->
<svg version="1.1" id="a65bca02-317b-4705-84dd-2a5586816ee4"
	 xmlns="http://www.w3.org/2000/svg" xmlns:xlink="http://www.w3.org/1999/xlink" x="0px" y="0px" viewBox="0 0 680.8 584.2"
	 style="enable-background:new 0 0 680.8 584.2;" xml:space="preserve">
<style type="text/css">
	.st0{fill:#E6E6E6;}
	.st1{fill:#F2F2F2;}
	.st2{fill:#FFFFFF;}
	.st3{fill:#CACACA;}
	.st4{fill:#E4E4E4;}
	.st5{fill:#FC3D23;}
	.st6{fill:#A0616A;}
	.st7{fill:#3F3D56;}
	.st8{fill:#DB9B82;}
	.st9{fill:#2F2E41;}
</style>
<path id="b9ccae5a-ffdd-4f5c-9c1e-05af9f0f3372" class="st0" d="M51.1,536.1c8,2.8,16.8,1.2,23.4-4.1c8.2-6.9,10.8-18.2,12.8-28.7
	l6.2-31l-12.9,8.9c-9.3,6.4-18.8,13-25.3,22.3s-9.3,21.9-4.1,32"/>
<path id="f4ad1d06-bd03-4ced-a5c4-c19a65ab4ee5" class="st1" d="M53.1,575.9C51.5,564,49.8,552,51,540c1-10.6,4.3-21,10.9-29.6
	c3.5-4.5,7.8-8.4,12.6-11.4c1.3-0.8,2.4,1.2,1.2,2c-8.4,5.3-14.9,13.1-18.5,22.3c-4,10.2-4.7,21.4-4,32.3c0.4,6.6,1.3,13.1,2.2,19.7
	c0.1,0.6-0.2,1.2-0.8,1.4C53.9,576.8,53.3,576.5,53.1,575.9L53.1,575.9z"/>
<path id="baf785f8-b4c6-42cf-85bd-8a16037845f7" class="st0" d="M64.8,556.8c3.4,5.2,9.3,8.2,15.5,8c7.9-0.4,14.4-5.9,20.3-11.1
	l17.5-15.4l-11.5-0.6c-8.3-0.4-16.8-0.8-24.7,1.8s-15.2,8.7-16.7,16.9"/>
<path id="a14e4330-7125-4e03-a856-d6453c34f6cc" class="st1" d="M48.5,582.7c7.8-13.9,16.9-29.3,33.2-34.2c4.5-1.4,9.3-1.9,14-1.4
	c1.5,0.1,1.1,2.4-0.4,2.3c-7.9-0.7-15.7,1.4-22.3,5.9c-6.3,4.3-11.2,10.2-15.3,16.5c-2.5,3.9-4.8,7.9-7.1,11.9
	C49.9,584.9,47.8,584,48.5,582.7z"/>
<path id="ac20a106-7eb8-4a45-8835-674ef3bf3222" class="st2" d="M675.8,411.4H243.6c-2.8,0-5-2.3-5-5V5c0-2.8,2.3-5,5-5h432.2
	c2.8,0,5,2.3,5,5v401.4C680.8,409.2,678.6,411.4,675.8,411.4L675.8,411.4z"/>
<path id="a8878079-c7cd-406f-a434-8b15b914b9b4" class="st3" d="M675.8,411.4H243.6c-2.8,0-5-2.3-5-5V5c0-2.8,2.3-5,5-5h432.2
	c2.8,0,5,2.3,5,5v401.4C680.8,409.2,678.6,411.4,675.8,411.4L675.8,411.4z M243.6,2c-1.7,0-3,1.3-3,3v401.4c0,1.7,1.3,3,3,3h432.2
	c1.7,0,3-1.3,3-3V5c0-1.7-1.3-3-3-3L243.6,2z"/>
<path id="af64f961-e9a2-4c53-a333-5060c7f850d2" class="st4" d="M447.8,104.3c-1.9,0-3.4,1.5-3.4,3.4c0,1.9,1.5,3.4,3.4,3.4H635
	c1.9,0,3.4-1.5,3.4-3.4c0-1.9-1.5-3.4-3.4-3.4H447.8z"/>
<path id="baad4cfb-158d-4439-9cc3-22475bf47b22" class="st4" d="M447.8,124.8c-1.9,0-3.4,1.5-3.4,3.4c0,1.9,1.5,3.4,3.4,3.4h95.5
	c1.9,0,3.4-1.5,3.4-3.4c0-1.9-1.5-3.4-3.4-3.4L447.8,124.8z"/>
<path id="f3456279-91e5-49ad-aa43-9838b26fb6ca" class="st4" d="M284.3,234.8c-1.9,0-3.4,1.5-3.4,3.4c0,1.9,1.5,3.4,3.4,3.4h350.9
	c1.9,0,3.4-1.5,3.4-3.4c0-1.9-1.5-3.4-3.4-3.4H284.3z"/>
<path id="a3288adf-49f8-485f-8ae9-1e4f1a13d849" class="st4" d="M284.3,255.3c-1.9,0-3.4,1.5-3.4,3.4c0,1.9,1.5,3.4,3.4,3.4h259.3
	c1.9,0,3.4-1.5,3.4-3.4c0-1.9-1.5-3.4-3.4-3.4L284.3,255.3z"/>
<path id="e63a5b48-5a7d-40a2-b9b0-6adec326348a" class="st4" d="M284.3,275.3c-1.9,0-3.4,1.5-3.4,3.4c0,1.9,1.5,3.4,3.4,3.4h350.9
	c1.9,0,3.4-1.5,3.4-3.4c0-1.9-1.5-3.4-3.4-3.4H284.3z"/>
<path id="a1c669b4-dfc3-4cfa-a7be-66b71399844d" class="st4" d="M284.3,295.8c-1.9,0-3.4,1.5-3.4,3.4c0,1.9,1.5,3.4,3.4,3.4h259.3
	c1.9,0,3.4-1.5,3.4-3.4c0-1.9-1.5-3.4-3.4-3.4H284.3z"/>
<path id="bfec50d1-ffb1-4de6-a9ef-a1085e40e016" class="st4" d="M284.3,316.3c-1.9,0-3.4,1.5-3.4,3.4c0,1.9,1.5,3.4,3.4,3.4h350.9
	c1.9,0,3.4-1.5,3.4-3.4c0-1.9-1.5-3.4-3.4-3.4H284.3z"/>
<path id="bc9696ec-ec99-41d5-9116-3ad9737a38ac" class="st4" d="M284.3,336.8c-1.9,0-3.4,1.5-3.4,3.4c0,1.9,1.5,3.4,3.4,3.4h259.3
	c1.9,0,3.4-1.5,3.4-3.4c0-1.9-1.5-3.4-3.4-3.4H284.3z"/>
<path class="st5" d="M339.8,166.9c-27.1,0-49-21.9-49-49s21.9-49,49-49s49,21.9,49,49c0,0,0,0,0,0
	C388.8,145,366.9,166.9,339.8,166.9z"/>
<path class="st6" d="M191.1,352.2c-0.3-6.8-6.1-12-12.8-11.7c-0.7,0-1.4,0.1-2.1,0.3L159.9,318l-16.3,6.5l23.3,31.9
	c1.9,6.5,8.8,10.2,15.3,8.3C187.8,363.1,191.4,357.9,191.1,352.2L191.1,352.2z"/>
<path class="st7" d="M159.5,350.5l-49-63.6l18.4-57.7c1.3-14.5,10.4-18.6,10.8-18.7l0.6-0.3l16,42.6l-11.7,31.3l28.8,48.4
	L159.5,350.5z"/>
<path class="st8" d="M329.7,154.5c-6.7,0.8-11.5,7-10.6,13.7c0.1,0.7,0.2,1.4,0.5,2.1l-21.5,17.9l7.7,15.7l30-25.7
	c6.3-2.4,9.5-9.6,7.1-15.9C340.8,157,335.4,153.8,329.7,154.5z"/>
<path class="st7" d="M330.5,186.1l-59.6,53.8l-59-13.8c-14.6-0.2-19.3-9-19.5-9.3l-0.3-0.6l41.2-19.2l32.1,9.3l46.1-32.5
	L330.5,186.1z"/>
<polygon class="st8" points="227.2,568.4 243.3,568.4 250.9,506.7 227.2,506.7 "/>
<path class="st9" d="M274.1,583.3l-50.3,0l0,0l0-19.4l0,0l36.2,0c7.8,0,14.1,6.3,14.1,14.1l0,0L274.1,583.3L274.1,583.3z"/>
<polygon class="st8" points="163.2,568.4 179.3,568.4 186.9,506.7 163.2,506.7 "/>
<path class="st9" d="M210.1,583.3l-50.3,0l0,0l0-19.4l0,0l36.2,0c7.8,0,14.1,6.3,14.1,14.1c0,0,0,0,0,0L210.1,583.3L210.1,583.3z"/>
<polygon class="st9" points="157.6,343 158.9,434.4 160.2,554.6 188.9,552 203.3,386.1 221.6,552 251.2,552 254.2,384.8 
	243.8,348.2 "/>
<path class="st7" d="M213.8,355.3c-31.3,0-60-14.1-60.4-14.3l-0.3-0.2l-2.6-63c-0.8-2.2-15.7-46.1-18.3-60.1
	c-2.6-14.1,34.7-26.5,39.2-28l1-11.4l41.8-4.5l5.3,14.6l15,5.6c3.5,1.3,5.5,5.1,4.6,8.7l-8.3,33.9l20.3,112l-4.4,0.2
	C236.1,353.5,224.8,355.3,213.8,355.3z"/>
<circle class="st8" cx="194.9" cy="136.6" r="30.1"/>
<path class="st9" d="M170.5,165.7c5.7,6.1,16.4,2.8,17.1-5.5c0.1-0.6,0.1-1.3,0-1.9c-0.4-3.7-2.5-7-2-10.9c0.1-1,0.5-1.9,1.1-2.7
	c4.6-6.1,15.3,2.7,19.6-2.8c2.6-3.4-0.5-8.7,1.6-12.5c2.7-5,10.6-2.5,15.6-5.3c5.5-3.1,5.2-11.5,1.6-16.7
	c-4.4-6.3-12.2-9.7-19.9-10.1s-15.3,1.6-22.5,4.4c-8.2,3.2-16.2,7.6-21.3,14.7c-6.1,8.7-6.7,20.4-3.6,30.6
	C159.5,153.1,165.9,160.7,170.5,165.7z"/>
<path class="st3" d="M382,584.1H1c-0.6,0-1-0.4-1-1s0.4-1,1-1h381c0.6,0,1,0.4,1,1S382.6,584.1,382,584.1z"/>
<path class="st2" d="M337,136.5c-0.9,0-1.7-0.3-2.4-0.9l-16.2-15c-1.4-1.3-1.5-3.5-0.2-4.9c1.3-1.4,3.5-1.5,4.9-0.2l13.7,12.7
	L364,101c1.4-1.4,3.6-1.4,4.9,0c1.4,1.4,1.4,3.6,0,4.9c0,0,0,0,0,0l-29.5,29.5C338.8,136.1,337.9,136.5,337,136.5z"/>
</svg>
