<?xml version="1.0" encoding="utf-8"?>
<!-- Generator: Adobe Illustrator 23.1.0, SVG Export Plug-In . SVG Version: 6.00 Build 0)  -->
<svg version="1.1" id="b68b2dea-431f-4b15-9350-961d32a371b9"
	 xmlns="http://www.w3.org/2000/svg" xmlns:xlink="http://www.w3.org/1999/xlink" x="0px" y="0px" viewBox="0 0 833 638"
	 style="enable-background:new 0 0 833 638;" xml:space="preserve">
<style type="text/css">
	.st0{fill:#2F2E41;}
	.st1{fill:#FFB9B9;}
	.st2{opacity:0.1;enable-background:new    ;}
	.st3{fill:#575A89;}
	.st4{fill:#3F3D56;}
	.st5{fill:#F2F2F2;}
	.st6{fill:none;stroke:#2F2E41;stroke-width:3;stroke-miterlimit:10;}
	.st7{fill:#FC3D23;}
	.st8{fill:none;stroke:#3F3D56;stroke-width:2;stroke-miterlimit:10;}
	.st9{fill:#FFFFFF;}
	.st10{fill:#57B894;}
</style>
<title>adventure</title>
<circle class="st0" cx="174" cy="76.1" r="31"/>
<path class="st0" d="M79.6,449.3l19-66l6.5,2c0,0-7.7,49.4-19.9,62L79.6,449.3z"/>
<path class="st1" d="M152.1,94.8c0,0,2.4,25.9-3.2,33.2c-5.7,7.3,3.6,21.5,3.6,21.5l17,20.3l25.1-11.3l3.6-21.1l-2.4-14.6
	c0,0-8.5-8.5-4.9-23.9S152.1,94.8,152.1,94.8z"/>
<path class="st2" d="M152.1,94.8c0,0,2.4,25.9-3.2,33.2c-5.7,7.3,3.6,21.5,3.6,21.5l17,20.3l25.1-11.3l3.6-21.1l-2.4-14.6
	c0,0-8.5-8.5-4.9-23.9S152.1,94.8,152.1,94.8z"/>
<polygon class="st1" points="166.7,579.8 166.7,596.4 189,600.8 187,573.3 "/>
<polygon class="st1" points="233.6,573.3 228.7,596.4 238.4,603.3 255.5,590.7 253.4,570.9 "/>
<path class="st0" d="M191,598.8c0,0-8.5-14.4-24.3-5.4c0,0-2.8,15.9-5.7,17.1s-18.6,24.3,0,26.3s28-4.1,28-4.1s-3.6,3.1,2,1.5
	s3.2-10.5,3.2-10.5L191,598.8z"/>
<path class="st0" d="M246.6,589.1c0,0-12.6,8.9-14.6,4.9s-5.3-3.6-5.3-3.6s-11.3,42.8-4.1,44.8c4.7,1.2,9.6,0.9,14.2-0.7
	c0,0,9.7-6.8,9.7-1.5s27.1,4.9,38.5,4.5s5.3-8.9,5.3-8.9l-15-14.6l-17-24.7C258.3,589.1,250.6,582.2,246.6,589.1z"/>
<path class="st0" d="M127,318l17,163.3c0,0,9.3,99.7,10.9,101.3s12.2,6.9,35.3,0L185,452.1l9.7-81L217,427c0,0,5.3,150.3,8.9,150.3
	s25.9,7.3,31.2-1.6s4.5-104.9,4.5-104.9s-2.4-151.5-20.3-156.4S127,318,127,318z"/>
<circle class="st1" cx="174" cy="81.8" r="28"/>
<path class="st3" d="M175.6,159.6c0,0-2.8-17.4-2.8-20.7s-12.6-5.3-12.6-5.3s-9.7-10.9-11.8-9.3s-32.8,22.3-37.7,25.1
	s-10.1,15-9.7,15.8s25.5,53.5,25.5,53.5s10.9,32.4,3.2,49.4s-17.4,50.6-3.2,57.5s83.1,21.9,95.6,8.9c12.6-13,21.5-16.6,24.7-16.6
	s-13.4-56.3-9.7-61.6c3.6-5.3-1.6-38.1-1.6-38.1l18.6-52.3c0,0-1.6-29.2-38.5-35.7l-22.1-10.7L175.6,159.6z"/>
<path class="st1" d="M99.9,325.3c0,0-2,19.4-2,25.1s-9.7,38.9,4.5,42.9s13-44.2,13-44.2v-24.7L99.9,325.3z"/>
<path class="st1" d="M268,307.1c0,0,2.4,18.6,1.2,22.7c-1.2,4.1,11.8,39.3-5.7,41.3s-13-42.1-13-42.1v-21.9H268z"/>
<path class="st0" d="M96.2,442.8l11.8-62.4h3.6c5.2,6.7,6.6,15.6,3.6,23.5c-4.9,13.8-8.9,38.9-8.9,38.9H96.2z"/>
<path class="st3" d="M107.2,160.4l-6.1,4.9c0,0-8.1,128.8-6.1,138.6s-7.3,23.5,0.8,24.7s17.8,6.5,22.3,3.2s5.3-15,6.9-17.8
	s4.5-36.5,4.5-36.5s8.5-33.6,3.2-58.8s-10.1-50.6-10.1-50.6L107.2,160.4z"/>
<path class="st3" d="M235.6,150.3l18.6,15.8l14.2,82.7c0,0,8.9,64.4,2,65.2s-17.4-1.2-21.9,0s-8.1-2-8.1-2s-4.9-25.9-4.9-26.3
	s-3.2-30-3.2-30l-4.1-33.2l6.1-36.5L235.6,150.3z"/>
<path class="st4" d="M147.7,532.8c0,0-2.6,7.6-6.3,17.9c-1.7,4.8-3.6,10.2-5.5,15.7c-1.3,3.5-2.5,7.1-3.8,10.7c-2,5.6-4,11-5.7,15.6
	c-2.3,6.1-4.1,10.9-5.1,13.1c-4.5,10.1-85.9-6.1-92.4-10.1s-8.1-17.8-8.9-37.3c0-0.1,0-0.2,0-0.3c-0.1-3.9,0.9-9.8,2.6-16.6
	c0.8-3.4,1.8-7.1,3-10.9c1.5-5.1,3.2-10.5,5-15.8c7.6-23,16.6-45.4,16.6-45.4s15.8-10.9,21.5-18.2s36.9-13,36.9-13
	c8.9,0.4,29.2,34.8,37.3,45.4S147.7,532.8,147.7,532.8z"/>
<circle class="st0" cx="102.3" cy="467.5" r="3.6"/>
<circle class="st0" cx="108" cy="471.6" r="2"/>
<path class="st5" d="M141.4,550.6c-1.7,4.8-3.6,10.2-5.5,15.7L25.6,530.4c1.5-5.1,3.2-10.5,5-15.8L141.4,550.6z"/>
<path class="st5" d="M132.1,577c-2,5.6-4,11-5.7,15.6L20,558c-0.1-3.9,0.9-9.8,2.6-16.6L132.1,577z"/>
<path class="st6" d="M102.3,468.4c0,0,8.1,35.7,3.2,67.3s12.2,61.2,12.2,61.2"/>
<path class="st6" d="M108,471.2c0,0-15.8,57.5-16.2,65.6s-6.9,66-15,72.1"/>
<path class="st0" d="M152.6,64.7c0,0-6.3-16.5,2.8-21.8l2.5,7.3c0,0,23.1-13.9,29.1-10.8l-5.7,7.6c0,0,26.9,0,28.8,10.4l-9.5,0.3
	c0,0,10.1,6.6,10.4,17.4l-20.3,1.3l9.8,5.7c0,0-36.7,5.1-45.6-9.5L152.6,64.7z"/>
<path class="st0" d="M147.1,65.4c0,0,7.3,14.6,17,10.9s0-17,0-17l-6.5-3.2L147.1,65.4z"/>
<path class="st5" d="M776,295.5L643.7,130.3c-6,5.5-13.4,9.2-21.4,10.8c-24.9,4.9-49.2-12.1-54.3-38c-3.6-17.4,2.8-35.4,16.6-46.7
	L539.5,0L282.6,219.6l236.5,295.5L776,295.5z"/>
<circle class="st5" cx="611.7" cy="95.9" r="37.3"/>
<rect x="383.2" y="259.9" transform="matrix(0.6538 -0.7567 0.7567 0.6538 -80.1541 395.3393)" class="st7" width="17.4" height="50.8"/>
<rect x="628.1" y="496.9" transform="matrix(0.6538 -0.7567 0.7567 0.6538 -172.5659 661.7175)" class="st7" width="17.4" height="45"/>
<path class="st4" d="M687,399.8v1c0,2.6-0.1,5.1-0.2,7.7c-4.8,94.3-85.1,166.9-179.5,162.1c-86.7-4.4-156.4-73.2-162-159.8
	c-0.2-3.6-0.3-7.3-0.3-10.9c-0.1-35.4,10.9-70,31.4-98.8c1.6-2.3,3.3-4.6,5.1-6.9c1.2-1.6,2.5-3.1,3.7-4.6
	c60-71.1,165.9-81.2,238.3-22.6c2.1,1.7,4.1,3.4,6.1,5.1c1.6,1.4,3.1,2.8,4.7,4.3c30.1,28.8,48.6,67.6,52.1,109.1
	C686.8,390.2,687,395,687,399.8z"/>
<path class="st7" d="M516,592.3c-106.1,0-192.5-86.4-192.5-192.5c-0.1-48.6,18.3-95.3,51.4-130.9l4.3,4
	c-32.1,34.5-49.9,79.9-49.8,127c0,102.9,83.8,186.7,186.7,186.7c50.5,0.2,99-20.3,134-56.7l4.2,4C618.1,571.4,568.1,592.5,516,592.3
	z"/>
<rect x="495.1" y="588.2" class="st7" width="48.9" height="48.9"/>
<path class="st7" d="M381.6,294.1c0.1,0,0.2,0.1,0.2,0.1c0.9,0.8-0.2,2.2-0.1,3.4c0.2,1.5,2.2,1.9,3.8,2c1.5,0.2,3.5,1.4,2.8,2.8
	c-3.9,1.3-7.8,0-11.8-1.5c-20.5,28.9-31.5,63.4-31.4,98.8c0,3.7,0.1,7.3,0.3,10.9c0.3,0.2,0.7,0.4,1.1,0.6c1.2,0.4,2.5,0.4,3.6,1
	c0.8,0.5,1.4,1.4,2.3,1.8c2.4,1.3,5.8-1.2,8.1,0.4c0.6,0.5,1.1,1.1,1.7,1.7c2.1,1.8,5.5,0.6,8,2c1.6,0.9,2.4,2.6,3.2,4.2
	c2.1,4,5.5,7.8,9.9,8.2c1.4-0.1,2.8,0,4.2,0.1c1.4,0.3,2.7,1.5,2.5,2.9c-0.4,2.4,0.8,5,0.5,7.4c-0.6,4.4-6.7,6.3-7.3,10.6
	c0,1-0.1,1.9-0.2,2.9c-0.3,1.1-1.1,2.1-1.4,3.2c-0.6,2.2,1,4.3,2.7,5.7c1.7,1.5,3.7,2.7,4.7,4.7c1,2.2,0.5,4.7,0.8,7
	c0.7,5.1,5.1,8.9,9.6,11.3c1.5,0.6,2.7,1.5,3.8,2.7c1.2,1.7,1,3.9,1.4,5.9c1,4.9,5.1,9,5.2,14c0.1,3.6-1.9,6.8-3.1,10.2
	c-1.2,3.5-1.6,7.3-1.1,11c6.6,5.6,13.7,10.7,21.1,15.3c0.4-0.6,0.7-1.3,0.9-2c0.3-1.6-0.4-3.2-1.8-4c1.3-0.5,2.4-1.2,3.3-2.1
	c1-1,1.2-2.5,0.6-3.7c2,0.3,4.5,0.4,5.8-1.2c1.1-1.3,1-3.1,0.6-4.7c-0.6-1.5-1-3.2-1.2-4.8c4.7,0.2,9.5,0.1,14.2-0.5
	c-0.7-2.3-2.2-4.2-4.3-5.4c2.1-0.4,4.1-2.9,4.8-5c0.6-2.1,0.6-4.3,0.1-6.4c-0.2-0.5-0.2-1.1-0.1-1.7c0.3-0.7,0.9-1.3,1.7-1.6
	c3.5-2,7.1-4.1,10.6-6.1c0.6-0.3,1.2-0.7,1.7-1.2c1.1-1.3,0.9-3.3,0.4-4.9s-1.5-3.1-1.7-4.8c-0.7-5.1,4.8-8.7,6.6-13.5
	c0.6-1.9,1-3.9,1-5.9c0.2-2.2,0.2-4.7-1.5-6c-1.6-1.3-4.1-1-5.7-2.3c-1.5-1.1-2-3.3-3.7-4.3c-1.5-0.8-3.4-0.3-5.1-0.7
	c-3-0.7-4.8-4.1-7.8-4.4c-1.7-0.2-3.6,0.7-5-0.3c-1.2-0.9-1.3-2.6-1.5-4.1c-0.8-4.7-4.6-8.5-9.3-9.3c-1.8-0.3-3.7-0.2-5.2-1.1
	c-1.5-1-2.2-2.8-3.4-4.2c-1.9-2.2-4.9-3-7.8-3.6c-3.8-0.9-7.7-1.8-11.5-2.7c-2-0.5-4.7-0.7-5.8,1c-0.3,0.7-0.6,1.4-0.7,2.2
	c-0.9,2.8-3.4,4.6-6.3,4.7c-1-1.6-2.5-2.9-4.4-3.4c-1.2-0.2-2.4-0.5-3.5-0.8c-2.5-1.2-3.5-4.2-2.3-6.6c0-0.1,0.1-0.2,0.1-0.2
	c1.4-2.4,0.9-5.5-1.1-7.4c-2-1.8-4.8-2.2-7.4-2c-0.7-1.5,0.5-3.2,1.7-4.3c1.2-1.1,2.7-2.2,3-3.8c0.4-2.6-2.8-4.5-5.3-3.7
	s-4.1,3.2-5.1,5.5c-0.5,1.4-1.2,2.7-2.1,3.9c-0.9,1.2-2.4,1.8-3.9,1.6c-2-0.5-2.8-3-3.3-5c-0.7-2.7-1.1-5.6-1.1-8.4
	c0-2.9,1.2-5.6,3.2-7.6c3.4-3.1,8.6-2.8,13.2-2.3c-1-1.4-0.9-3.2,0.3-4.4c1.2-1.1,2.9-1.5,4.6-1.1c1.4,0.3,2.6,1,3.5,2.1
	c1.3,1.6,1.7,3.7,2.7,5.5s3.2,3.3,5,2.4c1.6-0.8,1.8-3,1.4-4.7s-1.2-3.4-1.1-5.2c0.3-3.4,3.8-5.4,6.9-6.8s6.6-3.3,7.1-6.6
	c0-0.7,0.1-1.3,0.4-1.9c0.3-0.5,0.8-1,1.4-1.3c9-5.9,18.1-12,28.4-15.2c0.5-0.2,0.6,0,1.1-0.1c0.8-0.4,0.3-1.7-0.5-2.2
	c-0.7-0.5-1.7-0.9-1.9-1.7c-0.1-0.6,0.2-1.3,0.3-1.9c0.1-1.3-0.9-2.4-2.2-2.5c-0.3,0-0.6,0-0.9,0.1c-0.8-1.1,0.8-2.4,2.1-2.7
	c4-1.1,8-1.8,12.2-2c0.5-0.1,1,0,1.4,0.2c0.6,0.6,0.7,1.6,0.1,2.3c-0.6,0.6-1.2,1.2-1.8,1.7c-1.4,1.3-1.9,3.3-1.3,5.1
	c2.2,1.1,4.5,2.2,6.9,1.8c2.4-0.4,4.5-3.1,3.4-5.2c-1-2-4.2-2.4-4.7-4.6c-0.6-2.5,3-4.8,2.2-7.3c-0.3-1.1-1.4-1.7-2.3-2.5
	c-2-2-2.6-5-1.5-7.6c-2.8,0.5-5.6-0.4-7.6-2.4c-1.8-1.8-3.3-4.7-5.8-4.6c-2.4,0.1-4.4,2.8-6.6,2c-0.5-0.2-1.1-0.6-1.6-0.4
	c-0.3,0.2-0.6,0.6-0.6,1c-0.6,2.7,0.4,5.7-1.1,8.1c-1.6,2.5-5.3,2.9-7.2,5.2c-1,1.2-1.5,2.9-2.4,4.2s-3,2.1-4.2,1
	c1.2-2.4,0.5-5.3-1.6-7c-1.1-0.7-2.2-1.3-3.4-1.7c-1.4-0.6-2.6-1.3-3.9-2.1c-0.6-0.4-1.1-0.9-1.4-1.5c-0.3-0.8-0.2-1.6,0.1-2.4
	c1.2-3.4,4.2-5.9,7.8-6.4c1.5-0.2,3.3-0.1,4.4-1.3c0.5-0.6,0.8-1.6,1.6-1.8c0.5-0.1,1,0,1.5,0.2c1.9,0.7,3.8,1.3,5.7,2
	c0.6,0.3,1.3,0.4,2,0.3s1.2-0.7,1.2-1.5c-0.2-1-1.7-1.4-1.5-2.4c0.1-0.3,0.2-0.6,0.5-0.8c4.2-4.5,10.2-6.8,16.3-6.4
	c0.7,1.2-0.4,2.6-1.4,3.6s-1.7,2.8-0.6,3.6c0.5,0.2,1,0.4,1.5,0.3c1.4,0.2,2.8,0.6,4.1,1.2c2,0.9,3.9,1.8,5.9,2.8
	c-0.3-1.2-0.2-2.5,0.1-3.8c0.4-1.2,1.7-2,3-1.6c1.1,0.4,1.7,2,2.9,2.1c1.6,0.2,2.3-2.2,1.6-3.7c-0.7-1.5-2-2.7-2.1-4.4
	c-0.1-1.1,0.3-2.5-0.5-3.1c-0.3-0.2-0.7-0.3-1-0.4c-7.3-1.3-14.6-2.7-21.9-4c-1.3-0.2-3.2-0.1-3.2,1.3c0,0.7,0.6,1.5,0.3,2.2
	c-0.3,0.7-1.3,0.7-2.1,0.9c-1.1,0.5-1.8,1.7-1.6,3c0.2,1.2,0.7,2.4,1.4,3.4c-1.4-0.6-3.6-0.7-5-1.3c-0.2-1.7-0.6-3.3-1.3-4.8
	c-0.1-0.9-1-1.6-1.9-1.4c-0.1,0-0.2,0-0.3,0.1c-1.9,0.3-3.8,0.6-5.7,0.9c-0.5,0-0.9,0.2-1.3,0.5c-0.7,0.8,0,2,0,3.1
	c-0.1,1.2-1,2.2-2.2,2.5c-1.2,0.2-2.4,0.2-3.6,0c-2.6-0.4-5.3-0.8-7.9-1.2c2.3-0.7,4.4-2.1,6-4c1-1.2,1.6-3.5,0.1-4.1
	c-0.4-0.1-0.9-0.2-1.4-0.1c-3.6,0-6.4-3-9.8-4.2c-1.1-0.4-2.2-0.6-3.3-0.6L381.6,294.1z"/>
<path class="st7" d="M686.8,408.5c-0.8,1.1-2.2,1.8-3.6,1.7c-3.6-0.3-5.2-5.6-8.8-6.2c-0.3-0.1-0.7,0-1,0.1c-0.5,0.3-0.6,1-0.7,1.6
	c-0.2,3-0.3,6.1,0.9,8.9c1.7,4,6.1,7.4,5.2,11.7c-5-2.3-7.6-7.9-8.8-13.3s-1.4-11-3.5-16.1c-1.6,2.1-5,0.4-6.5-1.8
	c-1.4-2-2.3-4.4-3.6-6.5s-3.4-3.9-5.9-4c-2.6-0.1-4.9,1.7-6.8,3.3c-1.7,1.3-3.2,2.9-4.2,4.7c-1.4,2.8-1,6.1-1.1,9.2
	c-0.1,3.3-0.8,6.9-3.1,9.4s-6.5,3.3-9,1.1c-1.2-1.3-2.1-2.8-2.5-4.5c-2.7-8-5-16.1-6.8-24.4c-0.4,1.9-2.1,4.3-3.7,3.2
	c-0.4-0.3-0.6-0.7-0.8-1.1c-3-5-8.4-8-13.9-9.8s-11.3-2.6-16.8-4.6c-3.1-1.1-6-2.6-8.7-4.3c-1.4,2.1-1.6,4.8-0.4,7
	c1.3,2.2,3.8,3.3,6.3,2.6c1.2-0.4,2.2-1.2,3.4-1.7c1.2-0.4,2.8-0.2,3.3,1c0.5,1.1-0.3,2.4,0.1,3.6c0.6,1.8,3.2,1.9,4.2,3.5
	c0.6,1.3,0.2,2.8-0.9,3.7c-1.1,0.9-2.3,1.6-3.5,2.2c-3.9,2.2-6.7,5.9-10.1,8.8c-3.4,2.9-8.2,5-12.3,3.2c1-4.9-4.9-8.5-6-13.4
	c-0.4-1.6-0.2-3.3-0.7-4.9c-0.7-2.3-2.8-3.8-4.4-5.6c-4.1-4.3-6.2-10-6-15.9c0.1-2,0.5-4.1,0-6.1s-2.1-3.9-4.1-3.8
	c-4.6,0.2-10.4,0.6-12.9-3.4c-0.9-1.4-1.2-3.5,0-4.5c1-0.6,2.2-0.8,3.3-0.6c3.5,0.3,6.9,0.7,10.4,1c2.4,0.2,5.1,0.4,7.2-0.8
	s3-4.7,1.1-6.2c-1.4-1.1-3.9-1-4.4-2.8c-0.3-1.5,1.3-3.1,0.4-4.3c-0.6-0.9-2-0.6-2.9,0c-0.7,0.8-1.5,1.5-2.4,2.1
	c-1.7,0.9-3.6,0-5.4-0.5s-4.2-0.6-5,1.1c-1,1.8,0.8,4.3-0.1,6.2c-1.3,2.5-5.6,1.1-7.4,3.2c-2,2.4,1.4,6,0.7,9.1
	c-1.8,0.9-3.9,0.8-5.6-0.3c-1.7-1.1-2.6-3.1-2.3-5.1c0.2-1.4,0.9-2.8,0.4-4.1c-0.5-1-1.4-1.8-2.5-2.2c-3.4-1.9-6.7-3.7-10.1-5.6
	c-0.9,1.7,0.2,3.9,1.7,5.2c1.5,1.3,3.3,2.3,4.3,4c1.3,2.5,0.4,5.5-2,7c-0.3,0.2-0.7,0.3-1,0.2c-0.3-0.2-0.6-0.5-0.7-0.9
	c-1.8-4.6-4.5-9.1-8.7-11.5c-4.3-2.4-10.4-1.9-13.3,2.1c-0.7,1-1.1,2-1.7,3.1c-3.1,5.4-9.7,7.9-15.9,7.7c-0.6,0-1.2-0.1-1.7-0.4
	c-1-0.7-1-2.2-0.8-3.4c0.2-1.7,0.4-3.4,0.7-5.1c0-1,0.4-2,1.1-2.8c1.2-0.9,2.8-0.3,4.3-0.4c2.3-0.1,4.2-1.6,4.9-3.8
	c0.6-2.2-0.1-4.5-1.7-6c-0.7-0.6-1.6-1.4-1.2-2.3c0.3-0.5,0.8-0.8,1.3-0.9c2.6-0.8,5.4-1,8-1.9s5.1-2.7,5.7-5.4
	c0.2-0.8,0.3-1.8,1-2.2c0.4-0.1,0.8-0.2,1.2-0.2c2.9-0.4,5-3,4.9-5.9c1.2-0.9,3-0.2,4.2,0.7c1.2,0.9,2.2,2.1,3.7,2.5
	c2.7,0.7,5.3-1.7,8.1-1.7c1.2,0,2.4,0.4,3.5,0s1.8-1.5,2.7-2.3s2.4-1.3,3.2-0.4c-0.2-1.7-0.5-3.4-0.7-5c2.8,0.7,5.7,0.2,8.1-1.5
	c-2.9-1-5.9-2-8.8-3c-0.3-0.1-0.6-0.2-0.8-0.4c-0.6-0.7,0-1.8,0.5-2.5c1.2-1.9,1.5-5-0.6-5.9c-1.4-0.6-3,0.1-4.3,0.9
	c-2.1,1.2-4.3,2.4-6.4,3.6c-0.2,1.2,1.3,1.9,2.2,2.7c1.5,1.4,1.7,3.7,0.3,5.2c-0.7,0.8-1.7,1.2-2.7,1.2c0.9,1.1,1.2,2.6,0.8,3.9
	c-1.4,0.1-2.9,0.2-4.3,0.3c-0.5,0.1-1,0-1.4-0.3c-0.5-0.4-0.4-1.1-0.5-1.7c-0.4-1.5-1.6-2.6-3.2-2.8c-1.5-0.2-3,0-4.4,0.4
	c-0.6,0.2-1.3,0.2-1.9,0c-0.3-0.2-0.6-0.6-0.7-1c-0.5-1.6-0.1-3.4,1-4.7c1.1-1.2,2.3-2.4,3.7-3.4c3-2.6,5.2-6.1,6.4-9.9
	c2.4-1,4.8-2.3,7.2-3.3c1.9-0.9,3.9-1.6,6-2c1.9-0.3,3.9-0.4,5.9-0.3c2.7,0,5.4,0.1,8,0.2c2.4-0.1,4.8,0.2,7,1
	c2.2,0.9,4.1,2.9,4.3,5.2c0.1,0.5-0.1,1.1-0.5,1.5c-0.3,0.2-0.7,0.3-1,0.2c-2.2,0.1-3.2,0.6-5.4,0.7c1.4,1.5,3,3.1,5,3.3
	c3.6,0.5,6.2-3.3,7.9-6.5c0.1,1.7,1.6,3,3.3,2.9c0.9-0.2,1.7-0.5,2.5-1c7.2-3.9,15.2-6,23.3-6c-0.2-1.3,0.7-2.5,1.9-2.8
	c1.7-0.3,3.2,1.1,4,2.6s1.3,3.2,2.6,4.3c1.3,1.1,3.7,1.1,4.2-0.5c0.5-1.5-1.1-2.9-2.5-3.8c-1.3-0.9-2.8-2.6-1.8-3.9
	c6.8-1.5,13.7-3,20.8-3.3c1.2,0,2.4-0.2,3.5-0.6c1.1-0.5,1.8-1.7,1.6-2.9c-3.1,0.7-6.4-0.5-8.3-3.1c7.2-0.6,14.7-1.1,21.7,0.5
	l6.1,5.1c-1.2,1.2-2.7,2.3-1.8,3.5c0.6,0.6,1.3,0.8,2.1,0.7c1.5,0,2.9,0.1,4.4,0.1c30.1,28.8,48.6,67.6,52.1,109.1
	c-2.4-0.1-4.7,3-4.4,5.7c0.4,3.1,2.6,5.6,4.2,8.3c0.3,0.4,0.5,0.9,0.7,1.4L686.8,408.5z"/>
<line class="st8" x1="0" y1="637" x2="833" y2="637"/>
<circle class="st8" cx="366.4" cy="65.3" r="14.8"/>
<circle class="st8" cx="802.4" cy="346.3" r="14.8"/>
<circle class="st8" cx="701.6" cy="199.3" r="14.8"/>
<circle class="st4" cx="604.8" cy="323.9" r="16.6"/>
<circle class="st9" cx="658" cy="270.7" r="21.8"/>
<path class="st10" d="M680.1,248.1c-12.2-11.9-31.7-11.7-43.6,0.5c-11.9,12.2-28.9,73.8-28.9,73.8s61.2-18.5,73.1-30.7
	S692.3,260,680.1,248.1z M648,280.9c-5.7-5.5-5.8-14.6-0.3-20.2c5.5-5.7,14.6-5.8,20.2-0.3c5.7,5.5,5.8,14.6,0.3,20.2l0,0
	C662.7,286.3,653.7,286.4,648,280.9z"/>
</svg>
