<?xml version="1.0" encoding="utf-8"?>
<!-- Generator: Adobe Illustrator 23.1.0, SVG Export Plug-In . SVG Version: 6.00 Build 0)  -->
<svg version="1.1" id="Warstwa_1" xmlns="http://www.w3.org/2000/svg" xmlns:xlink="http://www.w3.org/1999/xlink" x="0px" y="0px"
	 viewBox="0 0 250 250" style="enable-background:new 0 0 250 250;" xml:space="preserve">
<style type="text/css">
	.st0{fill:#323639;}
</style>
<g>
	<path class="st0" d="M175.1,167.9c-1-0.3-1.9-0.1-2.8,0.4c-0.9,0.5-1.5,1.3-1.7,2.3l-5,18.5c-0.4,1.5-1.3,2.7-2.7,3.5
		c-1.4,0.8-3,1-4.5,0.6l-98.9-26.5c-3.1-0.9-5-4.1-4.2-7.3l12.5-46.5c0.3-1,0.1-1.9-0.4-2.8c-0.5-0.9-1.3-1.5-2.3-1.7
		c-2-0.5-4,0.7-4.5,2.6l-12.5,46.5c-1.8,7,2.4,14.3,9.4,16.3l98.9,26.5c1.1,0.3,2.2,0.4,3.4,0.4c6,0,11.3-4,12.8-9.8l5-18.5
		C178.2,170.5,177.1,168.4,175.1,167.9z"/>
	<path class="st0" d="M189,59H86.6c-7.3,0-13.3,6-13.3,13.3v76.8c0,7.3,6,13.3,13.3,13.3H189c7.3,0,13.3-6,13.3-13.3V72.3
		C202.3,65,196.3,59,189,59z M194.9,149.1c0,3.3-2.6,5.9-5.9,5.9H86.6c-1.9,0-3.6-0.9-4.7-2.4l28.4-28.4c1-1,2.8-1,3.8,0l11.5,11.5
		c0.8,0.8,1.8,1.2,2.8,1.1c1,0,2-0.5,2.7-1.3l27.1-32.6c0.5-0.7,1.5-1,2.1-1c0.8,0,1.5,0.3,2.1,0.9l32.6,38V149.1z M194.9,129.5
		l-27-31.4c-1.9-2.2-4.7-3.5-7.7-3.5c-3,0-5.8,1.4-7.7,3.6l-24.6,29.5l-8.6-8.6c-1.8-1.8-4.4-2.9-7.1-2.9c-2.7,0-5.3,1-7.1,2.9
		l-24.3,24.3v-71c0-3.3,2.6-5.9,5.9-5.9H189c3.3,0,5.9,2.6,5.9,5.9V129.5z"/>
	<path class="st0" d="M105.8,78.2c-7.3,0-13.3,6-13.3,13.3s6,13.3,13.3,13.3s13.3-6,13.3-13.3S113.1,78.2,105.8,78.2z M111.7,91.5
		c0,3.3-2.6,5.9-5.9,5.9s-5.9-2.6-5.9-5.9s2.6-5.9,5.9-5.9S111.7,88.3,111.7,91.5z"/>
</g>
</svg>
