<?xml version="1.0" encoding="UTF-8"?>
<svg version="1.1" xmlns="http://www.w3.org/2000/svg" width="9288" height="2061">
<path d="M0 0 C1.01271973 0.64678711 1.01271973 0.64678711 2.04589844 1.30664062 C19.36539988 12.44243859 36.38534567 24.75228291 51.5234375 38.734375 C52.85759614 39.95489867 54.19881295 41.16874945 55.57739258 42.33886719 C62.06182879 47.86083038 68.05391706 53.86782237 74.07202148 59.88671875 C75.92477468 61.73728967 77.78538706 63.57970076 79.64648438 65.421875 C86.56599977 72.30869859 92.96110553 79.31923001 99 87 C100.07193991 88.29442388 101.14831609 89.58519563 102.23046875 90.87109375 C113.5590201 104.4770149 123.58745421 118.91005623 132.9375 133.9375 C133.44474609 134.7524292 133.95199219 135.5673584 134.47460938 136.40698242 C137.36962146 141.13319399 140.07174992 145.93705202 142.68969727 150.82250977 C143.31199722 151.98250992 143.93429718 153.14251007 144.57545471 154.33766174 C145.28060463 155.65551918 145.28060463 155.65551918 146 157 C147.24135839 129.60688988 148.30382934 102.20921839 149.25390625 74.8046875 C149.30774077 73.25443768 149.3615776 71.70418795 149.41541672 70.15393829 C149.85700783 57.4290353 150.29461079 44.70399495 150.73010254 31.97888184 C151.0320227 23.15728989 151.33514881 14.33574325 151.6420874 5.51432431 C151.79800119 1.02962464 151.95145042 -3.45514974 152.10288823 -7.94000268 C152.21946919 -11.37169976 152.33964096 -14.8032697 152.45922852 -18.23486328 C152.49924484 -19.44209045 152.53926117 -20.64931763 152.58049011 -21.89312744 C152.64132278 -23.61026443 152.64132278 -23.61026443 152.7033844 -25.36209106 C152.73673669 -26.33622011 152.77008898 -27.31034916 152.80445194 -28.31399727 C153.09986557 -33.88242613 153.57232043 -39.44016553 154 -45 C185.02 -45 216.04 -45 248 -45 C248.02431474 0.24809619 248.02431474 0.24809619 248.0333252 17.80436707 C248.03416668 19.44366132 248.03416668 19.44366132 248.03502516 21.11607263 C248.07214403 93.53547934 248.10565819 165.954885 248.12702942 238.3742981 C248.12744777 239.78814651 248.12786613 241.20199493 248.12828448 242.61584335 C248.13705453 272.29977249 248.14520446 301.98370177 248.15263903 331.66763127 C248.15637492 346.58118877 248.16022982 361.49474623 248.16419732 376.40830367 C248.16479508 378.65780957 248.16538943 380.90731547 248.16598364 383.15682136 C248.17515216 417.75280434 248.18685692 452.34878415 248.20599365 486.94476318 C248.20640435 487.68732178 248.20681505 488.42988037 248.20723819 489.19494073 C248.21387443 501.16544701 248.22072559 513.13595315 248.22760532 525.10645929 C248.24744333 559.62965282 248.26566439 594.15284389 248.27341938 628.67604256 C248.27357999 629.38757993 248.27374059 630.09911731 248.27390606 630.83221643 C248.27740521 646.46078457 248.28008891 662.08935274 248.28200295 677.71792116 C248.2827877 684.00851244 248.28368957 690.29910371 248.28463173 696.58969498 C248.28473201 697.27812723 248.28483229 697.96655948 248.28493561 698.67585331 C248.28821254 720.7732689 248.30098324 742.87066622 248.31884663 764.96807445 C248.33733393 787.89345975 248.34501977 810.81883007 248.34050413 833.744224 C248.33823561 846.93282142 248.34418626 860.1213527 248.36239263 873.30993808 C248.37375964 882.15469041 248.37390989 890.99940015 248.36549544 899.84415559 C248.36102694 904.86146495 248.36090311 909.87865055 248.37464955 914.89594589 C248.42587863 934.80212283 248.0588168 954.58296779 246.61807728 974.44301033 C246.55657164 975.29177221 246.49506599 976.14053409 246.43169654 977.01501603 C240.70971434 1054.14388729 221.6947077 1127.7836795 187 1197 C186.57477051 1197.85303711 186.14954102 1198.70607422 185.71142578 1199.58496094 C176.44971117 1218.04519722 165.18311491 1235.34974295 153 1252 C152.51176758 1252.67369629 152.02353516 1253.34739258 151.52050781 1254.04150391 C144.17906196 1264.15353496 136.3473014 1273.70367146 128 1283 C127.51595703 1283.54188965 127.03191406 1284.0837793 126.53320312 1284.64208984 C120.30832305 1291.58637478 113.8288664 1298.26608658 107.25 1304.875 C106.55293945 1305.5767334 105.85587891 1306.2784668 105.13769531 1307.00146484 C100.58766929 1311.53746755 95.87665364 1315.81908916 91 1320 C90.03578125 1320.845625 89.0715625 1321.69125 88.078125 1322.5625 C68.57585401 1339.37108715 47.35102261 1354.22872603 25 1367 C23.82606689 1367.67216553 23.82606689 1367.67216553 22.62841797 1368.35791016 C-36.40701799 1401.91238472 -102.48590599 1420.50161667 -170 1426 C-171.09892578 1426.0942627 -172.19785156 1426.18852539 -173.33007812 1426.28564453 C-187.2387939 1427.32563545 -201.18469021 1427.24581473 -215.125 1427.25 C-215.79990227 1427.25044186 -216.47480453 1427.25088371 -217.17015839 1427.25133896 C-239.89539422 1427.2591242 -262.41587467 1426.67519945 -285 1424 C-285.72481567 1423.91514343 -286.44963135 1423.83028687 -287.19641113 1423.74285889 C-319.40915533 1419.93277789 -351.00597003 1413.62391219 -382 1404 C-382.98484375 1403.7004541 -383.9696875 1403.4009082 -384.984375 1403.09228516 C-447.05066872 1384.0844827 -525.51042772 1350.48957228 -572 1304 C-571.71814617 1298.67176331 -569.50391393 1294.35438842 -567.203125 1289.6484375 C-566.6252977 1288.44288712 -566.6252977 1288.44288712 -566.03579712 1287.21298218 C-565.20943697 1285.49094545 -564.37966992 1283.7705402 -563.54681396 1282.05163574 C-561.79771403 1278.44147768 -560.06518889 1274.82345235 -558.33163452 1271.20581055 C-557.45930542 1269.38589929 -556.58611555 1267.56640037 -555.71206665 1265.74731445 C-552.04250518 1258.10770871 -548.43677147 1250.44037421 -544.875 1242.75 C-544.36203369 1241.64285645 -543.84906738 1240.53571289 -543.32055664 1239.39501953 C-538.80855353 1229.62895113 -534.38075341 1219.82556578 -530 1210 C-526.70868685 1211.56706764 -524.45910167 1213.28768885 -521.8125 1215.8125 C-498.15716173 1237.45609396 -469.93925985 1254.54744413 -442 1270 C-441.16807129 1270.4626123 -440.33614258 1270.92522461 -439.47900391 1271.40185547 C-370.32145766 1309.59374094 -290.21046757 1327.20731685 -211.625 1327.25 C-210.50227692 1327.25067474 -209.37955383 1327.25134949 -208.22280884 1327.25204468 C-152.36025187 1327.19899287 -97.23777125 1317.84742535 -46 1295 C-45.1642041 1294.63293945 -44.3284082 1294.26587891 -43.46728516 1293.88769531 C-19.86347713 1283.46176596 2.22474938 1269.572655 22 1253 C23.00546875 1252.17886719 24.0109375 1251.35773438 25.046875 1250.51171875 C39.2503631 1238.76307727 52.84487956 1225.70447695 64 1211 C64.98542789 1209.75267912 65.97254668 1208.50669309 66.9609375 1207.26171875 C79.61006869 1191.19730309 90.49138903 1174.09007847 100 1156 C100.46760742 1155.11924805 100.93521484 1154.23849609 101.41699219 1153.33105469 C134.13201567 1091.32993899 147.83063468 1020.49645296 152 951 C152.04090382 950.35616647 152.08180763 949.71233294 152.12395096 949.0489893 C153.28522896 930.19276709 153.13117545 911.32386148 153.10139394 892.44138765 C153.09506097 887.73561533 153.09454886 883.02984209 153.09336853 878.32406616 C153.0902841 869.44955139 153.08211044 860.57504922 153.07201904 851.70053995 C153.06076719 841.58172342 153.0553248 831.46290623 153.05032361 821.34408498 C153.03992477 800.56271634 153.02238242 779.78135897 153 759 C152.62781373 759.69020988 152.25562746 760.38041977 151.87216282 761.0915451 C150.16879142 764.24859905 148.46344086 767.40457979 146.75805664 770.56054688 C146.1726133 771.64632019 145.58716995 772.73209351 144.9839859 773.85076904 C141.00601244 781.20794512 136.92424133 788.43888831 132.4375 795.5 C131.81528564 796.48718018 131.19307129 797.47436035 130.55200195 798.49145508 C125.52239245 806.37732257 120.13034605 813.90747758 114.35693359 821.26220703 C113.03783631 822.95154392 111.74373212 824.6569975 110.45703125 826.37109375 C104.30435519 834.54303479 97.7569056 842.32441247 91 850 C90.20851563 850.90492188 89.41703125 851.80984375 88.6015625 852.7421875 C82.62331803 859.41692648 76.33592024 865.79149163 70.02529907 872.14993286 C69.02569029 873.15758155 68.02756645 874.16670601 67.03109741 875.17745972 C61.1074036 881.17699724 55.02232531 886.81213583 48.41088867 892.05664062 C46.12665084 893.8979098 43.96316332 895.8181142 41.8125 897.8125 C22.00693 915.47505893 -1.72686815 930.37593271 -25 943 C-26.32862061 943.72195557 -26.32862061 943.72195557 -27.68408203 944.45849609 C-109.78870254 988.7736653 -201.68057853 1003.95398463 -365 977 C-403.08746432 965.22878907 -438.65978966 947.94497245 -471.8125 925.9375 C-472.37909332 925.56204041 -472.94568665 925.18658081 -473.52944946 924.79974365 C-481.56753372 919.45950755 -489.33947183 913.86599102 -497 908 C-497.66314209 907.49525146 -498.32628418 906.99050293 -499.00952148 906.47045898 C-520.1121379 890.32709401 -541.00697991 872.25721551 -558.2734375 852.00390625 C-560.21741046 849.74766614 -562.23323518 847.56636107 -564.25 845.375 C-569.30182357 839.76849986 -573.92821769 833.87601251 -578.52880859 827.89941406 C-579.99049506 826.01227156 -581.47165296 824.14196646 -582.95703125 822.2734375 C-596.62930206 804.92402252 -609.10926462 786.21802347 -620 767 C-620.37995117 766.33339355 -620.75990234 765.66678711 -621.15136719 764.97998047 C-624.15954112 759.68486948 -627.09291702 754.35115796 -630 749 C-630.44102051 748.19320801 -630.88204102 747.38641602 -631.33642578 746.55517578 C-674.46693783 667.33491635 -692.90641287 576.96516101 -672.25561523 286.63134766 C-662.5858573 254.2098903 -650.1011907 223.29139674 -635 193 C-634.58427734 192.16452637 -634.16855469 191.32905273 -633.74023438 190.46826172 C-617.32995234 157.76184446 -596.79217556 126.87459856 -573.43115234 98.73535156 C-572.16361837 97.19839635 -570.91800793 95.64341834 -569.67578125 94.0859375 C-559.81883796 81.73287363 -548.65989898 70.55929292 -537.53536987 59.36013794 C-536.40308295 58.21978832 -535.27227853 57.07796441 -534.14309692 55.93453979 C-527.82973754 49.5500261 -521.44104115 43.51921833 -514.40551758 37.91748047 C-512.38633843 36.30795717 -510.42856001 34.66448063 -508.49609375 32.953125 C-487.12692296 14.02986443 -462.53767939 -1.95815666 -437.53271484 -15.61621094 C-435.86747058 -16.52604364 -434.20618643 -17.44316908 -432.54931641 -18.36816406 C-382.22414824 -46.43082549 -324.30966777 -61.98038029 -267 -66 C-266.26620117 -66.05639648 -265.53240234 -66.11279297 -264.77636719 -66.17089844 C-172.84784176 -73.09730093 -77.73863246 -49.82420857 0 0 Z M-445 111 C-445.99902344 111.82628906 -446.99804688 112.65257812 -448.02734375 113.50390625 C-461.41319078 124.61440505 -474.64926822 136.42414626 -485.984375 149.6484375 C-487.5002416 151.41694854 -489.03471288 153.1695391 -490.578125 154.9140625 C-552.23650036 224.98279644 -585.31704165 316.74465273 -594.98657227 503.00024414 C-588.42655613 602.61920321 -554.36429238 700.54905448 -454 811 C-450.41513408 814.11407641 -446.74660929 817.08321001 -443 820 C-442.39639648 820.47614746 -441.79279297 820.95229492 -441.17089844 821.44287109 C-425.27748861 833.96506966 -408.6280339 845.07180516 -391 855 C-390.00613281 855.56581787 -390.00613281 855.56581787 -388.9921875 856.14306641 C-311.80472809 899.78803426 -211.40337233 907.90722391 -126.40625 885.30078125 C-120.55967079 883.66958519 -114.7722938 881.87565814 -109 880 C-108.12843262 879.72043457 -107.25686523 879.44086914 -106.35888672 879.15283203 C-93.49243711 874.98407316 -81.20778 869.80648469 -69 864 C-68.2992334 863.66887207 -67.5984668 863.33774414 -66.87646484 862.99658203 C-51.25622772 855.565742 -36.17648128 846.91389303 -22 837 C-20.91847656 836.25492188 -19.83695313 835.50984375 -18.72265625 834.7421875 C-6.67198637 826.35613882 4.79716016 817.1459009 15.59375 807.1953125 C17.61731032 805.34914221 19.67146289 803.55735617 21.74609375 801.76953125 C26.20235207 797.8792624 30.39228068 793.75536305 34.5625 789.5625 C35.27857422 788.85029297 35.99464844 788.13808594 36.73242188 787.40429688 C41.36102229 782.76727317 45.75619184 777.99063913 50 773 C50.54374268 772.36296143 51.08748535 771.72592285 51.64770508 771.06958008 C117.68266486 693.14970265 150.15866651 595.66784446 156.1875 464.3125 C156.18689575 463.43392334 156.1862915 462.55534668 156.18566895 461.65014648 C156.01705753 370.19696246 134.89654578 280.0628112 79 192 C78.4426416 191.19804199 78.4426416 191.19804199 77.87402344 190.37988281 C59.8615761 164.50263835 39.10183499 139.42957642 15 119 C14.06800781 118.19046875 13.13601563 117.3809375 12.17578125 116.546875 C-11.13368325 96.39764302 -37.0926373 79.2156585 -64.93359375 65.98583984 C-66.32841023 65.32040164 -67.71898537 64.64600975 -69.10546875 63.96337891 C-154.42543339 22.05013775 -263.44400416 21.58352372 -445 111 Z " fill="#20B8EA" transform="translate(2344,604)"/>
<path d="M0 0 C0.89847656 0.70640625 1.79695313 1.4128125 2.72265625 2.140625 C31.23873894 24.95349115 52.98595724 53.39092567 71 85 C71.43022461 85.75442383 71.86044922 86.50884766 72.30371094 87.28613281 C85.26207275 110.29961691 94.45792425 135.08188192 103 160 C103.57612145 161.64998468 104.152863 163.29975309 104.73046875 164.94921875 C108 174.41879829 108 174.41879829 108 179 C108.66 179 109.32 179 110 179 C110.15927979 178.45907715 110.31855957 177.9181543 110.48266602 177.36083984 C112.34830335 171.37254888 114.86494925 166.0808802 117.9375 160.625 C118.41912598 159.76213379 118.90075195 158.89926758 119.39697266 158.01025391 C130.57153417 138.2032625 143.27822491 119.35158431 158 102 C158.85885807 100.9681009 159.71689233 99.93551573 160.57421875 98.90234375 C169.65201785 88.0057106 179.24684147 77.67703959 189.25 67.625 C189.89928467 66.97104248 190.54856934 66.31708496 191.2175293 65.64331055 C195.64828101 61.22718363 200.25493516 57.07448541 205 53 C205.96421875 52.154375 206.9284375 51.30875 207.921875 50.4375 C290.94203629 -21.11578818 400.18555604 -56.5545507 509.3125 -49.25 C575.95984223 -44.15426505 636.34581241 -20.0403917 685 26 C686.0209375 26.95712891 686.0209375 26.95712891 687.0625 27.93359375 C691.31307485 32.0365792 695.0058815 36.5426287 698.69921875 41.1484375 C700.13321901 42.92572136 701.5905529 44.68473113 703.08203125 46.4140625 C755.51171183 107.69550733 775.54450149 193.701684 784 272 C784.13889648 273.27004883 784.27779297 274.54009766 784.42089844 275.84863281 C789.23638906 321.20488915 789.30126337 366.84737608 789.23522237 412.40624727 C789.22445949 420.1338804 789.22591278 427.86150187 789.22749493 435.58914065 C789.23009223 449.83802574 789.22355813 464.08689195 789.21146011 478.33577156 C789.19954644 492.40421709 789.19191235 506.47265473 789.18975449 520.54110527 C789.18961701 521.42222627 789.18947953 522.30334728 789.18933788 523.21116892 C789.18866103 527.68757859 789.18805833 532.16398827 789.18748413 536.64039796 C789.18330498 568.1867843 789.1698915 599.73316042 789.15087891 631.27954102 C789.13245239 661.88924099 789.11831358 692.49893815 789.10986328 723.10864258 C789.1094687 724.52878691 789.1094687 724.52878691 789.10906615 725.97762103 C789.10642867 735.48708879 789.10387711 744.99655658 789.10138843 754.50602438 C789.09631866 773.87066984 789.09067616 793.23531513 789.08468628 812.59996033 C789.0844117 813.48993505 789.08413712 814.37990978 789.08385422 815.29685343 C789.06551336 874.53124012 789.03336754 933.76562016 789 993 C757.65 993 726.3 993 694 993 C693.99191315 984.90053329 693.98382629 976.80106659 693.97549438 968.4561615 C693.92138083 914.91531315 693.86505894 861.37446814 693.79867554 807.83363342 C693.79754191 806.91876431 693.79640829 806.00389521 693.79524031 805.06130279 C693.77058351 785.17426296 693.74549038 765.2872237 693.71994839 745.40018499 C693.70742356 735.646266 693.69499505 725.8923469 693.68261719 716.13842773 C693.68138386 715.16784383 693.68015054 714.19725992 693.67887984 713.19726439 C693.63901658 681.79077232 693.60550217 650.38427741 693.57531309 618.97777468 C693.5442319 586.67831527 693.50667982 554.37886959 693.46109388 522.07942724 C693.45464436 517.50757258 693.44826811 512.93571782 693.44193649 508.36386299 C693.44006404 507.01427699 693.44006404 507.01427699 693.43815375 505.63742663 C693.41832286 491.20882205 693.40522591 476.780219 693.39470672 462.35160496 C693.38396148 447.81300278 693.36598031 433.27442334 693.34083296 418.73583882 C693.32614341 410.11960236 693.31678152 401.50340066 693.31543317 392.88715157 C693.31397712 387.10422865 693.30517931 381.32134455 693.29084408 375.53843935 C693.28291685 372.26090842 693.27890051 368.98346597 693.28172119 365.7059245 C693.29933084 341.19268926 692.09814583 316.72614344 689.1875 292.375 C689.06053238 291.30026932 689.06053238 291.30026932 688.93099976 290.2038269 C680.93791532 222.968636 661.78652494 155.05879486 614 105 C613.18789063 104.13503906 612.37578125 103.27007813 611.5390625 102.37890625 C584.87105715 74.71840232 547.19237165 58.31616535 510 51 C509.24154785 50.84837402 508.4830957 50.69674805 507.70166016 50.54052734 C443.46805728 38.09063825 372.64440678 48.76999348 314 77 C313.18901855 77.38236816 312.37803711 77.76473633 311.54248047 78.15869141 C285.78088502 90.32796875 262.35985669 106.17736386 241 125 C240.19046875 125.69867187 239.3809375 126.39734375 238.546875 127.1171875 C226.74860194 137.46997677 215.65588028 148.6224443 206 161 C205.12174582 162.05740055 204.24002885 163.11193144 203.35546875 164.1640625 C164.44275944 210.85533486 139.72133361 269.50487789 132.25 329.6875 C132.13430664 330.61111328 132.01861328 331.53472656 131.89941406 332.48632812 C129.75990811 351.38421356 129.84888846 370.45243847 129.84178162 389.44258118 C129.83720567 392.05933032 129.83220416 394.67607875 129.82681805 397.29282635 C129.815859 402.94515776 129.80842816 408.59748484 129.80341911 414.24982452 C129.7959545 422.65441713 129.78285862 431.05899464 129.76867336 439.46357826 C129.74495844 453.60696882 129.72571447 467.75036208 129.70907402 481.89376259 C129.69259794 495.8848743 129.67410068 509.87598097 129.65294075 523.86708641 C129.65096434 525.17501882 129.65096434 525.17501882 129.648948 526.5093741 C129.64224534 530.93811431 129.63550692 535.36685446 129.62875474 539.7955946 C129.58107084 571.11348069 129.53786326 602.4313715 129.49731445 633.74926758 C129.45792683 664.162357 129.41649525 694.57544253 129.37231445 724.98852539 C129.37095192 725.92701857 129.36958939 726.86551174 129.36818558 727.8324441 C129.35449947 737.25771409 129.340772 746.68298403 129.32701423 756.10825391 C129.29899238 775.30631505 129.27124648 794.50437658 129.2436676 813.70243835 C129.2417653 815.02630075 129.2417653 815.02630075 129.23982458 816.37690785 C129.15525782 875.25126561 129.07734402 934.12563238 129 993 C97.98 993 66.96 993 35 993 C34.99191315 984.98236359 34.98382629 976.96472717 34.97549438 968.70413208 C34.92137254 915.69499145 34.86504326 862.68585418 34.79867554 809.67672729 C34.7969751 808.31773253 34.7969751 808.31773253 34.79524031 806.93128332 C34.77058258 787.23634651 34.74548941 767.54141028 34.71994839 747.8464746 C34.70742374 738.18654957 34.69499519 728.52662443 34.68261719 718.86669922 C34.68138386 717.90547665 34.68015054 716.94425408 34.67887984 715.95390355 C34.63902809 684.85939171 34.60550925 653.76487702 34.57531309 622.67035444 C34.54422046 590.68742221 34.50666181 558.70450384 34.46109388 526.72158881 C34.45464452 522.19286019 34.44826823 517.66413147 34.44193649 513.13540268 C34.44068819 512.24417985 34.43943988 511.35295702 34.43815375 510.43472744 C34.41833534 496.15176934 34.40523083 481.86881277 34.39470672 467.58584513 C34.38395241 453.18833708 34.3659592 438.79085195 34.34083296 424.3933617 C34.32744068 416.60807024 34.31710405 408.82280599 34.31578636 401.03750229 C34.40111384 356.97831486 34.40111384 356.97831486 32 313 C31.87701581 311.54346587 31.87701581 311.54346587 31.7515471 310.0575068 C31.30962002 304.94404718 30.79274734 299.84662499 30.1875 294.75 C30.10285492 294.01894043 30.01820984 293.28788086 29.93099976 292.53466797 C24.90648023 249.33866107 15.88839794 206.43000576 -3 167 C-3.46889648 166.00081543 -3.46889648 166.00081543 -3.94726562 164.98144531 C-13.72245879 144.20663002 -26.17246335 125.64492118 -42 109 C-42.76352783 108.195625 -42.76352783 108.195625 -43.54248047 107.375 C-56.04125571 94.29598964 -69.42816601 84.16557763 -85 75 C-85.59474121 74.64695801 -86.18948242 74.29391602 -86.80224609 73.93017578 C-147.17750784 38.5517966 -226.89005736 40.02594725 -292.71582031 57.10644531 C-334.98294269 68.60642063 -375.11819003 89.20775858 -409 117 C-410.01578125 117.81339844 -411.0315625 118.62679687 -412.078125 119.46484375 C-420.10315819 126.02507611 -427.46969601 133.26005722 -434.8125 140.5625 C-435.30055115 141.04528412 -435.78860229 141.52806824 -436.29144287 142.02548218 C-442.99059787 148.66867226 -449.15278389 155.59315292 -455 163 C-455.60529541 163.75128174 -456.21059082 164.50256348 -456.83422852 165.27661133 C-465.27068316 175.75783176 -473.02964007 186.4899314 -480 198 C-480.47115234 198.77617676 -480.94230469 199.55235352 -481.42773438 200.35205078 C-515.13156763 256.40886023 -529.13441633 316.11566786 -529.15821838 381.02476501 C-529.16278972 383.66933521 -529.16774956 386.3139021 -529.17318195 388.9584704 C-529.1841803 394.69017728 -529.1915876 400.42187984 -529.19658089 406.15359497 C-529.20402219 414.67631361 -529.21711323 423.19901719 -529.23132664 431.72172689 C-529.25508289 446.06146361 -529.27430977 460.40120301 -529.29092598 474.74094963 C-529.30738526 488.93239651 -529.32587562 503.12383836 -529.34705925 517.31527901 C-529.34837686 518.19873716 -529.34969446 519.08219531 -529.351052 519.99242492 C-529.35775439 524.47933924 -529.36449287 528.9662535 -529.37124526 533.45316774 C-529.41896687 565.20697349 -529.46216375 596.96078393 -529.50268555 628.71459961 C-529.54205431 659.55672548 -529.58348139 690.39884746 -529.62768555 721.2409668 C-529.62904808 722.19220158 -529.63041061 723.14343636 -529.63181442 724.12349643 C-529.64550018 733.67647134 -529.65922769 743.22944619 -529.67298577 752.782421 C-529.70100985 772.24171151 -529.72875539 791.70100242 -529.7563324 811.16029358 C-529.7576006 812.05493616 -529.7588688 812.94957875 -529.76017542 813.87133171 C-529.84478467 873.58088155 -529.92267778 933.29044035 -530 993 C-561.02 993 -592.04 993 -624 993 C-624 656.07 -624 319.14 -624 -28 C-594.3 -28 -564.6 -28 -534 -28 C-532.08758933 -26.08758933 -532.70409656 -22.58261086 -532.61399841 -19.97032166 C-532.58455912 -19.2262607 -532.55511983 -18.48219975 -532.52478844 -17.71559149 C-532.42658389 -15.20369595 -532.33527898 -12.69159568 -532.24389648 -10.17944336 C-532.17519657 -8.38619937 -532.10607466 -6.5929715 -532.03656006 -4.79975891 C-531.84843976 0.08416745 -531.66625962 4.96829982 -531.48510242 9.85248876 C-531.29500236 14.95089725 -531.09949939 20.04909841 -530.90455627 25.14732361 C-530.53596175 34.80862336 -530.17226443 44.47010107 -529.81030279 54.13165134 C-529.39809777 65.12798141 -528.98046935 76.12410337 -528.56237304 87.12021077 C-527.7021908 109.74657995 -526.84885928 132.37320339 -526 155 C-525.66790527 154.35530258 -525.33581055 153.71060516 -524.99365234 153.04637146 C-523.45762903 150.06944386 -521.91634648 147.09526846 -520.375 144.12109375 C-519.85292969 143.10736694 -519.33085937 142.09364014 -518.79296875 141.04919434 C-510.64155323 125.34702701 -500.93508448 110.88538338 -490 97 C-489.4726123 96.32839844 -488.94522461 95.65679688 -488.40185547 94.96484375 C-477.84685496 81.58946589 -466.42421324 69.34961626 -454.4375 57.25 C-453.57511719 56.37448486 -452.71273437 55.49896973 -451.82421875 54.59692383 C-445.86317729 48.62854396 -439.59044246 43.25756585 -433 38 C-431.86100415 37.04723126 -430.72497968 36.09088298 -429.59375 35.12890625 C-367.72117504 -16.62701575 -286.63899997 -43.30040698 -207 -49 C-206.24332031 -49.05784668 -205.48664063 -49.11569336 -204.70703125 -49.17529297 C-135.72722067 -54.31825672 -55.7042018 -44.56336144 0 0 Z " fill="#020202" transform="translate(6094,587)"/>
<path d="M0 0 C31.35 0 62.7 0 95 0 C95 479.16 95 958.32 95 1452 C64.97 1452 34.94 1452 4 1452 C2.89390349 1421.67410735 1.86187233 1391.35203693 1.0286479 1361.01788807 C0.96480731 1358.6939861 0.90074265 1356.3700904 0.83662796 1354.04619598 C0.44413005 1339.8099078 0.0567136 1325.57348361 -0.32543945 1311.33691406 C-0.51730886 1304.19041622 -0.71243168 1297.04401463 -0.91112036 1289.89770305 C-1.03499623 1285.43532124 -1.15484358 1280.97285616 -1.27156651 1276.5102818 C-1.36106275 1273.13321606 -1.45649242 1269.75632295 -1.55102539 1266.37939453 C-1.58169098 1265.16127579 -1.61235657 1263.94315704 -1.64395142 1262.68812561 C-1.69216286 1261.02590721 -1.69216286 1261.02590721 -1.74134827 1259.33010864 C-1.78031518 1257.88563197 -1.78031518 1257.88563197 -1.82006931 1256.41197395 C-1.91173273 1253.85684039 -1.91173273 1253.85684039 -3 1251 C-3.30591064 1251.52207031 -3.61182129 1252.04414062 -3.92700195 1252.58203125 C-19.41142893 1278.92083685 -37.06057842 1304.08597173 -57.8046875 1326.59375 C-59.00946213 1327.91428589 -60.2065332 1329.24261741 -61.36523438 1330.60375977 C-66.62759841 1336.76707015 -72.30481418 1342.49093371 -78.03222656 1348.2175293 C-79.73794598 1349.92543056 -81.43549027 1351.64118045 -83.1328125 1353.35742188 C-89.05032086 1359.30463541 -95.04182098 1364.90121977 -101.63232422 1370.10595703 C-103.96320751 1371.97056753 -106.17424705 1373.92191936 -108.375 1375.9375 C-177.19515957 1437.58382669 -275.67284985 1471.23212876 -379.875 1472.3125 C-380.97973663 1472.31034485 -382.08447327 1472.3081897 -383.22268677 1472.30596924 C-471.04645433 1472.03295752 -555.54013417 1447.3745511 -628 1397 C-628.7420166 1396.48469727 -629.4840332 1395.96939453 -630.24853516 1395.43847656 C-644.40587912 1385.54568622 -657.91717785 1374.8626359 -670.62890625 1363.16015625 C-671.93653905 1361.96885322 -673.25212296 1360.78547804 -674.59936523 1359.63916016 C-680.76411374 1354.37533285 -686.4894913 1348.69662844 -692.2175293 1342.96777344 C-693.92543056 1341.26205402 -695.64118045 1339.56450973 -697.35742188 1337.8671875 C-703.31210588 1331.94219141 -708.91348372 1325.94254973 -714.12426758 1319.34326172 C-715.91994918 1317.10000362 -717.79733313 1314.98184625 -719.75 1312.875 C-781.24428872 1244.30398758 -818.20319141 1151.20002958 -843.11981201 900.98696899 C-840.77007399 859.19044484 -834.95690973 817.44380513 -824 777 C-823.66242676 775.75105957 -823.32485352 774.50211914 -822.97705078 773.21533203 C-802.77780226 699.09876698 -767.30779168 629.9602142 -718 571 C-717.33943604 570.20988525 -717.33943604 570.20988525 -716.66552734 569.40380859 C-702.6793817 552.73232299 -687.85120269 535.89472356 -671.18359375 521.84375 C-669.36039994 520.30430908 -667.56974727 518.73982518 -665.78515625 517.15625 C-656.52498734 508.97064419 -646.92334375 501.36361977 -637 494 C-636.27409668 493.45843262 -635.54819336 492.91686523 -634.80029297 492.35888672 C-618.69175484 480.37800581 -601.91652136 469.71855003 -584.23730469 460.20898438 C-582.02675343 459.01445689 -579.82957523 457.79778495 -577.6328125 456.578125 C-529.69799396 430.27755859 -475.20894626 416.00523497 -421 411 C-420.02224609 410.90428711 -419.04449219 410.80857422 -418.03710938 410.70996094 C-405.76035343 409.65863653 -393.43774761 409.75621154 -381.125 409.75 C-379.32204468 409.74898788 -379.32204468 409.74898788 -377.48266602 409.74795532 C-358.46396996 409.76488544 -339.85389817 410.36584701 -321 413 C-319.77667969 413.16628906 -318.55335938 413.33257813 -317.29296875 413.50390625 C-276.67438391 419.19810039 -237.31606004 431.04803681 -200 448 C-199.00822754 448.44843262 -198.01645508 448.89686523 -196.99462891 449.35888672 C-161.29341363 465.63039088 -128.60443018 487.30401987 -99 513 C-98.2884375 513.61101563 -97.576875 514.22203125 -96.84375 514.8515625 C-94.87948153 516.55017171 -92.93643468 518.26972566 -91 520 C-90.15695313 520.75023437 -89.31390625 521.50046875 -88.4453125 522.2734375 C-82.19380374 527.91504297 -76.1525962 533.74378407 -70.1875 539.6875 C-69.48246338 540.38794434 -68.77742676 541.08838867 -68.05102539 541.81005859 C-63.49725212 546.37725532 -59.19278684 551.1007882 -55 556 C-54.12244867 557.00916053 -53.24484877 558.01827883 -52.3671875 559.02734375 C-32.74844972 581.93637141 -15.64513237 606.63876173 -1 633 C-0.67 424.11 -0.34 215.22 0 0 Z M-421 512 C-422.04623535 512.13921875 -423.0924707 512.2784375 -424.17041016 512.421875 C-458.05835621 517.08193952 -491.22475787 527.09184365 -522 542 C-522.80663086 542.38091797 -523.61326172 542.76183594 -524.44433594 543.15429688 C-549.68223372 555.07412129 -572.77504211 570.5570189 -594.14599609 588.45458984 C-595.84127106 589.86769105 -597.55210331 591.25852757 -599.26953125 592.64453125 C-607.40504638 599.30636439 -614.86434973 606.65337871 -622.3125 614.0625 C-622.82474121 614.56947418 -623.33698242 615.07644836 -623.86474609 615.5987854 C-630.71619524 622.39569442 -636.98536332 629.43756467 -643 637 C-643.86337571 638.02756057 -644.73178251 639.05096064 -645.609375 640.06640625 C-662.63751834 659.92221573 -676.33570788 682.19261029 -689 705 C-689.40460449 705.72123047 -689.80920898 706.44246094 -690.22607422 707.18554688 C-736.79510463 790.51333008 -749.67762385 891.48382917 -724.67047119 1087.66052246 C-703.14364676 1162.77414835 -661.2877871 1241.06110004 -598.61328125 1289.9453125 C-596.1694411 1291.86677725 -593.82276907 1293.87399264 -591.48120117 1295.91796875 C-565.31158358 1318.63887704 -533.98623123 1336.03387123 -502 1349 C-501.21125488 1349.32307129 -500.42250977 1349.64614258 -499.60986328 1349.97900391 C-458.21868166 1366.73023757 -412.99722426 1373.21938256 -368.5625 1373.25 C-367.22647736 1373.25101212 -367.22647736 1373.25101212 -365.86346436 1373.25204468 C-288.55438713 1373.15994243 -214.00457564 1348.88531206 -153 1301 C-152.19175781 1300.37222656 -151.38351563 1299.74445312 -150.55078125 1299.09765625 C-140.51537844 1291.19538254 -130.72114256 1282.98352889 -121.81640625 1273.81640625 C-120 1272 -120 1272 -117.375 1269.9375 C-114.48636958 1267.58098571 -112.22709296 1264.8934021 -109.8125 1262.0625 C-108.15318251 1260.17431113 -106.43458814 1258.43006635 -104.625 1256.6875 C-100.49307953 1252.61054964 -96.90433855 1248.13469605 -93.28613281 1243.60253906 C-91.92832991 1241.91069809 -90.55510594 1240.23223176 -89.1796875 1238.5546875 C-73.1253853 1218.87949253 -59.26467294 1197.68325749 -47.25195312 1175.31884766 C-45.98216799 1172.96697184 -44.68719906 1170.63016354 -43.390625 1168.29296875 C-5.0762555 1098.30910585 8.3749377 1016.33371309 -11.85058594 789.87695312 C-17.76706326 769.6883055 -25.15170885 750.08468362 -34 731 C-34.42216797 730.06961914 -34.84433594 729.13923828 -35.27929688 728.18066406 C-49.83431478 696.1267938 -68.76317216 666.18611757 -91.25390625 639.12695312 C-92.49219777 637.61856447 -93.71176226 636.09471379 -94.91796875 634.56054688 C-100.82913253 627.11706112 -107.29895199 620.39357209 -114.03759766 613.70166016 C-115.87247269 611.87751253 -117.69639332 610.04290127 -119.51953125 608.20703125 C-126.37485132 601.34406926 -133.38153511 595.01543322 -141 589 C-142.8150803 587.44049815 -144.62816326 585.87866188 -146.4375 584.3125 C-160.24886193 572.8060096 -175.47979222 563.02384004 -191 554 C-191.76715332 553.55060059 -192.53430664 553.10120117 -193.32470703 552.63818359 C-232.82097353 529.66727886 -275.99023369 517.41623128 -321 511 C-321.93295898 510.86577637 -322.86591797 510.73155273 -323.82714844 510.59326172 C-355.50494292 506.31621807 -389.39588337 507.67997934 -421 512 Z " fill="#020202" transform="translate(9053,128)"/>
<path d="M0 0 C31.35 0 62.7 0 95 0 C95 479.16 95 958.32 95 1452 C64.97 1452 34.94 1452 4 1452 C2.89390349 1421.67410735 1.86187233 1391.35203693 1.0286479 1361.01788807 C0.96480731 1358.6939861 0.90074265 1356.3700904 0.83662796 1354.04619598 C0.44413005 1339.8099078 0.0567136 1325.57348361 -0.32543945 1311.33691406 C-0.51730886 1304.19041622 -0.71243168 1297.04401463 -0.91112036 1289.89770305 C-1.03499623 1285.43532124 -1.15484358 1280.97285616 -1.27156651 1276.5102818 C-1.36106275 1273.13321606 -1.45649242 1269.75632295 -1.55102539 1266.37939453 C-1.58169098 1265.16127579 -1.61235657 1263.94315704 -1.64395142 1262.68812561 C-1.69216286 1261.02590721 -1.69216286 1261.02590721 -1.74134827 1259.33010864 C-1.78031518 1257.88563197 -1.78031518 1257.88563197 -1.82006931 1256.41197395 C-1.91173273 1253.85684039 -1.91173273 1253.85684039 -3 1251 C-3.30591064 1251.52207031 -3.61182129 1252.04414062 -3.92700195 1252.58203125 C-19.41142893 1278.92083685 -37.06057842 1304.08597173 -57.8046875 1326.59375 C-59.00946213 1327.91428589 -60.2065332 1329.24261741 -61.36523438 1330.60375977 C-66.62759841 1336.76707015 -72.30481418 1342.49093371 -78.03222656 1348.2175293 C-79.73794598 1349.92543056 -81.43549027 1351.64118045 -83.1328125 1353.35742188 C-89.05032086 1359.30463541 -95.04182098 1364.90121977 -101.63232422 1370.10595703 C-103.96320751 1371.97056753 -106.17424705 1373.92191936 -108.375 1375.9375 C-177.19515957 1437.58382669 -275.67284985 1471.23212876 -379.875 1472.3125 C-380.97973663 1472.31034485 -382.08447327 1472.3081897 -383.22268677 1472.30596924 C-471.04645433 1472.03295752 -555.54013417 1447.3745511 -628 1397 C-628.7420166 1396.48469727 -629.4840332 1395.96939453 -630.24853516 1395.43847656 C-644.40587912 1385.54568622 -657.91717785 1374.8626359 -670.62890625 1363.16015625 C-671.93653905 1361.96885322 -673.25212296 1360.78547804 -674.59936523 1359.63916016 C-680.76411374 1354.37533285 -686.4894913 1348.69662844 -692.2175293 1342.96777344 C-693.92543056 1341.26205402 -695.64118045 1339.56450973 -697.35742188 1337.8671875 C-703.31210588 1331.94219141 -708.91348372 1325.94254973 -714.12426758 1319.34326172 C-715.91994918 1317.10000362 -717.79733313 1314.98184625 -719.75 1312.875 C-781.24428872 1244.30398758 -818.20319141 1151.20002958 -843.11981201 900.98696899 C-840.77007399 859.19044484 -834.95690973 817.44380513 -824 777 C-823.66242676 775.75105957 -823.32485352 774.50211914 -822.97705078 773.21533203 C-802.77780226 699.09876698 -767.30779168 629.9602142 -718 571 C-717.33943604 570.20988525 -717.33943604 570.20988525 -716.66552734 569.40380859 C-702.6793817 552.73232299 -687.85120269 535.89472356 -671.18359375 521.84375 C-669.36039994 520.30430908 -667.56974727 518.73982518 -665.78515625 517.15625 C-656.52498734 508.97064419 -646.92334375 501.36361977 -637 494 C-636.27409668 493.45843262 -635.54819336 492.91686523 -634.80029297 492.35888672 C-618.69175484 480.37800581 -601.91652136 469.71855003 -584.23730469 460.20898438 C-582.02675343 459.01445689 -579.82957523 457.79778495 -577.6328125 456.578125 C-529.69799396 430.27755859 -475.20894626 416.00523497 -421 411 C-420.02224609 410.90428711 -419.04449219 410.80857422 -418.03710938 410.70996094 C-405.76035343 409.65863653 -393.43774761 409.75621154 -381.125 409.75 C-379.32204468 409.74898788 -379.32204468 409.74898788 -377.48266602 409.74795532 C-358.46396996 409.76488544 -339.85389817 410.36584701 -321 413 C-319.77667969 413.16628906 -318.55335938 413.33257813 -317.29296875 413.50390625 C-276.67438391 419.19810039 -237.31606004 431.04803681 -200 448 C-199.00822754 448.44843262 -198.01645508 448.89686523 -196.99462891 449.35888672 C-161.29341363 465.63039088 -128.60443018 487.30401987 -99 513 C-98.2884375 513.61101563 -97.576875 514.22203125 -96.84375 514.8515625 C-94.87948153 516.55017171 -92.93643468 518.26972566 -91 520 C-90.15695312 520.75023437 -89.31390625 521.50046875 -88.4453125 522.2734375 C-82.19380374 527.91504297 -76.1525962 533.74378407 -70.1875 539.6875 C-69.48246338 540.38794434 -68.77742676 541.08838867 -68.05102539 541.81005859 C-63.49725212 546.37725532 -59.19278684 551.1007882 -55 556 C-54.12244867 557.00916053 -53.24484877 558.01827883 -52.3671875 559.02734375 C-32.74844972 581.93637141 -15.64513237 606.63876173 -1 633 C-0.67 424.11 -0.34 215.22 0 0 Z M-421 512 C-422.04623535 512.13921875 -423.0924707 512.2784375 -424.17041016 512.421875 C-458.05835621 517.08193952 -491.22475787 527.09184365 -522 542 C-522.80663086 542.38091797 -523.61326172 542.76183594 -524.44433594 543.15429688 C-549.68223372 555.07412129 -572.77504211 570.5570189 -594.14599609 588.45458984 C-595.84127106 589.86769105 -597.55210331 591.25852757 -599.26953125 592.64453125 C-607.40504638 599.30636439 -614.86434973 606.65337871 -622.3125 614.0625 C-622.82474121 614.56947418 -623.33698242 615.07644836 -623.86474609 615.5987854 C-630.71619524 622.39569442 -636.98536332 629.43756467 -643 637 C-643.86337571 638.02756057 -644.73178251 639.05096064 -645.609375 640.06640625 C-662.63751834 659.92221573 -676.33570788 682.19261029 -689 705 C-689.40460449 705.72123047 -689.80920898 706.44246094 -690.22607422 707.18554688 C-736.79510463 790.51333008 -749.67762385 891.48382917 -724.67047119 1087.66052246 C-703.14364676 1162.77414835 -661.2877871 1241.06110004 -598.61328125 1289.9453125 C-596.1694411 1291.86677725 -593.82276907 1293.87399264 -591.48120117 1295.91796875 C-565.31158358 1318.63887704 -533.98623123 1336.03387123 -502 1349 C-501.21125488 1349.32307129 -500.42250977 1349.64614258 -499.60986328 1349.97900391 C-458.21868166 1366.73023757 -412.99722426 1373.21938256 -368.5625 1373.25 C-367.22647736 1373.25101212 -367.22647736 1373.25101212 -365.86346436 1373.25204468 C-288.55438713 1373.15994243 -214.00457564 1348.88531206 -153 1301 C-152.19175781 1300.37222656 -151.38351562 1299.74445312 -150.55078125 1299.09765625 C-140.51537844 1291.19538254 -130.72114256 1282.98352889 -121.81640625 1273.81640625 C-120 1272 -120 1272 -117.375 1269.9375 C-114.48636958 1267.58098571 -112.22709296 1264.8934021 -109.8125 1262.0625 C-108.15318251 1260.17431113 -106.43458814 1258.43006635 -104.625 1256.6875 C-100.49307953 1252.61054964 -96.90433855 1248.13469605 -93.28613281 1243.60253906 C-91.92832991 1241.91069809 -90.55510594 1240.23223176 -89.1796875 1238.5546875 C-73.1253853 1218.87949253 -59.26467294 1197.68325749 -47.25195312 1175.31884766 C-45.98216799 1172.96697184 -44.68719906 1170.63016354 -43.390625 1168.29296875 C-5.0762555 1098.30910585 8.3749377 1016.33371309 -11.85058594 789.87695312 C-17.76706326 769.6883055 -25.15170885 750.08468362 -34 731 C-34.42216797 730.06961914 -34.84433594 729.13923828 -35.27929688 728.18066406 C-49.83431478 696.1267938 -68.76317216 666.18611757 -91.25390625 639.12695312 C-92.49219777 637.61856447 -93.71176226 636.09471379 -94.91796875 634.56054688 C-100.82913253 627.11706112 -107.29895199 620.39357209 -114.03759766 613.70166016 C-115.87247269 611.87751253 -117.69639332 610.04290127 -119.51953125 608.20703125 C-126.37485132 601.34406926 -133.38153511 595.01543322 -141 589 C-142.8150803 587.44049815 -144.62816326 585.87866188 -146.4375 584.3125 C-160.24886193 572.8060096 -175.47979222 563.02384004 -191 554 C-191.76715332 553.55060059 -192.53430664 553.10120117 -193.32470703 552.63818359 C-232.82097353 529.66727886 -275.99023369 517.41623128 -321 511 C-321.93295898 510.86577637 -322.86591797 510.73155273 -323.82714844 510.59326172 C-355.50494292 506.31621807 -389.39588337 507.67997934 -421 512 Z " fill="#21B8EA" transform="translate(903,128)"/>
<path d="M0 0 C0.76006348 0.5451123 1.52012695 1.09022461 2.30322266 1.65185547 C11.52615125 8.28193347 20.53313305 15.0568173 29.109375 22.5078125 C31.77418199 24.80530826 34.49413717 27.00096212 37.25 29.1875 C51.86104117 41.09358165 66.14369549 54.68349885 78.34375 69.06640625 C80.25985577 71.30336935 82.25512856 73.45803578 84.25 75.625 C89.28449066 81.21133197 93.87965472 87.09167568 98.47265625 93.04003906 C100.04684179 95.06010964 101.64554157 97.05859708 103.25 99.0546875 C137.09893416 141.4145167 163.74870508 191.03479296 182 242 C182.66080566 243.83280518 182.66080566 243.83280518 183.33496094 245.70263672 C211.38744726 324.00970423 220.63478292 409.03805157 164.48046875 710.5859375 C161.08082112 717.77063662 157.56161853 724.89423255 154 732 C153.54915039 732.90427734 153.09830078 733.80855469 152.63378906 734.74023438 C143.71715016 752.51782669 133.35504775 769.67304798 122 786 C121.56510254 786.63035156 121.13020508 787.26070312 120.68212891 787.91015625 C113.78928659 797.88694526 106.61240214 807.562145 99 817 C98.22914062 817.96550781 97.45828125 818.93101562 96.6640625 819.92578125 C92.14625278 825.5294505 87.43891156 830.91208732 82.5546875 836.19921875 C80.6371298 838.30149532 78.77901984 840.42550512 76.9296875 842.5859375 C72.44524405 847.72423627 67.64266307 852.54339004 62.82226562 857.36303711 C61.26139673 858.92608734 59.70872112 860.49697365 58.15625 862.06835938 C52.49845977 867.75706006 46.73463216 873.05483208 40.43334961 878.03417969 C37.95906497 880.03307002 35.63350412 882.13858534 33.3125 884.3125 C26.61141157 890.4005551 19.31629431 895.68378339 12 901 C11.31486328 901.49935059 10.62972656 901.99870117 9.92382812 902.51318359 C-6.00180072 914.07320131 -22.53144271 924.5075377 -39.85742188 933.83837891 C-41.88980895 934.94025877 -43.90677865 936.06610832 -45.921875 937.19921875 C-103.4012533 969.12822055 -171.81403359 983.53979541 -237 985 C-238.29671631 985.03287109 -238.29671631 985.03287109 -239.61962891 985.06640625 C-304.3451877 986.49759605 -369.51234369 974.09275905 -428 946 C-429.40064697 945.33145996 -429.40064697 945.33145996 -430.82958984 944.64941406 C-463.48478359 928.97018609 -494.36715474 909.48992959 -522 886 C-522.56058105 885.52820312 -523.12116211 885.05640625 -523.69873047 884.5703125 C-536.10489304 874.12859703 -536.10489304 874.12859703 -541.31225586 868.68505859 C-543.04335251 866.95671647 -544.85008726 865.38340634 -546.71484375 863.80078125 C-550.97074804 860.09802776 -554.84806671 856.12836107 -558.6875 852 C-559.37884033 851.25943359 -560.07018066 850.51886719 -560.7824707 849.75585938 C-572.27029598 837.3845584 -582.97942395 824.59027058 -593 811 C-593.5038623 810.31711914 -594.00772461 809.63423828 -594.52685547 808.93066406 C-611.679585 785.52078848 -625.84654692 760.33248168 -638 734 C-638.33 952.79 -638.66 1171.58 -639 1397 C-670.02 1397 -701.04 1397 -733 1397 C-733 917.51 -733 438.02 -733 -56 C-703.3 -56 -673.6 -56 -643 -56 C-641.02947342 -54.02947342 -641.70556948 -50.2113652 -641.62072754 -47.51094055 C-641.59199381 -46.71706521 -641.56326009 -45.92318986 -641.53365564 -45.10525769 C-641.43777374 -42.42358374 -641.34881251 -39.74172345 -641.25976562 -37.05981445 C-641.19269269 -35.1446336 -641.12519308 -33.22946764 -641.05729675 -31.3143158 C-640.87327653 -26.0900655 -640.69518447 -20.86562735 -640.51803398 -15.64114022 C-640.33122529 -10.16332002 -640.13879646 -4.68569748 -639.94689941 0.79194641 C-639.58312535 11.19912038 -639.22406764 21.60645126 -638.86684465 32.01385194 C-638.34522193 47.20605512 -637.81749866 62.39804657 -637.28868866 77.59000111 C-637.24967705 78.7107831 -637.21066545 79.8315651 -637.17047167 80.98631018 C-637.09254577 83.22494009 -637.01460495 85.46356947 -636.93664885 87.70219833 C-636.71037483 94.20486389 -636.48574322 100.70758346 -636.26259613 107.21035707 C-636.12228612 111.29440785 -635.98103748 115.37842587 -635.8396244 119.46243858 C-635.77511352 121.33181309 -635.71100658 123.20120159 -635.64737511 125.07060623 C-635.19394758 138.38519613 -634.62969152 151.69258391 -634 165 C-633.45723923 163.90414581 -632.91447845 162.80829163 -632.35527039 161.67922974 C-630.25693436 157.44261127 -628.1330018 153.21926273 -626 149 C-625.47092041 147.95054199 -625.47092041 147.95054199 -624.93115234 146.87988281 C-608.76584646 115.00271581 -587.08196944 86.2927732 -563 60 C-562.52916992 59.48405273 -562.05833984 58.96810547 -561.57324219 58.43652344 C-553.76930082 49.88982753 -545.97062205 41.44663096 -537.17578125 33.8984375 C-534.69347802 31.73254995 -532.28944855 29.49123043 -529.875 27.25 C-523.5208994 21.47037973 -516.84200575 16.18809419 -510 11 C-508.90824463 10.17145508 -508.90824463 10.17145508 -507.79443359 9.32617188 C-491.55140255 -2.94436013 -474.70778278 -13.96523137 -457 -24 C-456.12520996 -24.49757813 -455.25041992 -24.99515625 -454.34912109 -25.5078125 C-357.1014851 -80.46871761 -240.37878598 -91.39979914 0 0 Z M-490 98 C-490.94617187 98.75539063 -491.89234375 99.51078125 -492.8671875 100.2890625 C-498.24190843 104.62159378 -503.44202743 109.11062423 -508.54296875 113.76171875 C-510.15978342 115.23458807 -511.787193 116.69592425 -513.42578125 118.14453125 C-522.8785876 126.51184787 -531.85729166 135.34482316 -540 145 C-540.77214844 145.88300781 -541.54429687 146.76601563 -542.33984375 147.67578125 C-598.88049644 212.68423442 -630.90976882 294.77624371 -642.1875 379.5 C-642.3424292 380.64766846 -642.4973584 381.79533691 -642.65698242 382.9777832 C-645.55093969 405.90731394 -646.37705822 428.84469799 -646.3125 451.9375 C-646.31087334 453.27904242 -646.30936917 454.62058499 -646.3079834 455.96212769 C-646.27400495 477.10488766 -645.56515579 498.00514438 -643 519 C-642.85546387 520.22154785 -642.71092773 521.4430957 -642.56201172 522.70166016 C-631.89732754 610.51110294 -597.61155425 694.30181402 -539 761 C-538.21109375 761.90105469 -537.4221875 762.80210937 -536.609375 763.73046875 C-530.45481354 770.59145 -523.98815295 777.1434442 -517.5 783.6875 C-516.63391113 784.56664062 -515.76782227 785.44578125 -514.87548828 786.3515625 C-508.89736834 792.33755876 -502.60649061 797.72345649 -496 803 C-494.97263364 803.86360681 -493.9492301 804.73200327 -492.93359375 805.609375 C-445.87603502 845.96546605 -387.65881937 870.37430419 -327 881 C-326.12585449 881.15452637 -325.25170898 881.30905273 -324.35107422 881.46826172 C-233.4754613 896.98361027 -133.95526269 877.5427686 -56 823 C-55.21641113 822.44699219 -54.43282227 821.89398437 -53.62548828 821.32421875 C-42.55382074 813.45300716 -32.06823775 805.11614506 -22 796 C-21.16178711 795.24638184 -21.16178711 795.24638184 -20.30664062 794.47753906 C-14.09880234 788.88466248 -8.05133241 783.14029043 -2.125 777.25 C-1.61372559 776.74339844 -1.10245117 776.23679687 -0.57568359 775.71484375 C24.2131414 750.82149241 44.3896766 720.84842511 60.92236328 689.99072266 C61.90144176 688.18206703 62.91564418 686.39253577 63.93359375 684.60546875 C94.53735592 629.95134878 109.32382438 565.91982251 115 504 C115.17982422 502.12441406 115.17982422 502.12441406 115.36328125 500.2109375 C116.82705018 482.6020158 117.40432609 464.66865756 117 447 C116.98211426 446.08009277 116.96422852 445.16018555 116.94580078 444.21240234 C115.17781699 361.27202383 96.94978656 278.80931913 9 144 C7.79923828 142.63101563 7.79923828 142.63101563 6.57421875 141.234375 C-5.66108652 127.60999152 -18.50663448 114.22435721 -33 103 C-34.87789119 101.39921883 -36.75271717 99.79483715 -38.625 98.1875 C-46.07762049 91.97538021 -53.98133889 86.45276128 -62 81 C-62.68191406 80.5344873 -63.36382813 80.06897461 -64.06640625 79.58935547 C-148.06682673 22.63820334 -256.41337939 8.07334546 -490 98 Z " fill="#020202" transform="translate(4049,615)"/>
<path d="M0 0 C0.88107422 0.39799805 1.76214844 0.79599609 2.66992188 1.20605469 C35.60390655 16.15490052 66.7664929 35.73733211 94.08984375 59.4921875 C96.86211536 61.88117861 99.69644842 64.16259704 102.5625 66.4375 C107.28299513 70.26902597 111.54339532 74.4229702 115.79003906 78.76049805 C118.37026036 81.391968 120.96392648 83.91123829 123.8125 86.25 C126.99583844 88.87837387 129.59013889 91.86588581 132.2578125 95.0078125 C133.89073643 96.87505735 135.58929139 98.59262396 137.375 100.3125 C141.08617402 103.96594465 144.30703395 107.95146046 147.56640625 112.0078125 C149.61496046 114.52658059 151.71143632 116.99043816 153.84033203 119.44116211 C169.60266272 137.68010402 183.24643145 157.97179736 195 179 C196.11360145 170.57136248 196.36627964 162.13036725 196.6484375 153.64257812 C196.70577523 151.99396741 196.76342116 150.34536739 196.8213501 148.69677734 C196.94499964 145.15949425 197.06651084 141.6221466 197.18634033 138.08473206 C197.37638868 132.47559369 197.57140977 126.86663474 197.76708984 121.25769043 C198.11172794 111.36102648 198.45220429 101.46422267 198.79174805 91.56738281 C199.30181371 76.7011594 199.81513543 61.83504899 200.33238411 46.96907377 C200.5256504 41.41003357 200.71676185 35.85092493 200.90608215 30.291749 C201.02504374 26.80993349 201.14570967 23.32817841 201.26677704 19.84643555 C201.32191235 18.25071162 201.3763577 16.65496365 201.43000031 15.05918884 C201.45505394 14.31484085 201.48010757 13.57049286 201.50592041 12.80358887 C201.52727177 12.1625824 201.54862312 11.52157593 201.57062149 10.86114502 C201.90885933 1.55345846 202.45249213 -7.69236623 203 -17 C233.03 -17 263.06 -17 294 -17 C294 319.93 294 656.86 294 1004 C262.65 1004 231.3 1004 199 1004 C198.67 936.35 198.34 868.7 198 799 C194.7 804.61 191.4 810.22 188 816 C185.78236148 819.49253643 183.56148111 822.94839541 181.25 826.375 C180.66565186 827.24511719 180.08130371 828.11523438 179.47924805 829.01171875 C170.78826226 841.85249636 161.6997951 854.35979105 151.52734375 866.0703125 C149.03670312 868.95745387 146.63817759 871.90286667 144.25 874.875 C141.22823531 878.5903726 138.09829616 882.02295258 134.65625 885.34765625 C132.96233581 887.03757536 131.4225168 888.80059906 129.875 890.625 C122.88469885 898.71986341 115.15646739 906.3613391 107 913.27734375 C104.56610869 915.37372279 102.22865575 917.5639738 99.875 919.75 C94.06859966 925.04312738 87.96093411 929.87532866 81.73339844 934.66064453 C80.09544306 935.92625343 78.47162877 937.20770666 76.8515625 938.49609375 C0.03092713 998.96573746 -99.82285519 1027.31417942 -239.10766602 1020.68359375 C-304.44934531 1012.35553176 -365.9085705 990.38389316 -420.8125 953.9375 C-421.37909332 953.56204041 -421.94568665 953.18658081 -422.52944946 952.79974365 C-430.56753372 947.45950755 -438.33947183 941.86599102 -446 936 C-446.66314209 935.49525146 -447.32628418 934.99050293 -448.00952148 934.47045898 C-469.1121379 918.32709401 -490.00697991 900.25721551 -507.2734375 880.00390625 C-509.21741046 877.74766614 -511.23323518 875.56636107 -513.25 873.375 C-518.30182357 867.76849986 -522.92821769 861.87601251 -527.52880859 855.89941406 C-528.99049506 854.01227156 -530.47165296 852.14196646 -531.95703125 850.2734375 C-545.62930206 832.92402252 -558.10926462 814.21802347 -569 795 C-569.37995117 794.33339355 -569.75990234 793.66678711 -570.15136719 792.97998047 C-573.15954112 787.68486948 -576.09291702 782.35115796 -579 777 C-579.44102051 776.19320801 -579.88204102 775.38641602 -580.33642578 774.55517578 C-623.46693783 695.33491635 -641.90641287 604.96516101 -621.25561523 314.63134766 C-611.5858573 282.2098903 -599.1011907 251.29139674 -584 221 C-583.58427734 220.16452637 -583.16855469 219.32905273 -582.74023438 218.46826172 C-566.32995234 185.76184446 -545.79217556 154.87459856 -522.43115234 126.73535156 C-521.16361837 125.19839635 -519.91800793 123.64341834 -518.67578125 122.0859375 C-508.81883796 109.73287363 -497.65989898 98.55929292 -486.53536987 87.36013794 C-485.40308295 86.21978832 -484.27227853 85.07796441 -483.14309692 83.93453979 C-476.82973754 77.5500261 -470.44104115 71.51921833 -463.40551758 65.91748047 C-461.38633843 64.30795717 -459.42856001 62.66448063 -457.49609375 60.953125 C-436.12692296 42.02986443 -411.53767939 26.04184334 -386.53271484 12.38378906 C-384.86747058 11.47395636 -383.20618643 10.55683092 -381.54931641 9.63183594 C-331.22029024 -18.43297681 -273.31238782 -33.97257784 -216 -38 C-215.27151855 -38.05639648 -214.54303711 -38.11279297 -213.79248047 -38.17089844 C-140.51553101 -43.74040798 -66.77933564 -30.44701053 0 0 Z M-394 139 C-394.99902344 139.82628906 -395.99804688 140.65257812 -397.02734375 141.50390625 C-410.41319078 152.61440505 -423.64926822 164.42414626 -434.984375 177.6484375 C-436.5002416 179.41694854 -438.03471288 181.1695391 -439.578125 182.9140625 C-501.23650036 252.98279644 -534.31704165 344.74465273 -543.98657227 531.00024414 C-537.42655613 630.61920321 -503.36429238 728.54905448 -403 839 C-399.41513408 842.11407641 -395.74660929 845.08321001 -392 848 C-391.39639648 848.47614746 -390.79279297 848.95229492 -390.17089844 849.44287109 C-374.27748861 861.96506966 -357.6280339 873.07180516 -340 883 C-339.00613281 883.56581787 -339.00613281 883.56581787 -337.9921875 884.14306641 C-260.80472809 927.78803426 -160.40337233 935.90722391 -75.40625 913.30078125 C-69.55967079 911.66958519 -63.7722938 909.87565814 -58 908 C-57.12843262 907.72043457 -56.25686523 907.44086914 -55.35888672 907.15283203 C-42.49243711 902.98407316 -30.20778 897.80648469 -18 892 C-17.2992334 891.66887207 -16.5984668 891.33774414 -15.87646484 890.99658203 C-0.25622772 883.565742 14.82351872 874.91389303 29 865 C30.08152344 864.25492188 31.16304687 863.50984375 32.27734375 862.7421875 C44.32801363 854.35613882 55.79716016 845.1459009 66.59375 835.1953125 C68.61731032 833.34914221 70.67146289 831.55735617 72.74609375 829.76953125 C77.20235207 825.8792624 81.39228068 821.75536305 85.5625 817.5625 C86.27857422 816.85029297 86.99464844 816.13808594 87.73242188 815.40429688 C92.36102229 810.76727317 96.75619184 805.99063913 101 801 C101.54374268 800.36296143 102.08748535 799.72592285 102.64770508 799.06958008 C168.68266486 721.14970265 201.15866651 623.66784446 207.1875 492.3125 C207.18689575 491.43392334 207.1862915 490.55534668 207.18566895 489.65014648 C207.01705753 398.19696246 185.89654578 308.0628112 130 220 C129.4426416 219.19804199 129.4426416 219.19804199 128.87402344 218.37988281 C110.8615761 192.50263835 90.10183499 167.42957642 66 147 C65.06800781 146.19046875 64.13601563 145.3809375 63.17578125 144.546875 C39.86631675 124.39764302 13.9073627 107.2156585 -13.93359375 93.98583984 C-15.32841023 93.32040164 -16.71898537 92.64600975 -18.10546875 91.96337891 C-103.42543339 50.05013775 -212.44400416 49.58352372 -394 139 Z " fill="#020202" transform="translate(7720,576)"/>
<path d="M0 0 C0.72417114 0.09474609 1.44834229 0.18949219 2.19445801 0.28710938 C46.58175563 6.15713825 89.47855135 17.79626771 130 37 C130.95052246 37.44843262 131.90104492 37.89686523 132.88037109 38.35888672 C171.87155455 56.90925788 206.59924501 82.4088838 237.08666992 112.90136719 C238.55955972 114.3720641 240.04030265 115.83453534 241.52148438 117.296875 C247.79068862 123.52963872 253.49500448 130.07854342 259 137 C259.86335829 138.02757521 260.73174922 139.05098942 261.609375 140.06640625 C280.06272969 161.58409539 294.91520259 185.93238736 308 211 C308.55977539 212.06976074 308.55977539 212.06976074 309.13085938 213.16113281 C311.50736164 217.73355884 313.77618456 222.3516599 316 227 C316.55953369 228.15677246 316.55953369 228.15677246 317.13037109 229.33691406 C342.86144961 282.86176697 356.57824732 342.03957105 362 401 C362.10296387 402.04446289 362.20592773 403.08892578 362.31201172 404.16503906 C364.09395453 422.89655163 364.20786004 441.6349542 364.25 460.4375 C364.25790054 462.16793045 364.25790054 462.16793045 364.26596069 463.93331909 C364.35425223 489.01278488 363.04563246 513.90482103 362 539 C99.32 539 -163.36 539 -434 539 C-433.67 539.66 -433.34 540.32 -433 541 C-432.8210316 543.33799682 -432.70038949 545.68052289 -432.60546875 548.0234375 C-432.53934997 549.51630696 -432.47250268 551.00914428 -432.4050293 552.50195312 C-432.35274673 553.69123413 -432.35274673 553.69123413 -432.29940796 554.90454102 C-429.23505286 622.55266586 -416.05952421 690.49902419 -387 752 C-386.49597656 753.06847168 -385.99195312 754.13694336 -385.47265625 755.23779297 C-372.29902049 782.90324935 -356.36172953 808.39620774 -336.72558594 831.90966797 C-335.46384912 833.43810468 -334.21944512 834.98089604 -332.98535156 836.53173828 C-327.4195556 843.48713044 -321.44784175 849.85506906 -315.125 856.125 C-314.20847656 857.04925781 -313.29195312 857.97351562 -312.34765625 858.92578125 C-306.20760375 865.04856216 -299.7867228 870.60972222 -293 876 C-291.76856847 877.01287769 -290.53908748 878.02813657 -289.3125 879.046875 C-233.73461923 924.62831903 -164.74045525 948.58358533 -93.875 956.25 C-93.10793732 956.33317474 -92.34087463 956.41634949 -91.55056763 956.50204468 C-73.53157121 958.42706118 -55.62086102 959.23864186 -37.5 959.25 C-36.03033279 959.25101212 -36.03033279 959.25101212 -34.53097534 959.25204468 C25.42709061 959.18703598 87.46406998 947.48469671 142 922 C142.88494141 921.58927246 143.76988281 921.17854492 144.68164062 920.75537109 C179.88673561 904.2371831 212.78222852 881.35400632 243 857 C243.64710937 856.47905762 244.29421875 855.95811523 244.9609375 855.42138672 C253.71168958 848.36588331 262.38871131 841.22500169 271 834 C275.63905547 838.22645621 278.86719785 843.0206126 282.26953125 848.26953125 C282.8637085 849.17545517 283.45788574 850.08137909 284.07006836 851.01475525 C285.9896483 853.94381964 287.90104499 856.87812853 289.8125 859.8125 C291.12327316 861.81521659 292.43471637 863.81749481 293.74682617 865.81933594 C295.69576628 868.7929737 297.64429076 871.76687299 299.5905304 874.74227905 C304.62482732 882.43829405 309.70055837 890.10539244 314.8125 897.75 C315.46259033 898.72300049 316.11268066 899.69600098 316.7824707 900.69848633 C318.18719283 902.7997453 319.5928597 904.90036001 321 907 C313.58656102 915.78384496 305.69456002 923.62067527 296.69921875 930.796875 C294.14142028 932.88457158 291.72791649 935.06296639 289.3125 937.3125 C282.61178303 943.40118297 275.30188684 948.66444292 268 954 C266.89180908 954.81355957 266.89180908 954.81355957 265.76123047 955.64355469 C223.58058999 986.57663055 178.13675436 1011.06319797 129 1029 C127.19136475 1029.66128906 127.19136475 1029.66128906 125.34619141 1030.3359375 C82.68070029 1045.71298822 38.16354387 1054.51481325 -7 1058 C-8.14637939 1058.0942627 -9.29275879 1058.18852539 -10.47387695 1058.28564453 C-23.53013454 1059.24426382 -36.60149711 1059.2435661 -49.6875 1059.25 C-51.54340256 1059.25101212 -51.54340256 1059.25101212 -53.4367981 1059.25204468 C-74.42374144 1059.23394417 -95.16148679 1058.53493392 -116 1056 C-117.04785675 1055.87271515 -117.04785675 1055.87271515 -118.11688232 1055.74285889 C-165.53576965 1049.8870471 -212.4892427 1037.43519333 -255.76806641 1017.04394531 C-257.90233802 1016.04567957 -260.0475241 1015.07721333 -262.19921875 1014.1171875 C-300.5161542 996.84822252 -335.72919446 971.90035455 -367 944 C-368.43279297 942.73542969 -368.43279297 942.73542969 -369.89453125 941.4453125 C-376.57680228 935.44528733 -382.95116111 929.14959202 -389.3125 922.8125 C-390.16094482 921.96872803 -391.00938965 921.12495605 -391.88354492 920.25561523 C-396.79541498 915.33117171 -401.4910619 910.2947222 -406 905 C-406.87727095 903.99059572 -407.75485126 902.98146019 -408.6328125 901.97265625 C-471.84199059 828.16256584 -510.18500448 736.50738454 -532 469 C-529.27949654 435.30861199 -524.05405847 401.83342264 -516 369 C-515.6280249 367.46931885 -515.6280249 367.46931885 -515.24853516 365.90771484 C-505.86660769 327.85577396 -491.82054612 291.34689056 -475 256 C-474.59458984 255.14390137 -474.18917969 254.28780273 -473.77148438 253.40576172 C-460.75960852 226.10957207 -444.88504645 199.61754025 -426.33007812 175.72705078 C-424.32280761 173.12069402 -422.38629555 170.46272374 -420.4375 167.8125 C-416.04810357 161.95467981 -411.34607152 156.41411655 -406.56884766 150.87207031 C-405.41949634 149.50057547 -404.29788281 148.10570645 -403.19287109 146.69824219 C-396.88558844 138.72474489 -389.8849237 131.57947727 -382.68066406 124.41992188 C-380.62851459 122.37849623 -378.58728579 120.32658861 -376.546875 118.2734375 C-369.33300632 111.05230487 -362.02816187 104.31399426 -354 98 C-352.89761198 97.06588078 -351.8013101 96.12446565 -350.71484375 95.171875 C-325.35591298 73.05860203 -295.91400127 56.11261041 -266 41 C-265.18805176 40.58862793 -264.37610352 40.17725586 -263.53955078 39.75341797 C-215.48784931 15.62123576 -161.42930257 2.54415885 -108 -2 C-106.45119141 -2.14139404 -106.45119141 -2.14139404 -104.87109375 -2.28564453 C-70.33736759 -5.04972714 -34.37482576 -4.5571844 0 0 Z M-228 130 C-229.30710938 130.6199585 -229.30710938 130.6199585 -230.640625 131.25244141 C-272.95405463 151.34376451 -313.32954414 181.6464918 -342 219 C-342.91949899 220.12281383 -343.84297436 221.2423783 -344.76953125 222.359375 C-352.55654811 231.79442436 -359.45447357 241.6694704 -366 252 C-366.48436523 252.76376953 -366.96873047 253.52753906 -367.46777344 254.31445312 C-402.05115657 309.34292248 -430 382.03708665 -430 448 C-199.33 448 31.34 448 269 448 C269 389.43191085 258.75628486 337.30976677 235 284 C234.41001221 282.6711377 234.41001221 282.6711377 233.80810547 281.31542969 C220.45691449 251.50569281 202.10156068 224.44369413 180.109375 200.328125 C178.24324433 198.26846967 176.42930212 196.17611105 174.625 194.0625 C167.6877813 186.11125629 160.04954831 178.81115627 152 172 C150.65615234 170.82244141 150.65615234 170.82244141 149.28515625 169.62109375 C114.92698196 139.69964417 75.16996288 118.32310347 31 107 C29.64261719 106.64881104 29.64261719 106.64881104 28.2578125 106.29052734 C13.01615977 102.41660727 -2.40740189 99.96886982 -18 98 C-18.91217285 97.87995605 -19.8243457 97.75991211 -20.76416016 97.63623047 C-89.85360705 88.92704038 -165.36466184 99.62036015 -228 130 Z " fill="#020202" transform="translate(4918,541)"/>
<path d="M0 0 C31.02 0 62.04 0 94 0 C94 336.93 94 673.86 94 1021 C62.98 1021 31.96 1021 0 1021 C0 684.07 0 347.14 0 0 Z " fill="#20B8EA" transform="translate(2908,559)"/>
<path d="M0 0 C31.02 0 62.04 0 94 0 C94 336.93 94 673.86 94 1021 C62.98 1021 31.96 1021 0 1021 C0 684.07 0 347.14 0 0 Z " fill="#20B8EA" transform="translate(1316,559)"/>
<path d="M0 0 C1.49536133 1.70214844 1.49536133 1.70214844 3.08203125 4.109375 C3.67701416 4.99898926 4.27199707 5.88860352 4.88500977 6.80517578 C5.52108154 7.77696777 6.15715332 8.74875977 6.8125 9.75 C8.17072483 11.78462244 9.53012478 13.81846085 10.890625 15.8515625 C11.57833984 16.88442383 12.26605469 17.91728516 12.97460938 18.98144531 C15.94318459 23.40568157 18.99567725 27.76853449 22.0625 32.125 C22.63669678 32.94282959 23.21089355 33.76065918 23.80249023 34.60327148 C24.95945757 36.2510046 26.11692546 37.89838637 27.27490234 39.54541016 C31.89466993 46.11873924 36.49911866 52.70281466 41.10253906 59.28759766 C42.44724646 61.20984408 43.79306136 63.13131597 45.13964844 65.05224609 C47.3456411 68.19972664 49.54810067 71.34965494 51.75 74.5 C52.44206543 75.48589111 53.13413086 76.47178223 53.84716797 77.48754883 C54.49057129 78.40947021 55.13397461 79.3313916 55.796875 80.28125 C56.65297363 81.50424805 56.65297363 81.50424805 57.52636719 82.75195312 C58.85868908 84.78442827 59.96914572 86.8023546 61 89 C49.76251538 97.41936153 38.23052692 105.36029545 26.60498047 113.23242188 C22.93444413 115.72302011 19.27802174 118.23380886 15.625 120.75 C14.66231201 121.41286011 14.66231201 121.41286011 13.68017578 122.08911133 C12.41090802 122.96312607 11.14170133 123.8372295 9.87255859 124.71142578 C8.0061945 125.99573734 6.13814195 127.27755351 4.26953125 128.55859375 C-3.55174902 133.92290628 -11.34480383 139.32625874 -19.125 144.75 C-27.62311161 150.6728414 -36.16156934 156.53249961 -44.72900391 162.35449219 C-51.34990413 166.85967791 -57.93229526 171.41767429 -64.5 176 C-72.87253337 181.84156512 -81.28664967 187.61753733 -89.73046875 193.35546875 C-96.35086089 197.86035755 -102.93277663 202.41801015 -109.5 207 C-117.87253337 212.84156512 -126.28664967 218.61753733 -134.73046875 224.35546875 C-141.35086089 228.86035755 -147.93277663 233.41801015 -154.5 238 C-162.86736207 243.83795707 -171.27570589 249.61122723 -179.71508789 255.34448242 C-186.48935748 259.95307256 -193.21956391 264.62225552 -199.9375 269.3125 C-208.55014922 275.32459777 -217.22243063 281.23148679 -226 287 C-229.25286089 285.63532624 -230.73682347 284.35658233 -232.55859375 281.3515625 C-233.25094116 280.22983643 -233.25094116 280.22983643 -233.95727539 279.08544922 C-234.44574951 278.27350098 -234.93422363 277.46155273 -235.4375 276.625 C-236.50647458 274.88980006 -237.57683286 273.15545193 -238.6484375 271.421875 C-239.19983398 270.52533203 -239.75123047 269.62878906 -240.31933594 268.70507812 C-243.00260614 264.38627599 -245.78103231 260.13096566 -248.5625 255.875 C-249.36627075 254.63967529 -249.36627075 254.63967529 -250.1862793 253.37939453 C-252.85505759 249.27836246 -255.53550653 245.18543523 -258.23046875 241.1015625 C-258.73956787 240.32570801 -259.24866699 239.54985352 -259.77319336 238.75048828 C-260.73155973 237.29004503 -261.69436079 235.83249866 -262.66235352 234.37841797 C-264.69576885 231.27156548 -266.24341405 228.63399549 -267 225 C-261.16230568 219.64350391 -255.20957728 214.4984133 -249.05078125 209.515625 C-245.47943859 206.57075346 -241.9877745 203.54291873 -238.5 200.5 C-234.11789039 196.67681607 -229.70940348 192.90845656 -225.1875 189.25 C-221.69764112 186.42512161 -218.31989486 183.52282421 -215 180.5 C-210.80270966 176.67829137 -206.46289769 173.08525811 -202.05078125 169.515625 C-198.47943501 166.57075051 -194.98785513 163.54283024 -191.5 160.5 C-187.21793708 156.76584832 -182.91668165 153.07540896 -178.5 149.5 C-172.16800484 144.36873873 -166.04710553 139.00143725 -159.90087891 133.65087891 C-151.95633072 126.75118267 -143.93994734 119.93468727 -135.8984375 113.1484375 C-131.8709675 109.74659391 -127.87090781 106.31382005 -123.875 102.875 C-119.8137519 99.38180518 -115.72481221 95.93551449 -111.5625 92.5625 C-105.21397761 87.40548914 -99.06906784 82.0205564 -92.90087891 76.65087891 C-84.95633072 69.75118267 -76.93994734 62.93468727 -68.8984375 56.1484375 C-64.8709675 52.74659391 -60.87090781 49.31382005 -56.875 45.875 C-52.8137519 42.38180518 -48.72481221 38.93551449 -44.5625 35.5625 C-38.88383143 30.9496226 -33.3724165 26.15512998 -27.85546875 21.3515625 C-24.08613073 18.06997625 -20.29664066 14.81243262 -16.5 11.5625 C-15.94916748 11.09094482 -15.39833496 10.61938965 -14.83081055 10.13354492 C-13.76786948 9.22385539 -12.70320741 8.3161724 -11.63671875 7.41064453 C-10.45920272 6.39577466 -9.29681856 5.3632507 -8.14453125 4.31982422 C-7.22220703 3.49442139 -7.22220703 3.49442139 -6.28125 2.65234375 C-5.72501953 2.14566162 -5.16878906 1.63897949 -4.59570312 1.11694336 C-3 0 -3 0 0 0 Z " fill="#030303" transform="translate(4973,130)"/>
<path d="M0 0 C1.13268311 0.00491455 2.26536621 0.0098291 3.43237305 0.01489258 C17.61866618 0.21151829 30.30600823 2.36326589 43.3125 8.3125 C44.24449219 8.73144531 45.17648438 9.15039062 46.13671875 9.58203125 C63.1817146 18.01942577 75.03050811 33.96077205 81.5 51.5390625 C85.49932267 63.86050513 86.65676791 75.70816976 86.625 88.625 C86.64111328 89.92373047 86.65722656 91.22246094 86.67382812 92.56054688 C86.68600817 117.05461534 78.44191234 139.54319582 61.3125 157.3125 C40.04646145 176.48777633 14.36708513 178.71823072 -12.98632812 177.54443359 C-20.26124278 177.08855174 -26.80736563 175.74639725 -33.6875 173.3125 C-34.77160156 172.93867188 -35.85570313 172.56484375 -36.97265625 172.1796875 C-55.8590168 164.96896577 -70.21499974 151.37860093 -78.46313477 133.00830078 C-84.04568605 119.74047744 -85.88812666 106.25471319 -85.92773438 91.93652344 C-85.93734927 89.845284 -85.96839292 87.75506843 -86 85.6640625 C-86.19207428 61.4734136 -78.51779998 39.63498957 -61.58203125 22.109375 C-45.03042831 5.68590631 -22.76440754 -0.11796802 0 0 Z " fill="#21B8EA" transform="translate(2954.6875,168.6875)"/>
<path d="M0 0 C1.13268311 0.00491455 2.26536621 0.0098291 3.43237305 0.01489258 C17.61866618 0.21151829 30.30600823 2.36326589 43.3125 8.3125 C44.24449219 8.73144531 45.17648437 9.15039062 46.13671875 9.58203125 C63.1817146 18.01942577 75.03050811 33.96077205 81.5 51.5390625 C85.49932267 63.86050513 86.65676791 75.70816976 86.625 88.625 C86.64111328 89.92373047 86.65722656 91.22246094 86.67382812 92.56054688 C86.68600817 117.05461534 78.44191234 139.54319582 61.3125 157.3125 C40.04646145 176.48777633 14.36708513 178.71823072 -12.98632812 177.54443359 C-20.26124278 177.08855174 -26.80736563 175.74639725 -33.6875 173.3125 C-34.77160156 172.93867188 -35.85570312 172.56484375 -36.97265625 172.1796875 C-55.8590168 164.96896577 -70.21499974 151.37860093 -78.46313477 133.00830078 C-84.04568605 119.74047744 -85.88812666 106.25471319 -85.92773438 91.93652344 C-85.93734927 89.845284 -85.96839292 87.75506843 -86 85.6640625 C-86.19207428 61.4734136 -78.51779998 39.63498957 -61.58203125 22.109375 C-45.03042831 5.68590631 -22.76440754 -0.11796802 0 0 Z " fill="#21B8EA" transform="translate(1362.6875,168.6875)"/>
<path d="M0 0 C0.66 0.33 1.32 0.66 2 1 C-11.2 14.2 -24.4 27.4 -38 41 C-38.66 40.67 -39.32 40.34 -40 40 C-14.81382159 12.78381021 -14.81382159 12.78381021 -3.41796875 3.19921875 C-1.85892049 1.91444826 -1.85892049 1.91444826 0 0 Z " fill="#505050" transform="translate(8386,646)"/>
<path d="M0 0 C0.66 0.33 1.32 0.66 2 1 C-11.2 14.2 -24.4 27.4 -38 41 C-38.66 40.67 -39.32 40.34 -40 40 C-14.81382159 12.78381021 -14.81382159 12.78381021 -3.41796875 3.19921875 C-1.85892049 1.91444826 -1.85892049 1.91444826 0 0 Z " fill="#65CEF0" transform="translate(236,646)"/>
<path d="M0 0 C0.66 0.33 1.32 0.66 2 1 C-9.55 12.55 -21.1 24.1 -33 36 C-33.66 35.67 -34.32 35.34 -35 35 C-34.57589844 34.5875 -34.15179687 34.175 -33.71484375 33.75 C-30.57684993 30.66028301 -27.55070183 27.53471928 -24.6875 24.1875 C-18.55133799 17.08826324 -11.83985723 10.54660103 -4.69140625 4.47265625 C-3.05216211 3.04541597 -1.51774524 1.55487662 0 0 Z " fill="#585858" transform="translate(3517,644)"/>
<path d="M0 0 C0.66 0.33 1.32 0.66 2 1 C1.06027344 1.92232422 1.06027344 1.92232422 0.1015625 2.86328125 C-0.71570312 3.67152344 -1.53296875 4.47976563 -2.375 5.3125 C-3.18710937 6.11300781 -3.99921875 6.91351563 -4.8359375 7.73828125 C-7.12604842 10.00009937 -7.12604842 10.00009937 -9 13 C-9.33 11.68 -9.66 10.36 -10 9 C-6.7 6.03 -3.4 3.06 0 0 Z " fill="#606060" transform="translate(4716,346)"/>
</svg>
