<?xml version="1.0" encoding="UTF-8"?>
<!DOCTYPE svg PUBLIC "-//W3C//DTD SVG 1.1//EN" "http://www.w3.org/Graphics/SVG/1.1/DTD/svg11.dtd">
<svg xmlns="http://www.w3.org/2000/svg" version="1.1" width="9288px" height="5232px" style="shape-rendering:geometricPrecision; text-rendering:geometricPrecision; image-rendering:optimizeQuality; fill-rule:evenodd; clip-rule:evenodd" xmlns:xlink="http://www.w3.org/1999/xlink">
<g><path style="opacity:0.995" fill="#1fb8ea" d="M 3447.5,-0.5 C 3780.17,-0.5 4112.83,-0.5 4445.5,-0.5C 4753.2,7.44577 5029.86,102.946 5275.5,286C 5530.2,481.351 5701.37,734.184 5789,1044.5C 5845.16,1257.2 5853.83,1471.87 5815,1688.5C 5781.91,1885.16 5711.91,2067.16 5605,2234.5C 5426.08,2502.9 5179.58,2677.07 4865.5,2757C 4769.86,2780.08 4672.86,2793.08 4574.5,2796C 4353.16,2796.38 4131.83,2796.72 3910.5,2797C 3892.75,2795.91 3883.92,2786.41 3884,2768.5C 3883.99,2278.83 3884.15,1789.17 3884.5,1299.5C 4067.17,1299.33 4249.83,1299.5 4432.5,1300C 4473.53,1306.38 4502.37,1328.54 4519,1366.5C 4534.54,1413.85 4524.04,1454.35 4487.5,1488C 4471.68,1500.57 4453.68,1508.24 4433.5,1511C 4321.5,1511.5 4209.5,1511.67 4097.5,1511.5C 4097.5,1867.17 4097.5,2222.83 4097.5,2578.5C 4258.17,2578.67 4418.83,2578.5 4579.5,2578C 4729.47,2573.34 4872.8,2540.34 5009.5,2479C 5204.65,2386.51 5355.49,2246.35 5462,2058.5C 5540.79,1915.45 5590.79,1762.79 5612,1600.5C 5652.7,1313.65 5599.7,1045.65 5453,796.5C 5306.91,559.098 5103.74,389.931 4843.5,289C 4720.01,242.768 4592.34,217.435 4460.5,213C 4122.83,212.5 3785.17,212.333 3447.5,212.5C 3447.5,141.5 3447.5,70.5 3447.5,-0.5 Z"/></g>
<g><path style="opacity:0.995" fill="#1fb8ea" d="M 3449.5,433.5 C 3792.84,433.013 4136.18,433.513 4479.5,435C 4739.72,454.214 4958.89,558.047 5137,746.5C 5298.63,924.563 5384.96,1134.56 5396,1376.5C 5402.18,1625.31 5326.85,1845.31 5170,2036.5C 5030.45,2198.85 4855.95,2305.01 4646.5,2355C 4586.58,2368.74 4525.91,2377.07 4464.5,2380C 4417.82,2381.2 4371.16,2381.86 4324.5,2382C 4323.33,2381.5 4322.5,2380.67 4322,2379.5C 4321.05,2337.48 4321.38,2295.48 4323,2253.5C 4331.06,2215.11 4354.23,2191.61 4392.5,2183C 4623.23,2185.33 4818.73,2104.5 4979,1940.5C 5115.65,1792.32 5185.15,1616.82 5187.5,1414C 5184.11,1191.01 5102.11,1003.01 4941.5,850C 4806.34,727.129 4647.01,659.463 4463.5,647C 4196.51,645.355 3929.51,645.021 3662.5,646C 3662,646.5 3661.5,647 3661,647.5C 3660.67,1363.5 3660.33,2079.5 3660,2795.5C 3659.5,2796.67 3658.67,2797.5 3657.5,2798C 3588.17,2798.67 3518.83,2798.67 3449.5,2798C 3449,2797.5 3448.5,2797 3448,2796.5C 3447.33,2009.5 3447.33,1222.5 3448,435.5C 3448.72,434.956 3449.22,434.289 3449.5,433.5 Z"/></g>
<g><path style="opacity:0.996" fill="#1fb8ea" d="M 3884.5,863.5 C 4072.83,863.333 4261.17,863.5 4449.5,864C 4624.71,877.158 4763.54,954.324 4866,1095.5C 4957.66,1232.11 4984.66,1380.77 4947,1541.5C 4905.33,1691.13 4816.83,1803.63 4681.5,1879C 4603.11,1921.18 4519.44,1944.85 4430.5,1950C 4394.18,1951.32 4357.85,1951.82 4321.5,1951.5C 4321.05,1907.14 4321.55,1862.81 4323,1818.5C 4332.07,1774.1 4358.9,1747.93 4403.5,1740C 4520.24,1741.37 4614.4,1696.54 4686,1605.5C 4749.05,1516.52 4766.39,1419.18 4738,1313.5C 4704.18,1208.01 4635.68,1135.18 4532.5,1095C 4502.71,1084.44 4472.04,1078.11 4440.5,1076C 4255.17,1075.5 4069.83,1075.33 3884.5,1075.5C 3884.5,1004.83 3884.5,934.167 3884.5,863.5 Z"/></g>
<g><path style="opacity:0.989" fill="#1fb8ea" d="M 902.5,3298.5 C 934.167,3298.5 965.833,3298.5 997.5,3298.5C 997.5,3782.5 997.5,4266.5 997.5,4750.5C 967.167,4750.5 936.833,4750.5 906.5,4750.5C 904.97,4682.79 902.804,4615.13 900,4547.5C 850.159,4635.16 778.993,4698.99 686.5,4739C 600.34,4772.56 512.007,4779.56 421.5,4760C 332.517,4738.44 257.351,4693.94 196,4626.5C 119.841,4538.46 75.5076,4436.13 63,4319.5C 53.9535,4238.28 58.9535,4157.94 78,4078.5C 106.066,3972.47 160.9,3883.3 242.5,3811C 350.377,3722.28 473.377,3690.95 611.5,3717C 740.388,3746.6 837.222,3818.77 902,3933.5C 902.5,3721.83 902.667,3510.17 902.5,3298.5 Z M 512.5,3807.5 C 643.418,3802.7 747.918,3852.36 826,3956.5C 876.309,4028.75 903.976,4109.09 909,4197.5C 914.744,4273.55 905.078,4347.55 880,4419.5C 846.416,4509.4 788.583,4578.9 706.5,4628C 635.966,4665.81 560.966,4679.15 481.5,4668C 397.433,4655.56 326.933,4618.06 270,4555.5C 212.692,4489.02 177.692,4412.02 165,4324.5C 151.701,4235.72 159.034,4148.72 187,4063.5C 219.62,3971.9 277.453,3901.07 360.5,3851C 408.057,3825.2 458.724,3810.7 512.5,3807.5 Z"/></g>
<g><path style="opacity:0.989" fill="#000000" d="M 9052.5,3298.5 C 9084.17,3298.5 9115.83,3298.5 9147.5,3298.5C 9147.5,3782.5 9147.5,4266.5 9147.5,4750.5C 9117.17,4750.5 9086.83,4750.5 9056.5,4750.5C 9054.97,4682.79 9052.8,4615.13 9050,4547.5C 9000.16,4635.16 8928.99,4698.99 8836.5,4739C 8750.34,4772.56 8662.01,4779.56 8571.5,4760C 8482.52,4738.44 8407.35,4693.94 8346,4626.5C 8269.84,4538.46 8225.51,4436.13 8213,4319.5C 8203.95,4238.28 8208.95,4157.94 8228,4078.5C 8256.07,3972.47 8310.9,3883.3 8392.5,3811C 8500.38,3722.28 8623.38,3690.95 8761.5,3717C 8890.39,3746.6 8987.22,3818.77 9052,3933.5C 9052.5,3721.83 9052.67,3510.17 9052.5,3298.5 Z M 8662.5,3807.5 C 8793.42,3802.7 8897.92,3852.36 8976,3956.5C 9026.31,4028.75 9053.98,4109.09 9059,4197.5C 9064.74,4273.55 9055.08,4347.55 9030,4419.5C 8996.42,4509.4 8938.58,4578.9 8856.5,4628C 8785.97,4665.81 8710.97,4679.15 8631.5,4668C 8547.43,4655.56 8476.93,4618.06 8420,4555.5C 8362.69,4489.02 8327.69,4412.02 8315,4324.5C 8301.7,4235.72 8309.03,4148.72 8337,4063.5C 8369.62,3971.9 8427.45,3901.07 8510.5,3851C 8558.06,3825.2 8608.72,3810.7 8662.5,3807.5 Z"/></g>
<g><path style="opacity:0.986" fill="#000000" d="M 4969.5,3300.5 C 4971.59,3300.56 4973.09,3301.56 4974,3303.5C 4993.83,3332 5013.67,3360.5 5033.5,3389C 4940.5,3453.33 4847.5,3517.67 4754.5,3582C 4751.3,3584.27 4747.97,3585.93 4744.5,3587C 4732.46,3568.41 4720.29,3549.91 4708,3531.5C 4706.7,3529.6 4706.03,3527.6 4706,3525.5C 4794.32,3451.01 4882.15,3376.01 4969.5,3300.5 Z"/></g>
<g><path style="opacity:0.99" fill="#1fb8ea" d="M 1349.5,3339.5 C 1372.13,3337.33 1393.46,3341.49 1413.5,3352C 1434.21,3366.76 1445.71,3386.92 1448,3412.5C 1451.92,3439.81 1446.25,3464.81 1431,3487.5C 1417.38,3503.9 1399.88,3513.4 1378.5,3516C 1355.25,3519.46 1333.25,3515.79 1312.5,3505C 1291.32,3490.5 1279.49,3470.33 1277,3444.5C 1273.46,3419.61 1277.79,3396.28 1290,3374.5C 1304.64,3353.93 1324.48,3342.26 1349.5,3339.5 Z"/></g>
<g><path style="opacity:0.99" fill="#1fb8ea" d="M 2941.5,3339.5 C 2964.13,3337.33 2985.46,3341.49 3005.5,3352C 3026.21,3366.76 3037.71,3386.92 3040,3412.5C 3043.92,3439.81 3038.25,3464.81 3023,3487.5C 3009.38,3503.9 2991.88,3513.4 2970.5,3516C 2947.25,3519.46 2925.25,3515.79 2904.5,3505C 2883.32,3490.5 2871.49,3470.33 2869,3444.5C 2865.46,3419.61 2869.79,3396.28 2882,3374.5C 2896.64,3353.93 2916.48,3342.26 2941.5,3339.5 Z"/></g>
<g><path style="opacity:0.992" fill="#1fb8ea" d="M 2095.5,3707.5 C 2211.04,3705.73 2312.38,3742.23 2399.5,3817C 2436.55,3850.69 2466.71,3889.52 2490,3933.5C 2492.65,3865.5 2495.15,3797.5 2497.5,3729.5C 2528.83,3729.5 2560.17,3729.5 2591.5,3729.5C 2591.67,4061.83 2591.5,4394.17 2591,4726.5C 2588.55,4816.65 2566.55,4901.65 2525,4981.5C 2460.95,5091.81 2366.45,5161.31 2241.5,5190C 2102.91,5217.73 1971.91,5197.39 1848.5,5129C 1822.76,5114.58 1798.09,5098.58 1774.5,5081C 1771.08,5078.72 1770.58,5075.88 1773,5072.5C 1786.36,5043.61 1799.86,5014.77 1813.5,4986C 1813.85,4984.74 1814.52,4984.41 1815.5,4985C 1899.13,5057.01 1996.46,5096.01 2107.5,5102C 2175.34,5106.53 2240.34,5095.19 2302.5,5068C 2373.46,5033.04 2424.63,4979.21 2456,4906.5C 2482.45,4841.48 2496.12,4773.81 2497,4703.5C 2497.67,4646.17 2497.67,4588.83 2497,4531.5C 2437.69,4644.93 2346.53,4719.77 2223.5,4756C 2133.66,4778.07 2044.99,4774.07 1957.5,4744C 1859.61,4705.11 1783.44,4640.61 1729,4550.5C 1680.36,4468.24 1653.7,4379.24 1649,4283.5C 1642.82,4194.4 1654.49,4107.73 1684,4023.5C 1723.93,3917.41 1791.1,3833.24 1885.5,3771C 1949.94,3731.35 2019.94,3710.18 2095.5,3707.5 Z M 2113.5,3806.5 C 2245.25,3806.28 2348.41,3859.95 2423,3967.5C 2468.31,4037.35 2493.31,4114.01 2498,4197.5C 2503.54,4271.35 2494.54,4343.35 2471,4413.5C 2440.51,4497.96 2388.34,4565.46 2314.5,4616C 2240.87,4661.93 2160.87,4679.26 2074.5,4668C 1986.52,4655.94 1913.35,4616.77 1855,4550.5C 1792.88,4475.22 1757.88,4388.56 1750,4290.5C 1741.46,4203.17 1753.46,4118.84 1786,4037.5C 1819.2,3959.64 1871.7,3898.48 1943.5,3854C 1996.3,3824.01 2052.97,3808.17 2113.5,3806.5 Z"/></g>
<g><path style="opacity:0.991" fill="#000000" d="M 3783.5,3707.5 C 3929.51,3705.93 4049.01,3760.93 4142,3872.5C 4214.68,3963.48 4255.01,4067.48 4263,4184.5C 4270.43,4274.61 4260.1,4362.61 4232,4448.5C 4197.31,4548.46 4137.48,4629.62 4052.5,4692C 3962.63,4753.3 3863.3,4778.64 3754.5,4768C 3633.87,4752.96 3536.04,4698.12 3461,4603.5C 3440.69,4576.57 3423.69,4547.57 3410,4516.5C 3409.5,4738.5 3409.33,4960.5 3409.5,5182.5C 3378.17,5182.5 3346.83,5182.5 3315.5,5182.5C 3315.5,4698.17 3315.5,4213.83 3315.5,3729.5C 3345.74,3729.17 3375.91,3729.5 3406,3730.5C 3408.57,3804.5 3411.24,3878.5 3414,3952.5C 3458.09,3860.75 3525.92,3792.58 3617.5,3748C 3670.18,3723.16 3725.51,3709.66 3783.5,3707.5 Z M 3773.5,3806.5 C 3918.28,3806.62 4027.78,3868.29 4102,3991.5C 4137.22,4053.17 4157.56,4119.51 4163,4190.5C 4170.03,4268.53 4160.7,4344.53 4135,4418.5C 4107.43,4493.7 4061.93,4555.54 3998.5,4604C 3934.61,4649.24 3863.27,4671.74 3784.5,4671.5C 3658.5,4668.84 3558.67,4616.84 3485,4515.5C 3427.85,4432.11 3400.35,4339.61 3402.5,4238C 3400.74,4149.19 3421.91,4066.36 3466,3989.5C 3536.34,3875.09 3638.84,3814.09 3773.5,3806.5 Z"/></g>
<g><path style="opacity:0.99" fill="#000000" d="M 5905.5,3707.5 C 5958.76,3705.15 6009.76,3714.65 6058.5,3736C 6090.12,3751.95 6116.62,3774.11 6138,3802.5C 6154.2,3824.22 6167.87,3847.56 6179,3872.5C 6187.92,3893.42 6195.75,3914.75 6202.5,3936.5C 6248.86,3844.64 6319.53,3778.81 6414.5,3739C 6489.81,3708.24 6567.48,3700.24 6647.5,3715C 6735.08,3734.59 6797.58,3785.09 6835,3866.5C 6857.91,3918.48 6871.91,3972.81 6877,4029.5C 6879.88,4057.09 6881.55,4084.76 6882,4112.5C 6882.5,4325.17 6882.67,4537.83 6882.5,4750.5C 6850.83,4750.5 6819.17,4750.5 6787.5,4750.5C 6787.67,4533.17 6787.5,4315.83 6787,4098.5C 6785.66,4056.48 6779.66,4015.15 6769,3974.5C 6758.69,3935.88 6741.02,3901.21 6716,3870.5C 6682.65,3834.41 6641.49,3812.91 6592.5,3806C 6480.5,3792.66 6385.66,3826.49 6308,3907.5C 6253.96,3967.96 6225.63,4038.96 6223,4120.5C 6222.5,4330.5 6222.33,4540.5 6222.5,4750.5C 6191.17,4750.5 6159.83,4750.5 6128.5,4750.5C 6128.67,4535.17 6128.5,4319.83 6128,4104.5C 6126.95,4060.8 6120.95,4017.8 6110,3975.5C 6079.1,3862.29 6004.94,3804.62 5887.5,3802.5C 5761.7,3806.62 5667.2,3862.62 5604,3970.5C 5579.46,4014.66 5566.13,4062 5564,4112.5C 5563.5,4325.17 5563.33,4537.83 5563.5,4750.5C 5532.17,4750.5 5500.83,4750.5 5469.5,4750.5C 5469.5,4410.17 5469.5,4069.83 5469.5,3729.5C 5499.74,3729.17 5529.91,3729.5 5560,3730.5C 5562.31,3791.83 5564.64,3853.17 5567,3914.5C 5616.19,3819 5692.35,3755.83 5795.5,3725C 5831.64,3714.91 5868.3,3709.08 5905.5,3707.5 Z"/></g>
<g><path style="opacity:0.989" fill="#000000" d="M 7522.5,3707.5 C 7671.25,3705.64 7791.42,3762.64 7883,3878.5C 7894.85,3894.02 7905.51,3910.36 7915,3927.5C 7917.98,3861.52 7920.48,3795.52 7922.5,3729.5C 7952.83,3729.5 7983.17,3729.5 8013.5,3729.5C 8013.5,4069.83 8013.5,4410.17 8013.5,4750.5C 7981.83,4750.5 7950.17,4750.5 7918.5,4750.5C 7918.67,4681.5 7918.5,4612.5 7918,4543.5C 7871.19,4627.64 7804.36,4690.48 7717.5,4732C 7626.5,4771.53 7532.5,4780.53 7435.5,4759C 7350.21,4738.29 7277.71,4696.12 7218,4632.5C 7135.7,4540.84 7089.03,4433.18 7078,4309.5C 7067.87,4211.68 7078.87,4116.35 7111,4023.5C 7150.93,3917.41 7218.1,3833.24 7312.5,3771C 7376.94,3731.35 7446.94,3710.18 7522.5,3707.5 Z M 7540.5,3806.5 C 7672.25,3806.28 7775.41,3859.95 7850,3967.5C 7895.31,4037.35 7920.31,4114.01 7925,4197.5C 7930.54,4271.35 7921.54,4343.35 7898,4413.5C 7867.51,4497.96 7815.34,4565.46 7741.5,4616C 7667.87,4661.93 7587.87,4679.26 7501.5,4668C 7413.52,4655.94 7340.35,4616.77 7282,4550.5C 7219.88,4475.22 7184.88,4388.56 7177,4290.5C 7168.46,4203.17 7180.46,4118.84 7213,4037.5C 7246.2,3959.64 7298.7,3898.48 7370.5,3854C 7423.3,3824.01 7479.97,3808.17 7540.5,3806.5 Z"/></g>
<g><path style="opacity:0.991" fill="#000000" d="M 4824.5,3708.5 C 4892.57,3704.77 4958.57,3714.61 5022.5,3738C 5113.94,3775.1 5182.11,3837.6 5227,3925.5C 5264.95,4003.56 5283.11,4086.06 5281.5,4173C 5281.06,4198.84 5280.39,4224.67 5279.5,4250.5C 5014.17,4250.17 4748.83,4250.5 4483.5,4251.5C 4484.9,4317.68 4497.4,4381.68 4521,4443.5C 4568.13,4558.3 4651.97,4630.47 4772.5,4660C 4869.41,4681.48 4963.74,4673.48 5055.5,4636C 5104.1,4611.7 5148.6,4581.54 5189,4545.5C 5205.62,4569.91 5222.12,4594.41 5238.5,4619C 5142.97,4711.74 5028.3,4762.07 4894.5,4770C 4810.66,4775.03 4730.66,4760.03 4654.5,4725C 4551.17,4673.01 4476.67,4593.84 4431,4487.5C 4398.43,4407.94 4382.6,4325.11 4383.5,4239C 4382.23,4135.91 4405.4,4038.75 4453,3947.5C 4533.64,3801.47 4657.47,3721.81 4824.5,3708.5 Z M 4827.5,3807.5 C 4951.6,3798.82 5050.1,3844.16 5123,3943.5C 5166.28,4008.85 5187.45,4080.85 5186.5,4159.5C 4953.5,4159.5 4720.5,4159.5 4487.5,4159.5C 4494.03,4077.39 4521.53,4003.39 4570,3937.5C 4626.33,3867.62 4699.16,3825.79 4788.5,3812C 4801.62,3810.22 4814.62,3808.72 4827.5,3807.5 Z"/></g>
<g><path style="opacity:0.994" fill="#1fb8ea" d="M 1315.5,3729.5 C 1346.83,3729.5 1378.17,3729.5 1409.5,3729.5C 1409.5,4069.83 1409.5,4410.17 1409.5,4750.5C 1378.17,4750.5 1346.83,4750.5 1315.5,4750.5C 1315.5,4410.17 1315.5,4069.83 1315.5,3729.5 Z"/></g>
<g><path style="opacity:0.994" fill="#1fb8ea" d="M 2907.5,3729.5 C 2938.83,3729.5 2970.17,3729.5 3001.5,3729.5C 3001.5,4069.83 3001.5,4410.17 3001.5,4750.5C 2970.17,4750.5 2938.83,4750.5 2907.5,4750.5C 2907.5,4410.17 2907.5,4069.83 2907.5,3729.5 Z"/></g>
</svg>
