<?xml version="1.0" encoding="UTF-8"?>
<svg version="1.1" xmlns="http://www.w3.org/2000/svg" width="2391" height="2799">
<path d="M0 0 C115.10873892 -0.04026156 115.10873892 -0.04026156 150.75013733 -0.05130005 C152.65680041 -0.05189205 152.65680041 -0.05189205 154.60198193 -0.05249601 C197.43793682 -0.06576009 240.27389192 -0.07625663 283.10984802 -0.08468628 C284.52330755 -0.08496518 285.93676707 -0.08524408 287.35022659 -0.08552299 C317.02886428 -0.09137024 346.70750202 -0.09680347 376.38613987 -0.10175936 C391.29801457 -0.10424986 406.20988926 -0.10681979 421.12176394 -0.10946488 C423.37095424 -0.10986339 425.62014454 -0.11025962 427.86933484 -0.11065576 C462.44241162 -0.11676492 497.01548699 -0.12456203 531.58856201 -0.1373291 C532.70085621 -0.1377398 532.70085621 -0.1377398 533.835621 -0.13815879 C545.78880989 -0.14258271 557.74199872 -0.14715024 569.69518755 -0.15173688 C604.18704723 -0.16496978 638.67890581 -0.17711445 673.17076778 -0.18227959 C673.88232514 -0.18238666 674.5938825 -0.18249373 675.32700219 -0.18260404 C690.95958838 -0.18493732 706.59217459 -0.18672622 722.2247609 -0.18800197 C728.51787687 -0.1885251 734.81099284 -0.18912635 741.10410881 -0.18975449 C741.79279842 -0.18982134 742.48148803 -0.18988819 743.19104702 -0.18995707 C765.26179794 -0.19213826 787.33254068 -0.20064018 809.40328832 -0.21256442 C832.32048511 -0.22491551 855.23767524 -0.23000654 878.15487588 -0.22700275 C890.17760524 -0.2256265 902.20031278 -0.22737877 914.22303772 -0.23841095 C1028.98043876 -0.33969071 1028.98043876 -0.33969071 1080.625 3.8125 C1081.70993744 3.89648041 1082.79487488 3.98046082 1083.91268921 4.06698608 C1183.61333858 11.7976249 1282.66120486 29.88186234 1605 148 C1606.13050781 148.55429688 1607.26101563 149.10859375 1608.42578125 149.6796875 C1622.46668322 156.5786774 1636.31727558 163.74895578 1649.99609375 171.33984375 C1652.7043355 172.83659634 1655.41876425 174.32143665 1658.13650513 175.80085754 C1673.61800631 184.22839235 1688.88573435 192.92649937 1703.92724609 202.12451172 C1707.00330195 204.00201538 1710.08876162 205.86324613 1713.17578125 207.72265625 C1731.14959223 218.60381939 1748.59851656 230.23218133 1766 242 C1767.00305176 242.67788574 1768.00610352 243.35577148 1769.03955078 244.05419922 C1774.38151636 247.67157027 1779.70256634 251.31772969 1785 255 C1786.04800781 255.72823975 1786.04800781 255.72823975 1787.1171875 256.47119141 C1804.11182037 268.31063001 1820.69425081 280.65836089 1836.99414062 293.43505859 C1839.85430562 295.66651643 1842.74001023 297.86322824 1845.625 300.0625 C1852.58853001 305.40824021 1859.38749022 310.95077636 1866.1796875 316.51171875 C1867.77261865 317.81409379 1869.3702952 319.11066032 1870.96875 320.40625 C1876.66477061 325.03007849 1882.25247659 329.76693191 1887.80688477 334.55883789 C1891.34348054 337.60341924 1894.92422562 340.57667037 1898.5625 343.5 C1903.926542 347.8513615 1908.96116247 352.51290176 1914.0078125 357.22265625 C1916.32240262 359.38077719 1918.66895746 361.4917381 1921.0625 363.5625 C1925.92906244 367.77747249 1930.65083789 372.1497678 1935.38378906 376.51318359 C1937.009876 378.00908533 1938.64111551 379.49918799 1940.2734375 380.98828125 C1946.43373211 386.62196118 1952.44076105 392.35499344 1958.26953125 398.33203125 C1960.32752849 400.34292126 1962.38838084 402.21220306 1964.5703125 404.078125 C1969.77504549 408.59011752 1974.61495128 413.46506734 1979.47290039 418.3425293 C1981.05959946 419.93458966 1982.65157742 421.5212299 1984.24414062 423.10742188 C1989.16118844 428.02159238 1993.9659027 432.98095264 1998.48608398 438.26782227 C2000.85787053 440.98154998 2003.42086278 443.48533053 2006 446 C2009.83933115 449.79264697 2013.52681792 453.63100483 2017.02734375 457.7421875 C2019.78121294 460.89414076 2022.64335257 463.94131071 2025.5 467 C2030.09100184 471.92601741 2034.62250889 476.88212984 2039 482 C2039.87622321 483.02220303 2040.75253345 484.04433146 2041.62890625 485.06640625 C2043.14506967 486.8349271 2044.66050419 488.60404841 2046.17382812 490.375 C2048.85808905 493.51382675 2051.55439033 496.64074402 2054.27734375 499.74609375 C2060.05745484 506.34481769 2065.67824875 513.01286052 2071.05151367 519.94799805 C2073.91479975 523.63992463 2076.85653405 527.24478018 2079.875 530.8125 C2084.98113321 536.89314759 2089.77972991 543.18700632 2094.578125 549.51171875 C2097.4303223 553.26689356 2100.32802038 556.98400594 2103.23974609 560.69311523 C2110.75766708 570.27872517 2117.94788829 580.06788682 2125 590 C2125.48645996 590.68352539 2125.97291992 591.36705078 2126.47412109 592.07128906 C2129.44636678 596.25072686 2132.40043205 600.44257923 2135.34423828 604.64208984 C2136.50147719 606.29007176 2137.66153906 607.93607335 2138.82373047 609.58056641 C2148.68203502 623.53043043 2158.08956398 637.71038598 2167.20263672 652.15771484 C2168.79200721 654.67108774 2170.39389168 657.17560655 2172.00390625 659.67578125 C2209.76029265 718.49715017 2243.0600264 780.95380069 2271 845 C2271.32532715 845.74304382 2271.6506543 846.48608765 2271.98583984 847.25164795 C2310.22828939 934.62464015 2339.36298431 1025.22266357 2388.75 1329.75 C2388.80925659 1330.6064209 2388.86851318 1331.4628418 2388.92956543 1332.34521484 C2389.33034652 1338.22791456 2389.67986542 1344.11239185 2390 1350 C2390.0483902 1350.85546417 2390.0967804 1351.71092834 2390.14663696 1352.59231567 C2391.25480672 1372.8666426 2391.18743992 1393.16029907 2391.18530273 1413.45825195 C2391.1852221 1417.41402827 2391.19207872 1421.36968721 2391.20581055 1425.32543945 C2391.32811205 1461.17702462 2390.16834661 1496.88447251 2387.25 1532.625 C2387.16696625 1533.65797211 2387.0839325 1534.69094421 2386.99838257 1535.75521851 C2377.92134201 1647.92143022 2358.82498898 1759.52667725 2265 2036 C2264.72949829 2036.62221436 2264.45899658 2037.24442871 2264.18029785 2037.88549805 C2255.63923455 2057.497926 2246.46094408 2076.77531254 2237.0057373 2095.95922852 C2236.00950393 2097.9807153 2235.01494158 2100.00301807 2234.02050781 2102.02539062 C2226.51055848 2117.28228412 2218.81399665 2132.41124218 2210.52441406 2147.26318359 C2208.91936271 2150.14477003 2207.33031086 2153.03483457 2205.7421875 2155.92578125 C2196.93206105 2171.89302626 2187.57028414 2187.48208166 2178 2203 C2177.36449219 2204.03511719 2176.72898437 2205.07023437 2176.07421875 2206.13671875 C2157.10517102 2237.00634801 2136.68738651 2266.9774857 2115 2296 C2114.16002286 2297.128807 2113.32016693 2298.25770422 2112.48046875 2299.38671875 C2107.06070524 2306.64787301 2101.55281035 2313.84034777 2096 2321 C2095.57493164 2321.54881836 2095.14986328 2322.09763672 2094.71191406 2322.66308594 C2083.69185558 2336.86726967 2072.21889387 2350.69027684 2060.46777344 2364.29394531 C2058.97352246 2366.03077596 2057.48940201 2367.77579808 2056.0078125 2369.5234375 C2050.56067707 2375.93926682 2045.02521593 2382.24336643 2039.27148438 2388.38696289 C2036.70351419 2391.13195641 2034.19170581 2393.91340643 2031.72802734 2396.75268555 C2019.60761922 2410.6243039 2006.54354479 2423.6174186 1993.5090332 2436.62133789 C1991.03271457 2439.09189645 1988.56100308 2441.5670086 1986.09053135 2444.04341221 C1983.68909546 2446.44935353 1981.28383299 2448.85145426 1978.87890625 2451.25390625 C1977.56775597 2452.56809288 1977.56775597 2452.56809288 1976.2301178 2453.90882874 C1971.83718613 2458.28511497 1967.37968922 2462.51386928 1962.67726135 2466.55632019 C1960.76690702 2468.2006316 1958.92623276 2469.90569498 1957.10546875 2471.6484375 C1956.14592285 2472.56061035 1956.14592285 2472.56061035 1955.16699219 2473.49121094 C1954.51375977 2474.11286133 1953.86052734 2474.73451172 1953.1875 2475.375 C1947.83279574 2480.43704326 1942.4049314 2485.23738997 1936.640625 2489.828125 C1933.65904021 2492.28043438 1930.82446415 2494.87093335 1928 2497.5 C1922.52726953 2502.58464973 1916.82489019 2507.32154261 1911 2512 C1909.24885082 2513.43609985 1907.49886817 2514.87362323 1905.75 2516.3125 C1903.83467143 2517.87663997 1901.91791048 2519.43902699 1900 2521 C1899.46455566 2521.43650879 1898.92911133 2521.87301758 1898.37744141 2522.32275391 C1888.25058947 2530.56080993 1877.86318505 2538.42170505 1867.39111328 2546.21435547 C1865.21029151 2547.84295772 1863.03840279 2549.48238649 1860.87109375 2551.12890625 C1817.70907125 2583.8915502 1771.36988611 2612.76759541 1724 2639 C1723.06091797 2639.52174805 1722.12183594 2640.04349609 1721.15429688 2640.58105469 C1688.29440806 2658.76619261 1654.53639268 2675.25730042 1620 2690 C1619.24740906 2690.32184265 1618.49481812 2690.6436853 1617.71942139 2690.97528076 C1537.66282629 2725.17929626 1454.57637582 2751.24645348 1098.85964966 2797.17167664 C1096.10704311 2797.17716286 1093.35444053 2797.18407976 1090.60183704 2797.19091636 C1084.66477103 2797.20490747 1078.72770721 2797.21541256 1072.79063034 2797.22349739 C1063.96211422 2797.2355227 1055.13361474 2797.25306628 1046.30511014 2797.27157578 C1029.61948218 2797.30634109 1012.93384714 2797.33458205 996.24820353 2797.36059722 C983.36797986 2797.38069206 970.48775956 2797.40229348 957.60754013 2797.42493629 C953.89078646 2797.43145165 950.17403278 2797.43795849 946.45727909 2797.44446212 C945.0710954 2797.44688801 945.0710954 2797.44688801 943.65690801 2797.44936291 C917.70197673 2797.49472099 891.74704261 2797.5379441 865.79210091 2797.57690716 C864.32721379 2797.57910808 864.32721379 2797.57910808 862.83273299 2797.58135347 C857.88364254 2797.58878569 852.93455208 2797.59620333 847.98546161 2797.60361841 C847.00265134 2797.6050914 846.01984106 2797.60656439 845.00724866 2797.60808203 C843.01977918 2797.6110607 841.03230969 2797.614038 839.04484019 2797.6170139 C808.07919397 2797.66343845 777.11357083 2797.71796872 746.14794922 2797.77856445 C711.31734241 2797.84671865 676.48673255 2797.90805491 641.65609729 2797.95981437 C637.94374454 2797.96535605 634.23139184 2797.97092433 630.51903915 2797.976511 C629.14802752 2797.97856825 629.14802752 2797.97856825 627.74931868 2797.98066705 C613.04568256 2798.00288997 598.342066 2798.03160261 583.63844603 2798.06258262 C568.8736191 2798.093513 554.10879488 2798.11691529 539.34394385 2798.13268574 C530.57449618 2798.14226532 521.80509997 2798.15742681 513.03567751 2798.18062021 C507.17707268 2798.19555755 501.31848787 2798.20315399 495.45986431 2798.20480734 C492.12310284 2798.20595524 488.78649901 2798.2113673 485.44974925 2798.22349032 C481.85097965 2798.2360623 478.25241299 2798.23620778 474.6536274 2798.2332716 C473.62438536 2798.23984412 472.59514332 2798.24641665 471.53471214 2798.25318834 C459.96869451 2798.21363685 450.31556977 2796.97418762 441.6875 2788.8125 C436.56687384 2780.27812307 435.84452989 2770.21661796 435.87415886 2760.4776144 C435.87197883 2759.2200909 435.87197883 2759.2200909 435.86975476 2757.93716287 C435.86609957 2755.1195843 435.86958193 2752.30206002 435.87301636 2749.48448181 C435.87186177 2747.43530074 435.87027144 2745.38611988 435.86828482 2743.33693945 C435.86408672 2737.6700603 435.8661815 2732.00319792 435.86926901 2726.33631869 C435.87154936 2720.16338187 435.86807309 2713.99044783 435.86536407 2707.81751156 C435.86117496 2696.2225461 435.8616613 2684.62758786 435.86433933 2673.03262244 C435.866862 2661.98449711 435.86721484 2650.93637396 435.86568069 2639.88824844 C435.86557992 2639.14160235 435.86547915 2638.39495625 435.86537532 2637.62568452 C435.86496314 2634.58117133 435.86454434 2631.53665814 435.86411473 2628.49214495 C435.85977206 2597.30459693 435.86288881 2566.11705229 435.86893139 2534.92950475 C435.86977282 2530.58500822 435.87060537 2526.2405117 435.87142944 2521.89601517 C435.87159369 2521.0323916 435.87175794 2520.16876803 435.87192716 2519.27897404 C435.875358 2501.00140184 435.87653939 2482.72382972 435.87742338 2464.44625724 C435.88208659 2369.23248022 435.90734197 2274.0187108 437 1300 C489.01879203 1299.94862677 541.03758604 1299.90086728 593.05639648 1299.87297058 C594.21188737 1299.87234932 594.21188737 1299.87234932 595.39072151 1299.87171552 C612.13342698 1299.86273606 628.87613271 1299.85442562 645.61883885 1299.84680401 C653.829877 1299.84306212 662.04091508 1299.83917244 670.25195312 1299.83520508 C671.06903478 1299.8348128 671.88611643 1299.83442052 672.72795813 1299.83401636 C699.19512352 1299.82124036 725.66226966 1299.79871245 752.12942339 1299.77110834 C779.33586204 1299.74278483 806.54229003 1299.7243377 833.74874317 1299.71825503 C837.59457026 1299.71739061 841.44039732 1299.7164137 845.28622437 1299.71536827 C846.04311206 1299.715166 846.79999976 1299.71496373 847.57982344 1299.71475533 C859.74633505 1299.71121504 871.91281364 1299.69731401 884.0793118 1299.6795039 C896.32122248 1299.66180576 908.56310054 1299.65510516 920.80502355 1299.65949587 C927.43370728 1299.66157177 934.06231457 1299.65848613 940.69098663 1299.64238358 C946.76619669 1299.62773362 952.84124562 1299.62708075 958.91646326 1299.63730332 C961.10785377 1299.63856588 963.29925454 1299.63480381 965.49062502 1299.62535045 C997.67864138 1299.494631 1025.20437379 1308.25190709 1048.6875 1331.25 C1068.53136075 1351.33361272 1078.53297251 1377.7194905 1079.3125 1405.75 C1078.70631688 1437.41415336 1066.04252192 1464.06898015 1043.421875 1485.88671875 C947.25733952 1575.4747352 781.42918464 1512 650 1512 C650 1864.11 650 2216.22 650 2579 C1009.47517548 2590.48763844 1009.47517548 2590.48763844 1368 2546 C1368.74131165 2545.8214447 1369.48262329 2545.6428894 1370.24639893 2545.45892334 C1423.04421795 2532.71512298 1474.8215212 2515.77008657 1525 2495 C1525.99078552 2494.59035004 1525.99078552 2494.59035004 1527.00158691 2494.17242432 C1592.6379397 2466.96769285 1655.99274032 2432.86346392 1713.84716797 2391.53710938 C1715.82176349 2390.12725982 1717.80205435 2388.72597129 1719.78515625 2387.328125 C1728.65459309 2381.06025849 1737.34616994 2374.56135139 1746 2368 C1746.5657373 2367.57219238 1747.13147461 2367.14438477 1747.71435547 2366.70361328 C1760.94168624 2356.68676111 1773.76497309 2346.16523993 1786.37597656 2335.38574219 C1788.06714221 2333.94270908 1789.76374619 2332.50625183 1791.4609375 2331.0703125 C1798.45067936 2325.13956388 1805.26876041 2319.06028751 1811.97265625 2312.80859375 C1814.67548497 2310.28999065 1817.42453298 2307.82761815 1820.1875 2305.375 C1824.50043864 2301.5164228 1828.5671689 2297.45224333 1832.6328125 2293.3359375 C1834.69634201 2291.2996493 1836.79815759 2289.38350375 1839 2287.5 C1845.88272192 2281.59059229 1852.1367209 2275.08639781 1858.0234375 2268.1953125 C1860.57963276 2265.35621816 1863.28289592 2262.68420735 1866 2260 C1869.88373063 2256.15847737 1873.62554794 2252.27627213 1877.16796875 2248.11328125 C1879.04887009 2245.94362747 1880.98912863 2243.8354694 1882.94262695 2241.73120117 C1887.6826111 2236.62281191 1892.19192291 2231.40075296 1896.5625 2225.96875 C1899.42926803 2222.47717355 1902.39793318 2219.08490453 1905.375 2215.6875 C1910.98650283 2209.25766991 1916.31759888 2202.65816691 1921.52832031 2195.90136719 C1923.1110899 2193.85647509 1924.70679524 2191.8221568 1926.3046875 2189.7890625 C1970.72213725 2133.18226059 2008.13391338 2071.92609928 2041 2008 C2041.44666016 2007.13536133 2041.89332031 2006.27072266 2042.35351562 2005.37988281 C2063.17977104 1964.94609359 2080.39410985 1922.68530824 2096 1880 C2096.41668945 1878.86078094 2096.41668945 1878.86078094 2096.84179688 1877.69854736 C2128.35536448 1791.3553205 2149.67464506 1701.26314837 2167 1577 C2167.11065796 1576.06488586 2167.22131592 1575.12977173 2167.33532715 1574.1663208 C2170.26262422 1549.24170135 2172.47841451 1524.28249885 2174.25 1499.25 C2174.33308411 1498.08722534 2174.41616821 1496.92445068 2174.50177002 1495.72644043 C2176.3247864 1469.91648704 2177.2132872 1444.12363504 2177.1875 1418.25 C2177.18659363 1416.5291922 2177.18659363 1416.5291922 2177.18566895 1414.77362061 C2177.05628213 1322.80957679 2166.16442173 1231.45887738 2074 930 C2073.51644043 928.92395508 2073.03288086 927.84791016 2072.53466797 926.73925781 C2061.13795422 901.49624939 2049.27470202 876.3171725 2036 852 C2035.1347168 850.40889404 2035.1347168 850.40889404 2034.25195312 848.78564453 C2025.12566828 832.01991003 2015.78062717 815.39468766 2006 799 C2005.15260254 797.57228271 2005.15260254 797.57228271 2004.28808594 796.11572266 C1995.23147276 780.91847062 1985.55935923 766.15589827 1975.75 751.4375 C1975.15862244 750.54943665 1974.56724487 749.66137329 1973.95794678 748.74639893 C1963.91685202 733.68667284 1953.65071423 718.79565299 1942.875 704.25 C1942.28936279 703.45762939 1941.70372559 702.66525879 1941.1003418 701.84887695 C1936.14922052 695.16720089 1931.11645728 688.555975 1926 682 C1925.5555957 681.42942871 1925.11119141 680.85885742 1924.65332031 680.27099609 C1916.34670958 669.61307393 1907.84423696 659.13653775 1899.09033203 648.84228516 C1896.14019403 645.3675864 1893.24331771 641.85542205 1890.375 638.3125 C1886.75165505 633.86096192 1882.98036128 629.57617545 1879.1171875 625.33203125 C1877.21948831 623.24176111 1875.35266585 621.13013885 1873.5 619 C1870.1389752 615.1433402 1866.72180556 611.33938606 1863.29296875 607.54296875 C1861.85298213 605.94598189 1860.41740084 604.34500017 1858.98828125 602.73828125 C1856.67538291 600.14342959 1854.34188088 597.56873968 1852 595 C1851.52965332 594.48308594 1851.05930664 593.96617187 1850.57470703 593.43359375 C1840.36711547 582.2709627 1829.68476885 571.57739807 1819 560.875 C1818.27240479 560.14481659 1817.54480957 559.41463318 1816.79516602 558.662323 C1814.67890081 556.5401303 1812.55886263 554.4217836 1810.4375 552.3046875 C1809.80767212 551.67288071 1809.17784424 551.04107391 1808.52893066 550.39012146 C1804.75739357 546.63782627 1800.87288539 543.07536765 1796.83032227 539.61624146 C1794.97514476 537.97805191 1793.23230167 536.26690994 1791.5 534.5 C1788.53264677 531.48586418 1785.42654708 528.70082667 1782.22265625 525.94140625 C1779.67023117 523.71195939 1777.18112486 521.41998618 1774.6875 519.125 C1770.1482504 514.98074035 1765.46541704 511.07421602 1760.68359375 507.21484375 C1758.05291443 505.04367173 1755.52057576 502.79758643 1753 500.5 C1747.82485184 495.79531985 1742.4379716 491.39563657 1737 487 C1735.76879913 485.98917233 1734.53837382 484.97739951 1733.30859375 483.96484375 C1725.45586557 477.51421459 1717.48256562 471.27988929 1709.3203125 465.2265625 C1706.1862714 462.89829256 1703.08322926 460.53349332 1699.9921875 458.1484375 C1689.97277595 450.42366838 1679.83290884 443.00939935 1669.33984375 435.94140625 C1665.54765089 433.38603135 1661.8265106 430.74682253 1658.125 428.0625 C1625.96674987 404.87897602 1591.67844712 384.17521457 1557 365 C1556.12279297 364.51257324 1555.24558594 364.02514648 1554.34179688 363.52294922 C1506.47184747 336.95707611 1457.08590739 313.68694804 1406 294 C1405.26624146 293.71703064 1404.53248291 293.43406128 1403.77648926 293.14251709 C1317.25863425 259.85747235 1227.09280964 236.76603291 1075.5 217.75 C1074.65174652 217.67286774 1073.80349304 217.59573547 1072.92953491 217.51626587 C1039.58036382 214.52672776 1006.18119892 213.69473319 972.71593545 213.72052841 C967.50847718 213.72227154 962.30103705 213.71230404 957.09358692 213.70397437 C948.012551 213.69098883 938.93153351 213.68512492 929.85048866 213.68421364 C916.34777876 213.68282493 902.84509588 213.66996624 889.34239513 213.6549259 C866.6173745 213.62992956 843.89235861 213.61396999 821.16732788 213.60334396 C798.69305932 213.59280706 776.21879949 213.57814401 753.74453735 213.55806351 C753.04410045 213.55743952 752.34366354 213.55681554 751.62200127 213.55617265 C745.22369083 213.55047056 738.82538044 213.54471837 732.42707009 213.53890612 C716.52838148 213.52446429 700.62969235 213.51064996 684.73100281 213.49726295 C684.0073667 213.49665313 683.28373059 213.49604331 682.53816611 213.49541502 C647.41949026 213.4658747 612.30081033 213.44356785 577.18212891 213.421875 C565.00978593 213.41435209 552.83744297 213.40679701 540.6651001 213.39910889 C539.91007147 213.39863204 539.15504285 213.39815519 538.37713457 213.39766389 C503.21446344 213.3754123 468.05179689 213.34798991 432.88913053 213.31925117 C430.60364402 213.31738332 428.31815751 213.31551768 426.032671 213.3136525 C410.88541161 213.30128729 395.73815228 213.28883335 380.59089301 213.27632002 C350.45693698 213.25142678 320.32298054 213.22705459 290.1890238 213.20304088 C288.75427753 213.20189753 287.31953126 213.20075382 285.88478499 213.19960973 C241.73048328 213.16440271 197.5761803 213.13154558 153.421875 213.10116577 C152.18951701 213.10031694 150.95715902 213.09946811 149.68745685 213.09859355 C99.79163887 213.06426195 49.89581923 213.03244716 0 213 C0 142.71 0 72.42 0 0 Z " fill="#1FB8EA" transform="translate(0,0)"/>
<path d="M0 0 C0.69808892 -0.00292886 1.39617784 -0.00585773 2.11542096 -0.00887535 C4.48299495 -0.0163228 6.85031596 -0.00937202 9.21788913 -0.0026266 C10.92848051 -0.00501372 12.63907085 -0.00827713 14.34965906 -0.0123432 C19.0901992 -0.02102564 23.83066094 -0.01711101 28.57120244 -0.01128747 C33.71417931 -0.00714047 38.85714124 -0.01450596 44.00011456 -0.02043998 C53.02827421 -0.02923322 62.05641118 -0.03050305 71.08457404 -0.02693671 C84.5117721 -0.02164665 97.93894808 -0.02770836 111.36614374 -0.03601964 C136.05269138 -0.05087859 160.73922718 -0.05310498 185.42577741 -0.05069926 C188.92815908 -0.0503608 192.43054075 -0.05003871 195.93292242 -0.04973358 C196.62862455 -0.04967254 197.32432668 -0.04961149 198.04111069 -0.0495486 C213.45605476 -0.04827695 228.87099744 -0.05087789 244.28594109 -0.05425965 C247.80574432 -0.05503042 251.32554757 -0.05577514 254.84535081 -0.05652466 C256.25807398 -0.05682635 257.67079715 -0.05712824 259.08352032 -0.0574303 C259.78379775 -0.05757998 260.48407518 -0.05772966 261.20557313 -0.05788388 C262.62206676 -0.05818741 264.03856038 -0.05849209 265.45505401 -0.05879792 C305.67722548 -0.06747728 345.89939573 -0.07211117 386.12156802 -0.06785029 C387.23967947 -0.06773321 387.23967947 -0.06773321 388.38037902 -0.06761376 C396.69225583 -0.06674097 405.00413263 -0.06581171 413.31600942 -0.06486312 C414.06642704 -0.06477761 414.81684466 -0.0646921 415.59000221 -0.064604 C421.82420817 -0.06389334 421.82420817 -0.06389334 424.69424653 -0.06356178 C472.58790167 -0.05803824 520.48153748 -0.06553025 568.37518913 -0.08433264 C580.42013989 -0.08905548 592.46509066 -0.09373629 604.51004153 -0.09816951 C605.25185432 -0.09844283 605.9936671 -0.09871615 606.75795906 -0.09899775 C629.66371878 -0.10738439 652.5694769 -0.11205022 675.47523814 -0.11287707 C676.19568075 -0.11290344 676.91612335 -0.1129298 677.65839754 -0.11295697 C693.48369746 -0.11349808 709.30899725 -0.11312458 725.13429713 -0.11191725 C730.79929393 -0.11149169 736.46429073 -0.11112654 742.12928753 -0.11078781 C743.53846531 -0.11070251 744.9476431 -0.11061357 746.35682088 -0.11052099 C768.71995239 -0.10907809 791.08307069 -0.11616113 813.44619904 -0.12752496 C836.65263576 -0.13924063 859.85904661 -0.13966739 883.06548562 -0.12768153 C896.41078489 -0.12109581 909.75602237 -0.12258346 923.10131657 -0.13627005 C932.05683871 -0.14460487 941.01231529 -0.14170186 949.96783384 -0.13029478 C955.04426801 -0.12412552 960.12058304 -0.12220413 965.19700965 -0.13415811 C1057.78126855 -0.33709145 1150.29457954 12.49765273 1263.32953483 46.251849 C1264.12281181 46.50968164 1264.91608878 46.76751428 1265.73340446 47.03316003 C1310.8536529 61.70674699 1354.38929048 79.71121391 1396.97748405 100.60731775 C1399.10765334 101.65238842 1401.23932358 102.69440948 1403.37299186 103.73231775 C1416.70918712 110.21982816 1429.66474074 117.23709653 1442.51556998 124.63759118 C1445.26223485 126.21324172 1448.01840978 127.77062178 1450.77875358 129.3221615 C1468.9361208 139.54816958 1486.29754481 150.84128983 1503.64203483 162.376849 C1504.41153465 162.88800256 1505.18103446 163.39915612 1505.97385246 163.92579919 C1515.89355733 170.52157059 1525.68888025 177.25431706 1535.32953483 184.251849 C1536.20134391 184.88348962 1537.07315299 185.51513025 1537.97138053 186.1659115 C1548.25933 193.65035006 1558.4128075 201.28177908 1568.32953483 209.251849 C1568.96987663 209.7660238 1569.61021842 210.28019861 1570.26996452 210.80995446 C1578.84863036 217.7114476 1587.33617684 224.71225715 1595.70551139 231.86610681 C1597.39667704 233.30913991 1599.09328102 234.74559717 1600.79047233 236.1815365 C1607.78162453 242.11348178 1614.60108817 248.19394469 1621.30609733 254.4471615 C1623.98610113 256.94455305 1626.71317905 259.38431437 1629.45453483 261.814349 C1633.07592442 265.05361144 1636.54068889 268.42139223 1639.95453483 271.876849 C1643.01678483 274.97345805 1646.08218998 277.98399877 1649.39203483 280.814349 C1656.28165063 286.71570024 1662.53163559 293.23303073 1668.41937858 300.12294275 C1670.79142997 302.76664011 1673.30235012 305.25825802 1675.82953483 307.751849 C1679.5336412 311.41176253 1683.08241253 315.14128697 1686.46234733 319.1034115 C1688.35740399 321.28391602 1690.30905575 323.40567431 1692.27435905 325.52284509 C1697.01335122 330.63073115 1701.52210562 335.85190127 1705.89203483 341.283099 C1708.75879931 344.77467112 1711.72737639 348.16702882 1714.70453483 351.564349 C1720.38313211 358.06796404 1725.78236355 364.74598774 1731.04730827 371.58729821 C1732.27357729 373.17920648 1733.50839003 374.76452242 1734.74359733 376.34950525 C1767.51297282 418.5654271 1796.77178039 463.3251197 1822.32953483 510.251849 C1823.15856315 511.766578 1823.15856315 511.766578 1824.00433952 513.31190759 C1862.64212954 584.03712614 1892.25761011 660.62261041 1938.32953483 906.251849 C1938.39012077 906.97223352 1938.4507067 907.69261804 1938.51312858 908.43483239 C1942.32998544 954.05952491 1942.18499695 1001.38359276 1938.50989372 1047.01216394 C1938.32005827 1049.36952835 1938.13759238 1051.72740761 1937.95502311 1054.08534509 C1930.90544537 1143.53087982 1911.98824768 1232.29657217 1815.83392936 1456.65321618 C1814.33056478 1459.25006989 1812.85535202 1461.86099055 1811.38812858 1464.4784115 C1800.85107491 1483.2345425 1789.453801 1501.4810686 1777.32953483 1519.251849 C1776.90785026 1519.87398278 1776.48616569 1520.49611657 1776.0517028 1521.1371029 C1765.88552175 1536.13250203 1755.29764162 1550.83265616 1744.32953483 1565.251849 C1743.56512077 1566.26118493 1742.8007067 1567.27052087 1742.01312858 1568.31044275 C1732.30846946 1581.06699284 1722.12864158 1593.44516363 1711.71527702 1605.62782556 C1710.27224391 1607.3189912 1708.83578666 1609.01559519 1707.39984733 1610.7127865 C1701.55670554 1617.59927847 1695.57805378 1624.32496463 1689.41156608 1630.923724 C1686.98591822 1633.52132275 1684.62313818 1636.16987561 1682.26215202 1638.82631189 C1677.44500038 1644.18151291 1672.42393765 1649.30213423 1667.32562858 1654.38856775 C1666.40290656 1655.31224649 1665.48018455 1656.23592523 1664.52950126 1657.18759423 C1662.59409966 1659.12445476 1660.65694103 1661.05953489 1658.71845084 1662.99330407 C1656.25543554 1665.45060709 1653.79696112 1667.91239659 1651.33978778 1670.3755396 C1648.96251165 1672.7573301 1646.58139819 1675.1352692 1644.20062858 1677.51356775 C1643.32957984 1678.38664071 1642.45853111 1679.25971368 1641.56108695 1680.1592434 C1637.18173408 1684.52198923 1632.74582408 1688.75062649 1628.04874259 1692.77075464 C1625.29632542 1695.14195702 1622.66628903 1697.64186694 1620.01703483 1700.126849 C1615.24542588 1704.56650193 1610.34785493 1708.76844041 1605.26312858 1712.84950525 C1601.78049634 1715.70146107 1598.40183768 1718.66017901 1595.01703483 1721.626849 C1588.51347435 1727.30550328 1581.83539132 1732.70468139 1574.99408561 1737.96962243 C1573.40217735 1739.19589145 1571.81686141 1740.4307042 1570.23187858 1741.6659115 C1502.50372094 1794.23871654 1427.59864291 1838.4836461 1348.32953483 1871.251849 C1347.64643241 1871.53548303 1346.96332999 1871.81911706 1346.2595275 1872.11134607 C1265.64943111 1905.54868036 1180.52277695 1928.49730044 1005.32562858 1947.283099 C1004.33490096 1947.32592696 1003.34417335 1947.36875493 1002.32342368 1947.41288072 C977.73211265 1948.45279785 953.13476547 1948.77907345 928.52435905 1948.99476892 C922.20218277 1949.0508382 915.88044874 1949.12850869 909.55856544 1949.21071607 C904.63121076 1949.27159762 899.70379652 1949.31888245 894.77625877 1949.36217576 C892.43975456 1949.38484877 890.10329217 1949.41239144 887.76690513 1949.44497377 C884.54911397 1949.48839308 881.33172689 1949.51287526 878.11371452 1949.53236657 C877.16040748 1949.54936105 876.20710044 1949.56635553 875.22490531 1949.58386499 C874.35473274 1949.58526483 873.48456016 1949.58666467 872.58801872 1949.58810693 C871.8332764 1949.59564902 871.07853408 1949.6031911 870.30092078 1949.61096174 C867.70272685 1949.13766804 866.85048235 1948.39705641 865.32953483 1946.251849 C864.95480472 1944.09457952 864.95480472 1944.09457952 864.95531303 1941.54352075 C864.94829871 1940.57517297 864.9412844 1939.60682519 864.93405753 1938.60913354 C864.94170127 1937.54787759 864.94934501 1936.48662164 864.95722038 1935.39320642 C864.95356971 1934.27408868 864.94991904 1933.15497094 864.94615775 1932.00194055 C864.93802647 1928.28691371 864.95169357 1924.57231988 864.96625358 1920.85731775 C864.96677228 1918.27197534 864.96625421 1915.68663254 864.96474296 1913.10129052 C864.96483282 1907.66972294 864.97494485 1902.23831383 864.99335319 1896.80678064 C865.01440495 1890.56023925 865.01805621 1884.31388188 865.01179123 1878.06731224 C865.0060536 1872.0343833 865.01190808 1866.00153483 865.02296478 1859.96860963 C865.02679285 1857.4151747 865.027975 1854.86173428 865.02637893 1852.30829698 C865.02305354 1820.45575286 865.02305354 1820.45575286 869.89203483 1806.314349 C870.27947868 1805.1847677 870.27947868 1805.1847677 870.67474967 1804.03236657 C878.01500796 1783.72374863 892.98455646 1766.80462482 912.35297233 1757.18544275 C926.54981344 1750.53003938 940.49621862 1748.15694962 956.08734733 1748.00575525 C958.41303597 1747.97447121 960.73871942 1747.94279973 963.06439811 1747.91078454 C964.87523887 1747.88774759 964.87523887 1747.88774759 966.72266227 1747.86424524 C987.65118991 1747.58442463 1008.48078966 1747.20264165 1029.32953483 1745.251849 C1030.70207714 1745.12829561 1032.0746365 1745.00493142 1033.44721061 1744.88173181 C1115.10320638 1737.44539253 1196.70951436 1717.50319987 1303.3744567 1668.69569665 C1306.22495039 1667.30294883 1309.08164823 1665.92361259 1311.93890983 1664.54481775 C1324.68471556 1658.33998146 1336.93503496 1651.43648048 1349.10126334 1644.16615564 C1351.46406362 1642.76505778 1353.83276962 1641.37986537 1356.21210319 1640.00746423 C1366.82987338 1633.8645048 1377.08755082 1627.28074755 1387.26703483 1620.439349 C1388.44734275 1619.64890191 1388.44734275 1619.64890191 1389.65149528 1618.8424862 C1411.33592181 1604.31780944 1432.29356345 1588.99789016 1452.32953483 1572.251849 C1453.10007194 1571.60868737 1453.10007194 1571.60868737 1453.88617545 1570.95253259 C1460.302692 1565.58830953 1466.63743171 1560.15416208 1472.81781608 1554.517474 C1474.92133037 1552.62005831 1477.0446484 1550.75244735 1479.18109733 1548.892474 C1490.33782343 1539.14445822 1500.9069702 1528.77406056 1511.39203483 1518.314349 C1511.88462791 1517.82434411 1512.37722099 1517.33433923 1512.88474113 1516.82948571 C1518.02529111 1511.71028006 1523.06645469 1506.54869938 1527.78925163 1501.03724939 C1530.1818879 1498.26385438 1532.69910697 1495.61042847 1535.20453483 1492.939349 C1539.66332963 1488.14669985 1543.89074274 1483.22995071 1547.98969108 1478.12294275 C1550.18813273 1475.42535575 1552.44021564 1472.78860596 1554.72015983 1470.16029626 C1560.40537397 1463.60561045 1565.82233033 1456.9102544 1571.03461295 1449.97206384 C1572.39101594 1448.17017556 1573.75815506 1446.37678198 1575.12640983 1444.58388025 C1601.2348807 1410.24257606 1624.54611547 1373.58902876 1644.32953483 1335.251849 C1644.66124686 1334.61033899 1644.9929589 1333.96882898 1645.33472282 1333.30787927 C1682.85387417 1260.66025514 1708.56369618 1182.66819327 1730.53265983 1001.689349 C1730.53963968 1000.13929481 1730.54668063 998.5892409 1730.55377799 997.03918725 C1730.57306182 992.1100709 1730.57795433 987.18099897 1730.57953483 982.251849 C1730.58012397 981.41252454 1730.58071311 980.57320009 1730.58132011 979.70844156 C1730.59365466 954.82039913 1730.29270109 930.11033639 1727.55737907 905.34633142 C1727.32424426 903.20321487 1727.10592146 901.05902824 1726.89154655 898.91395837 C1719.34223904 823.74815474 1699.67942869 749.43915389 1608.32953483 564.251849 C1607.70450065 563.28940271 1607.70450065 563.28940271 1607.06683952 562.30751306 C1604.20469795 557.92104508 1601.28430314 553.57638437 1598.32953483 549.251849 C1597.82228873 548.5088656 1597.31504264 547.7658822 1596.79242545 547.00038415 C1584.24595938 528.69408583 1570.84809734 511.07680389 1556.72992545 493.95643884 C1555.43608401 492.38154328 1554.15562577 490.79567836 1552.87640983 489.20888025 C1548.31939255 483.56040953 1543.57376472 478.14102298 1538.66156608 472.798724 C1536.70548231 470.66243151 1534.78765786 468.50404242 1532.89203483 466.314349 C1523.61269507 455.67521647 1513.83386666 445.59674814 1503.84003288 435.63197595 C1501.6315882 433.4289279 1499.42858932 431.22053431 1497.2260192 429.01161462 C1495.79860559 427.58486134 1494.37088206 426.15841805 1492.94281608 424.73231775 C1492.29677924 424.08425668 1491.65074241 423.43619561 1490.9851287 422.76849633 C1487.14368565 418.94644059 1483.19088895 415.30687712 1479.0853942 411.76959497 C1476.68065024 409.69096013 1474.35169981 407.53360016 1472.01703483 405.376849 C1467.52454845 401.27984972 1462.910462 397.39064474 1458.17719108 393.57606775 C1455.73075785 391.57932183 1453.33406203 389.53685036 1450.94769889 387.46913415 C1442.58702127 380.25522869 1433.75585187 373.69814199 1424.87738639 367.13954431 C1422.4648684 365.35211722 1420.06367978 363.5505977 1417.66547233 361.7440365 C1392.79332686 343.08727578 1366.4077278 326.50571682 1339.32953483 311.251849 C1338.1002526 310.55889734 1338.1002526 310.55889734 1336.84613639 309.85194665 C1297.94904193 288.0405617 1257.42795407 269.93894924 1215.32953483 255.251849 C1214.29657279 254.89120355 1214.29657279 254.89120355 1213.24274284 254.52327234 C1135.73288764 227.57436045 1053.13372128 213.60118509 952.16625663 213.12338144 C948.17910761 213.12595799 944.19196225 213.12264279 940.20481378 213.12013811 C933.24305221 213.11655392 926.28129842 213.11661886 919.31953651 213.11918527 C908.96786598 213.1229909 898.61620193 213.12102222 888.26453144 213.11797696 C869.77591202 213.11272971 851.28729607 213.11315989 832.79867632 213.11605587 C816.63355217 213.11857545 800.46842928 213.11922623 784.30330497 213.11803323 C783.22936348 213.11795685 782.155422 213.11788046 781.04893683 213.11780176 C776.68927988 213.11749041 772.32962294 213.11717201 767.96996599 213.116842 C727.13404087 213.11378764 686.29811795 213.11655003 645.46219317 213.12193889 C609.16634494 213.12669215 572.87050022 213.12625252 536.57465202 213.1214779 C495.77524685 213.11612876 454.97584362 213.11399615 414.17643815 213.11709017 C409.83235421 213.11741089 405.48827026 213.11772372 401.14418632 213.11803323 C400.07459148 213.11811231 399.00499664 213.11819139 397.90298983 213.11827286 C381.72971585 213.11941179 365.55644326 213.11807751 349.38316947 213.11555368 C331.01792758 213.11270204 312.65268968 213.11339331 294.28744829 213.11883442 C284.00066316 213.12178127 273.7138867 213.12194714 263.4271018 213.11818825 C256.56982897 213.1159579 249.71256314 213.11731941 242.85529136 213.12169302 C238.93998586 213.1240879 235.02469765 213.12485205 231.10939264 213.12128703 C226.90685689 213.11749915 222.70436426 213.12132313 218.50182945 213.12600785 C217.26663058 213.12366669 216.03143172 213.12132552 214.75880259 213.11891341 C213.65062918 213.12141693 212.54245577 213.12392045 211.40070134 213.12649983 C209.95683398 213.12660147 209.95683398 213.12660147 208.48379758 213.12670516 C206.34853958 213.01120788 206.34853958 213.01120788 205.32953483 214.251849 C205.23083713 216.17442649 205.20395235 218.10069533 205.20365099 220.02580451 C205.20102631 221.2921356 205.19840164 222.55846668 205.19569743 223.86317143 C205.19783713 225.2906592 205.20006682 226.71814684 205.20237631 228.14563435 C205.20118689 229.65324615 205.19955861 231.16085765 205.19752836 232.66846854 C205.19318309 236.85691636 205.19514799 241.04534212 205.19804191 245.23379033 C205.20009603 249.79025521 205.19637162 254.34671581 205.19336039 258.90317965 C205.18886059 266.9350081 205.18811284 274.96683033 205.18973316 282.99865977 C205.1921349 295.02266149 205.18876777 307.04665677 205.18421624 319.07065762 C205.1766223 339.55812677 205.17372954 360.04559421 205.1733287 380.53306466 C205.17289548 401.30883637 205.17026463 422.08460609 205.16490585 442.86037713 C205.16440006 444.8251974 205.16440006 444.8251974 205.16388405 446.829711 C205.162326 452.83568863 205.16073831 458.84166626 205.15912408 464.84764389 C205.15526311 479.21572843 205.15169741 493.58381303 205.14826208 507.95189768 C205.14809681 508.6411887 205.14793153 509.33047973 205.14776124 510.04065836 C205.14245334 532.22657041 205.13841858 554.41248248 205.13526398 576.59839493 C205.13516053 577.32439913 205.13505708 578.05040332 205.13495049 578.79840765 C205.13390134 586.17355296 205.13287194 593.54869828 205.13185154 600.9238436 C205.12470333 652.58818415 205.11457699 704.25252253 205.09929115 755.91686136 C205.09907123 756.66059101 205.09885132 757.40432067 205.09862474 758.17058759 C205.09303221 777.06620198 205.08725398 795.96181632 205.08141179 814.85743063 C205.07620487 831.70504156 205.07111814 848.55265252 205.06604952 865.40026349 C205.06570505 866.5451473 205.06570505 866.5451473 205.06535363 867.71316008 C205.06256115 876.99583596 205.05977441 886.27851185 205.05699247 895.56118774 C205.05559552 900.22219295 205.05419648 904.88319816 205.05279582 909.54420337 C205.03101395 982.03776258 205.01132186 1054.53132229 204.9928817 1127.02488242 C204.99185073 1131.07745011 204.99081652 1135.1300178 204.98978147 1139.18258549 C204.97044406 1214.91270409 204.95322868 1290.64282267 204.94080192 1366.37294275 C204.94053428 1368.00094007 204.94026661 1369.6289374 204.93999891 1371.25693473 C204.93706079 1389.13649158 204.93416901 1407.01604843 204.93129431 1424.89560528 C204.93116515 1425.69878368 204.93103599 1426.50196208 204.93090291 1427.32947921 C204.92972974 1434.62552408 204.92855672 1441.92156894 204.92738972 1449.2176138 C204.91542095 1524.03889807 204.90156569 1598.86018055 204.87775832 1673.68146211 C204.8773921 1674.83489068 204.8773921 1674.83489068 204.87701848 1676.01162083 C204.86629661 1709.77897444 204.8548762 1743.54632777 204.84262703 1777.31368086 C204.83770448 1790.89757458 204.83290952 1804.48146833 204.82819319 1818.06536212 C204.82741056 1820.31770726 204.82662459 1822.57005239 204.82583856 1824.82239753 C204.80915412 1872.75727806 204.80252551 1920.69215376 204.80123522 1968.62703698 C204.80032961 2001.84374444 204.79793719 2035.06044861 204.78545386 2068.27715403 C204.78519589 2068.96563506 204.78493793 2069.6541161 204.78467214 2070.36346019 C204.77901733 2085.38067589 204.77256072 2100.39789113 204.76531978 2115.41510614 C204.76244607 2121.40357696 204.75968806 2127.39204784 204.75696594 2133.38051873 C204.75636887 2134.6859448 204.75577181 2135.99137087 204.75515666 2137.3363553 C204.74595893 2158.06124483 204.74689741 2178.78612124 204.75200662 2199.51101166 C204.75681895 2219.85770934 204.75107977 2240.20438075 204.73388655 2260.551072 C204.72411522 2272.50073755 204.7226914 2284.45033606 204.73324879 2296.40000134 C204.73943634 2304.31692667 204.73492984 2312.23379726 204.72139517 2320.15071338 C204.71401147 2324.65102828 204.71147474 2329.15120764 204.72202682 2333.65151929 C204.73149646 2337.72647552 204.72742261 2341.80117434 204.71207644 2345.87611063 C204.70899164 2347.34533668 204.711024 2348.81458381 204.71856996 2350.28379373 C204.72803311 2352.26504647 204.71746004 2354.24636534 204.70570634 2356.22760581 C204.70547828 2357.3272109 204.70525022 2358.42681598 204.70501525 2359.55974244 C204.32953483 2362.251849 204.32953483 2362.251849 203.03177223 2364.10494356 C200.05142425 2366.11299326 196.55849791 2365.6581136 193.08574516 2365.6260708 C192.23521412 2365.6300452 191.38468309 2365.63401961 190.50837839 2365.63811445 C187.64773311 2365.6477677 184.78757864 2365.63590115 181.92694694 2365.62416345 C179.88051256 2365.6265904 177.83407936 2365.63030877 175.78764945 2365.63522607 C170.22169161 2365.64465137 164.6559091 2365.63519616 159.08996493 2365.62189394 C153.2746033 2365.61060127 147.45925058 2365.61468522 141.64388114 2365.61664087 C131.8778556 2365.61752446 122.11189938 2365.60642911 112.34589225 2365.58803064 C101.04133192 2365.56685611 89.73687314 2365.56335401 78.43229699 2365.5695926 C67.57362802 2365.57527917 56.71499496 2365.56964932 45.85633117 2365.55841905 C41.22756442 2365.55376429 36.59881957 2365.55290298 31.97005111 2365.55500489 C26.52411495 2365.55688292 21.07828275 2365.54882145 15.63237029 2365.5329445 C13.62880348 2365.52868738 11.62522614 2365.52786062 9.62165672 2365.5306347 C6.89643578 2365.5338366 4.17152943 2365.52482537 1.44634086 2365.51254541 C0.24417305 2365.51821439 0.24417305 2365.51821439 -0.98228097 2365.5239979 C-6.44213611 2365.48017806 -6.44213611 2365.48017806 -8.67046517 2363.251849 C-8.92058334 2360.45497322 -8.92058334 2360.45497322 -8.92075284 2356.79241464 C-8.92351368 2356.11674724 -8.92627452 2355.44107985 -8.92911902 2354.74493768 C-8.93599946 2352.45218618 -8.9284749 2350.1596994 -8.9211635 2347.86695224 C-8.92314409 2346.20851603 -8.92600202 2344.55008068 -8.92966239 2342.89164733 C-8.93723445 2338.28836356 -8.93219693 2333.68516332 -8.92528249 2329.08188162 C-8.9199466 2324.07258457 -8.9261708 2319.06330018 -8.93095618 2314.05400443 C-8.93776883 2305.22536111 -8.93706155 2296.39674243 -8.9315891 2287.56809855 C-8.92343344 2274.35126829 -8.92674175 2261.13445819 -8.93235438 2247.9176275 C-8.94157676 2225.39741719 -8.94125709 2202.87721715 -8.93579262 2180.35700685 C-8.93028128 2157.52080683 -8.92910598 2134.68461271 -8.9332673 2111.84841233 C-8.93339632 2111.12906772 -8.93352535 2110.40972311 -8.93365829 2109.66858017 C-8.93484131 2103.07656093 -8.93606911 2096.48454169 -8.93735071 2089.89252246 C-8.94055972 2073.36001789 -8.9430714 2056.82751324 -8.94511145 2040.29500848 C-8.94520526 2039.53730363 -8.94529906 2038.77959878 -8.9453957 2037.99893318 C-8.94995702 2000.61727027 -8.9468793 1963.2356084 -8.94305581 1925.85394555 C-8.94288854 1924.21573416 -8.94272127 1922.57752277 -8.94255402 1920.93931138 C-8.94247111 1920.12741294 -8.94238819 1919.3155145 -8.94230277 1918.47901307 C-8.94120979 1907.77278774 -8.94013658 1897.06656241 -8.93911618 1886.36033708 C-8.93903786 1885.5420145 -8.93895954 1884.72369193 -8.93887884 1883.8805717 C-8.93527944 1845.99164427 -8.93613224 1808.10271737 -8.93797709 1770.21378986 C-8.93817669 1766.08281608 -8.93836768 1761.9518423 -8.93855964 1757.82086851 C-8.9391408 1745.37020146 -8.93973468 1732.9195344 -8.94035484 1720.46886735 C-8.94224408 1682.49951711 -8.94344443 1644.53016687 -8.94405144 1606.56081659 C-8.94406518 1605.71533124 -8.94407892 1604.8698459 -8.94409307 1603.99873978 C-8.94497082 1549.22672244 -8.94276769 1494.45470569 -8.93835229 1439.68268853 C-8.93828205 1438.80803629 -8.93821181 1437.93338406 -8.93813945 1437.0322272 C-8.93578662 1407.73394048 -8.93327455 1378.43565377 -8.93074619 1349.13736706 C-8.92310504 1260.53269493 -8.91891799 1171.92802492 -8.93097685 1013.69344057 C-8.93350319 984.40263021 -8.93600017 955.11181984 -8.93835229 925.82100946 C-8.93842278 924.9466051 -8.93849327 924.07220074 -8.93856589 923.17129928 C-8.94297518 868.42849324 -8.94494087 813.68568762 -8.94405144 758.94288141 C-8.94403793 758.09767362 -8.94402442 757.25246584 -8.9440105 756.38164571 C-8.94339711 718.43352642 -8.94212062 680.48540718 -8.94023044 642.53728794 C-8.93961132 630.09204339 -8.93902265 617.64679884 -8.93844434 605.20155429 C-8.93825236 601.07296103 -8.93805765 596.94436776 -8.93785662 592.8157745 C-8.93601733 554.9249697 -8.93548963 517.03416562 -8.93911618 479.14336091 C-8.93919412 478.32555509 -8.93927207 477.50774926 -8.93935237 476.66516144 C-8.94037603 465.96490316 -8.9414613 455.26464488 -8.94255402 444.56438661 C-8.94263684 443.75312519 -8.94271967 442.94186378 -8.94280501 442.10601869 C-8.94297213 440.46928794 -8.94313939 438.8325572 -8.9433068 437.19582645 C-8.94711495 399.8667804 -8.94973273 362.5377356 -8.94511145 325.20868951 C-8.94497139 324.07362194 -8.94497139 324.07362194 -8.9448285 322.9156237 C-8.94276866 306.41053532 -8.94012977 289.90544708 -8.93692089 273.40035888 C-8.93564902 266.81866782 -8.93444784 260.23697674 -8.9332673 253.65528566 C-8.93313646 252.93731484 -8.93300563 252.21934403 -8.93287084 251.47961653 C-8.9287473 228.6704894 -8.93076627 205.86136835 -8.93630084 183.05224167 C-8.94186849 159.99212604 -8.94056979 136.93202103 -8.93077713 113.87190577 C-8.92541273 100.73627775 -8.92559817 87.6006772 -8.93374033 74.46505045 C-8.93859371 65.76406419 -8.93631868 57.06309953 -8.92800662 48.36211591 C-8.92348656 43.41507155 -8.92220886 38.46808227 -8.92963965 33.52104019 C-8.93630834 29.04313371 -8.93397352 24.56533077 -8.92409024 20.08743105 C-8.92216034 18.47144324 -8.923655 16.85544719 -8.92880824 15.23946644 C-8.93527468 13.06327611 -8.92964489 10.88745679 -8.92075284 8.71128336 C-8.92066894 6.89831686 -8.92066894 6.89831686 -8.92058334 5.04872478 C-8.40582354 -0.70743127 -4.89892955 0.00140855 0 0 Z " fill="#1FB8EA" transform="translate(8.670465171337128,433.7481510043144)"/>
<path d="M0 0 C65.08901135 -0.06039235 65.08901135 -0.06039235 85.24543762 -0.07695007 C85.96429103 -0.07754207 86.68314444 -0.07813408 87.42378129 -0.07874402 C111.65387211 -0.09864415 135.88396379 -0.11438569 160.11405945 -0.12702942 C160.90572916 -0.12744359 161.69739888 -0.12785776 162.51305858 -0.12828448 C179.72393748 -0.13726612 196.93481663 -0.14557625 214.14569618 -0.15319599 C222.58760936 -0.15693754 231.02952247 -0.16082727 239.47143555 -0.16479492 C240.3114451 -0.1651872 241.15145466 -0.16557948 242.01691905 -0.16598364 C269.17580918 -0.17873591 296.33468041 -0.2012459 323.49355912 -0.22889166 C351.43532886 -0.25728226 379.37708816 -0.27567775 407.31887207 -0.28174497 C411.27806895 -0.28260926 415.23726579 -0.28358616 419.19646263 -0.28463173 C419.97558285 -0.284834 420.75470306 -0.28503627 421.55743298 -0.28524467 C434.02889657 -0.28877064 446.50032761 -0.30263246 458.971778 -0.3204961 C471.55231984 -0.33829046 484.13282988 -0.34487116 496.71338383 -0.34050413 C503.51252806 -0.33844277 510.31157253 -0.34136052 517.11070061 -0.35761642 C608.44062638 -0.56484659 694.30540798 15.31759313 867 112 C867.89428711 112.68376709 867.89428711 112.68376709 868.80664062 113.38134766 C886.2269739 126.72509247 902.60742283 141.36733064 918 157 C920.87197467 159.88660272 923.76414736 162.75108087 926.671875 165.6015625 C933.49437296 172.31661299 940.09316985 178.98089985 946.01171875 186.515625 C947.9949186 188.99365074 950.08751433 191.30276314 952.25 193.625 C958.66697318 200.68700688 964.28813618 208.36767176 970 216 C970.87760986 217.16426514 970.87760986 217.16426514 971.77294922 218.35205078 C980.00262035 229.27768746 987.81244327 240.36067506 995 252 C995.56831543 252.92022949 996.13663086 253.84045898 996.72216797 254.78857422 C1041.54041473 327.72994312 1068.76161049 407.29674645 1079.1875 542.25 C1079.18689575 543.35527039 1079.1862915 544.46054077 1079.18566895 545.5993042 C1079.16016994 562.81331058 1078.7900573 579.86518738 1077 597 C1076.87641113 598.2257373 1076.75282227 599.45147461 1076.62548828 600.71435547 C1069.79856444 666.39350036 1050.57870416 729.06579349 1021 788 C1020.53706543 788.92312988 1020.07413086 789.84625977 1019.59716797 790.79736328 C998.42687962 832.69672517 970.31141978 871.12749525 938.41064453 905.47607422 C936.93239232 907.07303688 935.46345363 908.67818258 933.99609375 910.28515625 C926.10724669 918.91121985 918.14701153 927.42574014 909.25 935.03125 C906.91111886 937.077771 904.63930093 939.18395043 902.36865234 941.30541992 C896.11578775 947.14330352 889.7064464 952.68268036 883 958 C881.95698264 958.83587684 880.91401588 959.67181684 879.87109375 960.5078125 C827.48515996 1002.2808127 768.41054576 1034.45985214 705 1056 C703.40816895 1056.54817383 703.40816895 1056.54817383 701.78417969 1057.10742188 C651.67677823 1074.26077141 598.84235944 1083.94588521 546 1087 C545.32373566 1087.04303253 544.64747131 1087.08606506 543.95071411 1087.13040161 C523.17840019 1088.41640464 502.35573152 1088.11615719 481.55438232 1088.06866455 C476.51868107 1088.05828886 471.48297457 1088.05383693 466.44726562 1088.04882812 C456.6314969 1088.0382211 446.8157511 1088.02123756 437 1088 C436.92952764 1072.16057646 436.87682646 1056.32119612 436.84456348 1040.48165417 C436.82917671 1033.12500414 436.80824658 1025.76845223 436.77368164 1018.41186523 C436.74352555 1011.99049868 436.72436573 1005.56920326 436.71773452 999.14776784 C436.71386597 995.75614397 436.70495186 992.36472339 436.68280983 988.97316551 C436.51015068 959.19607038 439.11888977 932.66191966 459 909 C459.58265625 908.27167969 460.1653125 907.54335937 460.765625 906.79296875 C475.17335675 889.50974431 496.89633653 878.96649432 519 876 C523.7065487 875.68546292 528.40945787 875.58931878 533.125 875.5 C535.80489586 875.42588638 538.48446397 875.34901181 541.1640625 875.265625 C541.83153503 875.24497986 542.49900757 875.22433472 543.18670654 875.20306396 C620.04150203 872.72114504 694.10441729 844.80462517 752 794 C753.06347656 793.08541016 753.06347656 793.08541016 754.1484375 792.15234375 C756.11639082 790.45347792 758.06147212 788.73237846 760 787 C760.9590625 786.14535156 761.918125 785.29070313 762.90625 784.41015625 C767.94145116 779.8849185 772.81751152 775.34049595 777.171875 770.140625 C779.01878257 767.97800673 780.94558165 765.90392365 782.89208984 763.83105469 C789.06320361 757.23354221 794.65887568 750.28353099 800 743 C800.46519043 742.3699707 800.93038086 741.73994141 801.40966797 741.09082031 C843.17801615 684.23674397 866.1901414 615.67637402 866.25 545.0625 C866.25067474 544.33344452 866.25134949 543.60438904 866.25204468 542.85324097 C866.14852643 471.33954559 842.5872475 396.79567386 797 341 C796.27683594 340.09765625 795.55367187 339.1953125 794.80859375 338.265625 C792.56486025 335.48805151 790.28768207 332.74146819 788 330 C787.36336426 329.2258374 787.36336426 329.2258374 786.71386719 328.43603516 C775.8572436 315.25299223 764.05664575 302.56878798 750.58203125 292.0234375 C747.77395527 289.82285753 745.08257665 287.51037361 742.375 285.1875 C698.6893826 248.84824445 644.44608687 226.3317805 588.75 216.75 C587.87770752 216.59877686 587.00541504 216.44755371 586.10668945 216.29174805 C568.2469267 213.41554182 550.42445507 212.70344454 532.366745 212.7215271 C530.05522987 212.71651192 527.74371648 212.7106326 525.4322055 212.70397437 C519.14036766 212.68830816 512.84857464 212.68475114 506.55671966 212.68332577 C500.45022733 212.67999094 494.3437603 212.6673199 488.23728084 212.6549259 C475.761771 212.62992195 463.28626541 212.61398172 450.8107357 212.60334396 C438.47194196 212.59279269 426.13316418 212.57812896 413.7943821 212.55806351 C413.02501682 212.55681464 412.25565154 212.55556577 411.46297216 212.55427906 C407.55519523 212.54791464 403.64741842 212.54147762 399.73964164 212.53501268 C372.11541721 212.48944201 344.49118758 212.45295511 316.86694336 212.421875 C290.0430424 212.39167441 263.21915198 212.35731895 236.39526367 212.31738281 C235.56733063 212.31615181 234.7393976 212.31492081 233.88637568 212.3136525 C225.57135722 212.30128484 217.25633889 212.28883318 208.94132065 212.27632002 C192.00513672 212.25083488 175.06895198 212.22591006 158.13276672 212.20132446 C157.35419797 212.20019355 156.57562922 212.19906264 155.77346747 212.19789747 C131.92642977 212.16328796 108.07938968 212.13105164 84.23234558 212.10116577 C83.55576867 212.10031694 82.87919176 212.09946811 82.18211252 212.09859355 C54.78807679 212.06426106 27.39403801 212.03244692 0 212 C0 142.04 0 72.08 0 0 Z " fill="#1FB8EA" transform="translate(437,864)"/>
</svg>
