<?xml version="1.0" encoding="UTF-8"?>
<svg version="1.1" xmlns="http://www.w3.org/2000/svg" width="4450" height="4606">
<path d="M0 0 C5.30662409 0.00232138 10.61324505 -0.00121345 15.91986849 -0.00396682 C25.24175417 -0.00800616 34.56363427 -0.00835291 43.88552051 -0.00626088 C57.84096747 -0.00314619 71.79640934 -0.00580452 85.75185593 -0.00955958 C109.53959747 -0.01578895 133.32733711 -0.01727373 157.11507933 -0.01614211 C181.21843978 -0.0150091 205.32179869 -0.01604556 229.42515891 -0.01971458 C230.96352803 -0.01994657 232.50189716 -0.02017854 234.04026628 -0.02041049 C240.24328492 -0.02135006 246.44630355 -0.02230636 252.64932219 -0.02328168 C270.13332605 -0.02602669 287.61732996 -0.02840622 305.10133391 -0.03053365 C306.30300517 -0.03067998 306.30300517 -0.03067998 307.52895263 -0.03082926 C353.066105 -0.03633165 398.60325745 -0.03663878 444.14041009 -0.03705012 C451.10030356 -0.03711337 458.06019704 -0.03717989 465.02009051 -0.03725067 C466.76460044 -0.03726836 468.50911038 -0.03728574 470.25362031 -0.03730279 C509.4249656 -0.03769076 548.59631072 -0.03987005 587.76765592 -0.04243305 C596.51312669 -0.04300461 605.25859746 -0.04355859 614.00406823 -0.04411368 C615.30624934 -0.04419636 615.30624934 -0.04419636 616.63473715 -0.04428072 C621.90446313 -0.04461522 627.17418912 -0.04494899 632.4439151 -0.04528228 C635.08381971 -0.04544936 637.72372431 -0.04561687 640.36362892 -0.04578442 C681.40831804 -0.0483862 722.45300717 -0.05061654 763.49769633 -0.05246661 C764.83911642 -0.05252717 764.83911642 -0.05252717 766.2076359 -0.05258895 C823.18751344 -0.05515176 880.16739088 -0.05605148 937.14726847 -0.05578861 C939.94874953 -0.05577586 942.75023059 -0.0557639 945.55171165 -0.0557522 C965.23265732 -0.05566986 984.91360299 -0.05556715 1004.59454866 -0.05545932 C1010.23734165 -0.05542855 1015.88013464 -0.05539849 1021.52292763 -0.05536851 C1026.22975012 -0.05534341 1030.93657261 -0.05531762 1035.6433951 -0.0552904 C1124.53121063 -0.05477905 1213.41902525 -0.05619521 1302.30684035 -0.06563781 C1303.71031654 -0.06578685 1303.71031654 -0.06578685 1305.14214579 -0.06593889 C1334.37634494 -0.06905025 1363.61054406 -0.07241674 1392.84474318 -0.07583068 C1422.84228428 -0.07933222 1452.83982539 -0.08280275 1482.83736651 -0.08609508 C1483.76106174 -0.0861966 1484.68475697 -0.08629813 1485.63644297 -0.08640273 C1543.50591977 -0.09275416 1601.37539631 -0.0966742 1659.24487345 -0.09795306 C1660.13895641 -0.09797309 1661.03303936 -0.09799312 1661.95421574 -0.09801375 C1701.22430955 -0.09888917 1740.49440336 -0.09920881 1779.76449719 -0.09892287 C1795.56393002 -0.09880859 1811.36336285 -0.09875252 1827.16279568 -0.09871955 C1829.78232212 -0.09871315 1832.40184857 -0.09870407 1835.02137501 -0.0986944 C1875.06210473 -0.098558 1915.10283362 -0.09989836 1955.14356296 -0.10573957 C1956.00623554 -0.10586525 1956.86890812 -0.10599092 1957.7577223 -0.1061204 C1971.6335827 -0.10814925 1985.50944309 -0.11029332 1999.38530348 -0.11244721 C2038.80129778 -0.11856056 2078.21729097 -0.12359742 2117.63328581 -0.12147604 C2118.43404287 -0.12143332 2119.23479992 -0.12139061 2120.05982235 -0.1213466 C2137.53504111 -0.12039296 2155.01025978 -0.11887682 2172.48547845 -0.11680989 C2179.45641629 -0.11599363 2186.42735414 -0.11524998 2193.39829199 -0.11452888 C2194.15867417 -0.11444822 2194.91905635 -0.11436757 2195.70248042 -0.11428448 C2219.76563326 -0.11176638 2243.8287799 -0.11536478 2267.89193166 -0.12254669 C2292.27032552 -0.12979581 2316.6487093 -0.13007447 2341.0271031 -0.12200793 C2354.87696866 -0.11763743 2368.72680768 -0.11867203 2382.57667102 -0.12787471 C2391.79500353 -0.13344754 2401.01331638 -0.13165997 2410.2316474 -0.12409193 C2415.4442348 -0.12001244 2420.65677026 -0.1188538 2425.86935432 -0.12684262 C2457.82299519 -0.1725786 2489.63677178 0.79426325 2521.45973342 3.87997987 C2522.32880324 3.96268128 2523.19787306 4.0453827 2524.09327834 4.13059022 C2598.42706067 11.26235493 2671.47378574 26.84272416 2742.39723342 50.12997987 C2743.4768434 50.48319306 2743.4768434 50.48319306 2744.57826369 50.84354188 C2767.55975849 58.36988193 2790.07484867 66.83258472 2812.39723342 76.12997987 C2813.05080824 76.40154908 2813.70438307 76.6731183 2814.3777632 76.95291688 C2834.45953979 85.30813633 2854.04539815 94.57512148 2873.53859084 104.21335389 C2876.35693755 105.60327675 2879.18223983 106.97890693 2882.00660842 108.35654237 C2894.8173018 114.63981922 2907.27945133 121.41539405 2919.63746779 128.54501893 C2922.30389 130.07637182 2924.98079752 131.58715513 2927.66285842 133.09091737 C2957.62259319 149.92984789 2986.59315757 168.92774233 3014.39723342 189.12997987 C3015.54192092 189.96021668 3015.54192092 189.96021668 3016.70973342 190.80722596 C3026.53633826 197.95080548 3036.22607986 205.23773965 3045.72779982 212.80771424 C3047.43599634 214.16068183 3049.15497485 215.4986992 3050.87770217 216.83310487 C3057.52021905 221.98690891 3063.99925638 227.28208105 3070.35377638 232.78769471 C3073.85907646 235.8233852 3077.40924538 238.78446511 3081.02223342 241.69247987 C3086.08252064 245.7988396 3090.86403611 250.15798312 3095.63942092 254.58701112 C3097.8006389 256.57986226 3099.98070311 258.52705772 3102.20973342 260.44247987 C3115.54904104 272.06099338 3128.02919346 284.60151984 3140.51588576 297.11826112 C3142.93378955 299.54191815 3145.35623691 301.96097682 3147.77998488 304.37878777 C3150.1340122 306.72830742 3152.4841962 309.08165607 3154.83473342 311.43466737 C3155.69212111 312.29003083 3156.54950881 313.1453943 3157.43287795 314.02667787 C3161.75070992 318.3612726 3165.93010954 322.7565824 3169.90995925 327.40459229 C3172.28383723 330.15852943 3174.78510746 332.79124798 3177.27223342 335.44247987 C3181.81071865 340.31583536 3186.09072139 345.33301964 3190.26051467 350.52841737 C3192.35605835 353.07984716 3194.53686496 355.5132476 3196.77223342 357.94247987 C3200.75406928 362.31698813 3204.41465425 366.87527061 3208.03614943 371.54648377 C3210.99768825 375.36312555 3214.01683171 379.12209704 3217.08961623 382.84970643 C3224.28515353 391.58931322 3231.0431767 400.60769473 3237.68727248 409.77158143 C3239.32282881 412.02736016 3240.96483095 414.27830572 3242.60817092 416.52841737 C3254.64132196 433.04778252 3266.52104603 449.68181217 3277.16676467 467.13583924 C3278.48241765 469.26803242 3279.82655942 471.37998304 3281.17848342 473.48935487 C3298.47329847 500.48733212 3313.7571466 528.62271603 3328.39723342 557.12997987 C3328.94105666 558.18362733 3329.4848799 559.23727479 3330.04518263 560.32285096 C3366.76996012 631.684446 3393.09633895 708.18845948 3436.01816945 954.18563958 C3436.08281603 955.22897179 3436.14746261 956.27230399 3436.21406817 957.34725233 C3437.56415758 979.62482284 3437.82604936 1001.8463146 3437.77945939 1024.1585932 C3437.77120753 1029.78406257 3437.78087728 1035.40951154 3437.78796994 1041.03497868 C3437.79803134 1050.87703414 3437.79724015 1060.71903951 3437.7889193 1070.56109592 C3437.78000792 1081.14997322 3437.77773788 1091.73882499 3437.78329194 1102.32770301 C3437.78364321 1103.00519845 3437.78399448 1103.68269389 3437.78435639 1104.38071949 C3437.78617949 1107.84139354 3437.78810607 1111.30206753 3437.79006723 1114.7627415 C3437.80407945 1139.88775537 3437.80347149 1165.01275207 3437.7952246 1190.13776757 C3437.78692155 1215.57144707 3437.78522356 1241.00511464 3437.7914366 1266.43879487 C3437.79163014 1267.24364746 3437.79182368 1268.04850005 3437.79202309 1268.87774212 C3437.79379794 1276.25471355 3437.79563968 1283.63168496 3437.79756172 1291.00865636 C3437.80237187 1309.50033182 3437.8061409 1327.99200742 3437.80920284 1346.48368325 C3437.80934354 1347.33067998 3437.80948425 1348.17767671 3437.80962921 1349.05034001 C3437.81645208 1390.71930339 3437.81186299 1432.38826463 3437.80611937 1474.05722787 C3437.80586846 1475.88069288 3437.80561757 1477.70415788 3437.80536669 1479.52762289 C3437.80518013 1480.88321342 3437.80518013 1480.88321342 3437.80498981 1482.26618961 C3437.80335008 1494.18541815 3437.80174024 1506.1046467 3437.80020993 1518.02387526 C3437.80009245 1518.93509005 3437.79997496 1519.84630485 3437.79985392 1520.78513222 C3437.79444165 1563.07932393 3437.79573863 1605.37351458 3437.7985013 1647.66770644 C3437.79880069 1652.28665548 3437.79908719 1656.90560451 3437.79937512 1661.52455355 C3437.80024695 1675.44781541 3437.80113778 1689.37107727 3437.80206792 1703.29433913 C3437.80490101 1745.74801336 3437.80670209 1788.2016876 3437.80761283 1830.65536191 C3437.80763343 1831.60048692 3437.80765404 1832.54561193 3437.80767527 1833.51937709 C3437.80899077 1894.69467325 3437.80569278 1955.86996822 3437.79906409 2017.04526402 C3437.79895873 2018.02134155 3437.79885338 2018.99741908 3437.79874483 2020.00307471 C3437.79521614 2052.69340097 3437.79144776 2085.38372721 3437.78765494 2118.07405344 C3437.77619432 2216.92017153 3437.76991311 2315.76628534 3437.78800093 2492.2982826 C3437.79179077 2524.98173481 3437.79553647 2557.66518703 3437.79906409 2590.34863927 C3437.79916982 2591.32448061 3437.79927556 2592.30032195 3437.7993845 2593.30573424 C3437.80600398 2654.45095331 3437.8089459 2715.59617154 3437.80761283 2776.74139096 C3437.80759256 2777.68618927 3437.80757229 2778.63098758 3437.80755141 2779.60441615 C3437.8066311 2822.03419549 3437.80471588 2864.46397475 3437.80188132 2906.89375401 C3437.80095274 2920.81043712 3437.80006973 2934.72712023 3437.79920217 2948.64380334 C3437.79891419 2953.25998642 3437.79862213 2957.8761695 3437.79832059 2962.49235257 C3437.79556638 3004.78503891 3437.79475736 3047.07772382 3437.80020993 3089.37040998 C3437.8003853 3090.73641801 3437.8003853 3090.73641801 3437.80056422 3092.13002215 C3437.80209941 3104.04280853 3437.80372737 3115.9555949 3437.80536669 3127.86838127 C3437.80549092 3128.77142917 3437.80561516 3129.67447707 3437.80574317 3130.60489007 C3437.80599385 3132.42676829 3437.80624475 3134.24864652 3437.80649586 3136.07052474 C3437.81221676 3177.68488386 3437.81611625 3219.29924043 3437.80920284 3260.91359963 C3437.80906278 3261.75942498 3437.80892271 3262.60525034 3437.8087784 3263.47670677 C3437.8056867 3281.93749343 3437.80172732 3300.39827981 3437.79691699 3318.85906611 C3437.79500955 3326.22356603 3437.79320767 3333.58806597 3437.7914366 3340.95256593 C3437.79114223 3342.15750562 3437.79114223 3342.15750562 3437.79084191 3343.38678754 C3437.78468615 3368.78372641 3437.78765168 3394.18065295 3437.79598691 3419.5775909 C3437.80416638 3444.62491657 3437.80307881 3469.67222298 3437.78888182 3494.71954654 C3437.78692898 3498.16667861 3437.78507953 3501.61381074 3437.78329194 3505.0609429 C3437.78293798 3505.7356615 3437.78258401 3506.41038011 3437.78221932 3507.10554473 C3437.77663815 3518.28613078 3437.78269632 3529.46669108 3437.79214615 3540.6472745 C3437.79954364 3550.38582594 3437.79582922 3560.12433463 3437.78354559 3569.86288097 C3437.77690551 3575.36228221 3437.77451991 3580.86157387 3437.78599514 3586.3609697 C3437.82884029 3608.48915304 3437.41628448 3630.50528531 3436.0142632 3652.59379883 C3435.95278512 3653.56255754 3435.89130705 3654.53131625 3435.827966 3655.52943128 C3430.27934369 3741.03314943 3413.83421879 3825.33565115 3345.39723342 4014.12997987 C3345.09688185 4014.78311158 3344.79653029 4015.4362433 3344.48707717 4016.10916688 C3331.91737942 4043.42266287 3318.43889511 4070.08162901 3303.39723342 4096.12997987 C3302.7420674 4097.27015565 3302.08690138 4098.41033143 3301.41188185 4099.58505799 C3292.48337139 4115.11299973 3283.26104309 4130.36341132 3273.30934279 4145.26474549 C3271.28231139 4148.30218682 3269.26877025 4151.34829547 3267.25660842 4154.39560487 C3260.16235401 4165.11853439 3252.99817238 4175.75920721 3245.39723342 4186.12997987 C3244.88515334 4186.83364686 3244.37307326 4187.53731385 3243.8454756 4188.26230409 C3228.28575276 4209.64217982 3211.96438429 4230.40531632 3194.7829756 4250.50595643 C3193.3399425 4252.19712207 3191.90348524 4253.89372606 3190.46754592 4255.59091737 C3184.53919056 4262.57783862 3178.46228594 4269.39315306 3172.21363967 4276.09482362 C3169.65259999 4278.84331994 3167.14499563 4281.63624616 3164.64723342 4284.44247987 C3161.39097614 4288.08078899 3158.02869548 4291.56096979 3154.51442092 4294.95029237 C3152.67697474 4296.8419805 3150.96357072 4298.77631707 3149.24488967 4300.77451112 C3145.02706618 4305.62725165 3140.51529745 4310.15862622 3135.95973342 4314.69247987 C3135.15213576 4315.50394471 3134.3445381 4316.31540955 3133.51246779 4317.15146424 C3129.17969486 4321.47725446 3124.76516953 4325.62991195 3120.12355177 4329.62192323 C3117.94271099 4331.52703616 3115.91308576 4333.5521013 3113.89723342 4335.62997987 C3110.58736643 4338.97931715 3107.18976392 4342.12923943 3103.61598342 4345.19247987 C3101.41362347 4347.11566742 3099.264827 4349.09028517 3097.12184279 4351.07919862 C3092.01496103 4355.81620457 3086.79557085 4360.3238463 3081.36598342 4364.69247987 C3077.87440697 4367.5592479 3074.48213795 4370.52791305 3071.08473342 4373.50497987 C3064.65638829 4379.11518672 3058.0584213 4384.44466069 3051.30299513 4389.65390565 C3049.24396056 4391.24869466 3047.19694452 4392.85810278 3045.15113967 4394.46982362 C3035.46224342 4402.08662017 3025.6175035 4409.43997144 3015.57350295 4416.58164002 C3013.48863944 4418.06494767 3011.40935821 4419.55578637 3009.33082717 4421.04794862 C2986.395439 4437.44659875 2962.70844325 4452.84937955 2938.39723342 4467.12997987 C2937.51841506 4467.64866639 2936.6395967 4468.16735291 2935.73414748 4468.70175721 C2860.89168712 4512.77453916 2780.89496447 4546.74602497 2641.39723342 4584.12997987 C2640.32967818 4584.3636728 2640.32967818 4584.3636728 2639.24055617 4584.6020868 C2591.71988909 4594.97997638 2543.3125007 4601.53762663 2494.78864043 4604.74700965 C2493.80952024 4604.81181233 2492.83040004 4604.87661501 2491.82160954 4604.9433814 C2470.74730331 4606.30651475 2449.73199115 4606.55856385 2428.62034155 4606.51220584 C2423.27374439 4606.50395726 2417.92716877 4606.51362265 2412.58057396 4606.52071639 C2403.22552921 4606.5307798 2393.87053716 4606.52998513 2384.51549141 4606.52166576 C2370.51065505 4606.50926818 2356.50586055 4606.51446525 2342.50102312 4606.52281368 C2318.61945108 4606.53654629 2294.73789833 4606.53621729 2270.8563246 4606.52797105 C2246.68079374 4606.51966846 2222.50527542 4606.51796964 2198.32974379 4606.52418305 C2197.56475042 4606.5243766 2196.79975705 4606.52457014 2196.01158207 4606.52476954 C2188.99995941 4606.52654438 2181.98833677 4606.52838612 2174.97671416 4606.53030818 C2157.40071107 4606.53511837 2139.82470784 4606.53888738 2122.24870436 4606.54194929 C2121.44364235 4606.54208999 2120.63858035 4606.5422307 2119.80912252 4606.54237567 C2080.2016512 4606.54919879 2040.59418213 4606.54460932 2000.98671095 4606.53886582 C1999.25342111 4606.53861491 1997.52013127 4606.53836402 1995.78684143 4606.53811314 C1994.92780613 4606.53798877 1994.06877084 4606.5378644 1993.18370417 4606.53773627 C1981.85392539 4606.53609653 1970.52414661 4606.53448669 1959.19436781 4606.53295638 C1957.89514161 4606.53278016 1957.89514161 4606.53278016 1956.56966842 4606.53260037 C1916.36814687 4606.52718824 1876.16662643 4606.52848504 1835.96510471 4606.53124775 C1831.57476665 4606.53154714 1827.18442859 4606.53183364 1822.79409053 4606.53212157 C1809.55995581 4606.53299341 1796.3258211 4606.53388423 1783.09168639 4606.53481437 C1742.739088 4606.53764747 1702.38648961 4606.53944855 1662.03389113 4606.54035928 C1660.68636085 4606.54039019 1660.68636085 4606.54039019 1659.31160775 4606.54042172 C1601.16292334 4606.54173724 1543.01424019 4606.53843915 1484.86555617 4606.53181054 C1483.47385936 4606.53165251 1483.47385936 4606.53165251 1482.05404747 4606.53149128 C1450.98064227 4606.52796258 1419.90723709 4606.52419421 1388.83383192 4606.52040139 C1294.87811827 4606.50894094 1200.92240912 4606.50265936 1033.1260135 4606.52074739 C1002.06031256 4606.52453723 970.99461163 4606.52828292 939.92891066 4606.53181054 C939.00137074 4606.53191627 938.07383082 4606.53202201 937.11818363 4606.53213095 C878.99898082 4606.53875049 820.87977888 4606.54169234 762.7605757 4606.54035928 C761.86252622 4606.54033901 760.96447674 4606.54031874 760.03921364 4606.54029786 C719.70873649 4606.53937755 679.37825943 4606.53746233 639.04778237 4606.53462777 C625.81961673 4606.53369919 612.59145108 4606.53281618 599.36328543 4606.53194862 C594.97548375 4606.53166065 590.58768206 4606.53136858 586.19988038 4606.53106705 C545.99995269 4606.52831285 505.80002651 4606.52750374 465.60009902 4606.53295638 C464.73450126 4606.5330733 463.86890351 4606.53319021 462.97707552 4606.53331067 C451.65392547 4606.53484586 440.33077544 4606.53647382 429.0076254 4606.53811314 C428.14927498 4606.53823738 427.29092456 4606.53836162 426.40656353 4606.53848962 C424.67486141 4606.5387403 422.94315929 4606.5389912 421.21145716 4606.53924231 C381.65622473 4606.5449633 342.10099499 4606.54886253 302.54576247 4606.54194929 C301.33977281 4606.5417392 301.33977281 4606.5417392 300.10941972 4606.54152486 C282.56153811 4606.53843313 265.01365681 4606.53447374 247.46577559 4606.52966344 C240.46542476 4606.52775601 233.4650739 4606.52595413 226.46472304 4606.52418305 C225.7011503 4606.52398681 224.93757756 4606.52379056 224.15086626 4606.52358836 C200.01071453 4606.51743285 175.87057578 4606.52039784 151.73042502 4606.52873337 C127.26180675 4606.53714013 102.79321214 4606.53503382 78.32459635 4606.52044781 C64.43318525 4606.51248156 50.54183262 4606.51253907 36.6504244 4606.5248926 C27.39334357 4606.53229112 18.13630771 4606.52857411 8.87923224 4606.51629204 C3.65202031 4606.50965314 -1.57507635 4606.50726343 -6.80228258 4606.51874159 C-27.91778229 4606.56176505 -48.9159881 4606.14202475 -69.99026735 4604.74700965 C-71.38413203 4604.65479254 -71.38413203 4604.65479254 -72.80615559 4604.56071245 C-150.60890352 4599.29807491 -228.32667307 4584.9648457 -302.60276658 4561.12997987 C-303.274489 4560.91553224 -303.94621141 4560.7010846 -304.63828905 4560.48013856 C-370.97090917 4539.29219929 -436.65327938 4512.25170069 -496.72337205 4476.8243158 C-499.45234683 4475.21849209 -502.19029394 4473.62944687 -504.9317003 4472.04500367 C-517.87162488 4464.56477283 -530.76562543 4457.04275189 -543.19749315 4448.73544862 C-545.5659764 4447.15453653 -547.94070303 4445.58327449 -550.31672532 4444.01372315 C-563.55984331 4435.26275013 -576.75074578 4426.45019387 -589.60276658 4417.12997987 C-590.75397996 4416.29539247 -590.75397996 4416.29539247 -591.92845018 4415.44394471 C-607.2733342 4404.28822325 -622.11408033 4392.59847354 -636.8029619 4380.5977533 C-638.37586952 4379.31501855 -639.95374942 4378.03838574 -641.53245408 4376.76279237 C-652.30070852 4368.03954767 -662.74621025 4358.92804635 -672.94261033 4349.54404237 C-675.0455883 4347.63561303 -677.16843381 4345.76296875 -679.31223924 4343.9012201 C-692.13227319 4332.69120311 -704.21220314 4320.68252669 -716.23338182 4308.62973573 C-718.6906444 4306.167046 -721.15329976 4303.70983785 -723.61643846 4301.25302674 C-725.20725445 4299.66155087 -726.79776072 4298.06976532 -728.38792283 4296.47763612 C-729.1109308 4295.75665238 -729.83393876 4295.03566865 -730.57885606 4294.29283692 C-734.5589096 4290.29456404 -738.37173665 4286.20507697 -742.04675157 4281.92410829 C-744.60440964 4278.97505768 -747.2994698 4276.15650727 -749.97776658 4273.31747987 C-754.70149768 4268.27432169 -759.17110949 4263.10307011 -763.49339158 4257.70810487 C-765.62261804 4255.10571697 -767.83726015 4252.61422485 -770.10276658 4250.12997987 C-774.80700046 4244.95451012 -779.21992145 4239.57854096 -783.60276658 4234.12997987 C-784.50487321 4233.02041203 -785.40722742 4231.91104546 -786.30979783 4230.80185487 C-794.03380747 4221.27062924 -801.41910019 4211.49957668 -808.73118455 4201.6499994 C-810.51881027 4199.2430241 -812.31238276 4196.8405826 -814.10667283 4194.43857362 C-841.35916095 4157.84126926 -865.80365406 4119.20979227 -887.60276658 4079.12997987 C-887.92976549 4078.52947816 -888.25676439 4077.92897645 -888.59367235 4077.31027772 C-925.04064218 4010.32395727 -954.06395523 3939.60441394 -974.60276658 3866.12997987 C-974.81654954 3865.36723756 -975.0303325 3864.60449525 -975.25059373 3863.81863954 C-992.13530027 3803.42456632 -1003.25956954 3741.51721057 -1008.85276658 3679.06747987 C-1008.92989885 3678.23135163 -1009.00703111 3677.3952234 -1009.08650072 3676.53375794 C-1012.32697575 3640.82849923 -1012.90782409 3604.95934303 -1012.8575839 3569.13197273 C-1012.85209903 3563.56936967 -1012.85852374 3558.00677599 -1012.8632576 3552.44417395 C-1012.86997524 3542.70519346 -1012.86943039 3532.96623545 -1012.86389051 3523.22725453 C-1012.85795557 3512.74602254 -1012.85643229 3502.26480097 -1012.86013893 3491.78356828 C-1012.86037311 3491.11366788 -1012.86060729 3490.44376747 -1012.86084857 3489.75356705 C-1012.86206392 3486.33185649 -1012.86334832 3482.91014596 -1012.86465579 3479.48843543 C-1012.87400413 3454.62837912 -1012.8735887 3429.76833052 -1012.86809404 3404.90827348 C-1012.86256101 3379.73857118 -1012.86142482 3354.56887424 -1012.86556871 3329.39917161 C-1012.86569774 3328.60302612 -1012.86582676 3327.80688063 -1012.8659597 3326.98660952 C-1012.86714291 3319.68957218 -1012.86837074 3312.39253484 -1012.86965212 3305.09549752 C-1012.87285911 3286.80326551 -1012.8753717 3268.51103345 -1012.87741287 3250.21880128 C-1012.87750667 3249.38089139 -1012.87760047 3248.5429815 -1012.87769712 3247.6796804 C-1012.88224693 3206.44638755 -1012.87918575 3165.21309566 -1012.87535722 3123.97980287 C-1012.87518995 3122.17514587 -1012.87502268 3120.37048887 -1012.87485543 3118.56583187 C-1012.87477252 3117.67142773 -1012.87468961 3116.7770236 -1012.87460418 3115.8555163 C-1012.87351104 3104.05943473 -1012.87243782 3092.26335316 -1012.87141759 3080.46727159 C-1012.87130011 3079.11459505 -1012.87130011 3079.11459505 -1012.87118025 3077.73459172 C-1012.86757291 3035.8878772 -1012.86843644 2994.04116315 -1012.87027851 2952.19444857 C-1012.8704781 2947.62508117 -1012.8706691 2943.05571378 -1012.87086106 2938.48634639 C-1012.87144227 2924.71270428 -1012.87203616 2910.93906218 -1012.87265625 2897.16542007 C-1012.87454503 2855.1672633 -1012.87574572 2813.16910652 -1012.87635286 2771.17094972 C-1012.87636659 2770.23594405 -1012.87638033 2769.30093838 -1012.87639448 2768.3375992 C-1012.87727156 2707.81223102 -1012.87507246 2647.28686338 -1012.8706537 2586.76149537 C-1012.87058346 2585.79570741 -1012.87051323 2584.82991944 -1012.87044086 2583.83486517 C-1012.86808836 2551.48866038 -1012.86557613 2519.14245559 -1012.8630476 2486.79625081 C-1012.85540723 2388.99047917 -1012.85121957 2291.18470945 -1012.86327826 2116.51295951 C-1012.86580481 2084.17479447 -1012.86830192 2051.83662942 -1012.8706537 2019.49846436 C-1012.87072419 2018.53294535 -1012.87079468 2017.56742634 -1012.8708673 2016.57264918 C-1012.87528002 1956.07810272 -1012.87724163 1895.58355664 -1012.87635286 1835.08901002 C-1012.87633935 1834.15431998 -1012.87632583 1833.21962995 -1012.87631191 1832.25661598 C-1012.87569838 1790.28152167 -1012.8744216 1748.30642739 -1012.87253185 1706.33133312 C-1012.8719128 1692.56388528 -1012.87132412 1678.79643744 -1012.87074575 1665.0289896 C-1012.87055377 1660.46226145 -1012.87035906 1655.89553329 -1012.87015804 1651.32880514 C-1012.86832164 1609.48343257 -1012.86778323 1567.63806064 -1012.87141759 1525.79268815 C-1012.87149554 1524.89147905 -1012.87157348 1523.99026996 -1012.87165379 1523.06175149 C-1012.87267726 1511.27254361 -1012.87376257 1499.48333574 -1012.87485543 1487.69412787 C-1012.87493826 1486.80043584 -1012.87502108 1485.90674381 -1012.87510642 1484.9859702 C-1012.87527354 1483.18296442 -1012.87544081 1481.37995864 -1012.87560822 1479.57695286 C-1012.87942171 1438.39835436 -1012.88202275 1397.219757 -1012.87741287 1356.04115846 C-1012.87731949 1355.20435987 -1012.87722612 1354.36756129 -1012.87712991 1353.50540517 C-1012.87506887 1335.24253137 -1012.87242934 1316.9796577 -1012.8692223 1298.71678407 C-1012.86795066 1291.4314521 -1012.86674941 1284.14612011 -1012.86556871 1276.86078813 C-1012.86543788 1276.06612468 -1012.86530704 1275.27146124 -1012.86517225 1274.45271708 C-1012.86106689 1249.31925342 -1012.86304715 1224.18579529 -1012.86860225 1199.05233204 C-1012.87405255 1174.26933494 -1012.8733354 1149.48634649 -1012.86386552 1124.70335034 C-1012.86256359 1121.29436406 -1012.86133063 1117.88537777 -1012.86013893 1114.47639145 C-1012.85990296 1113.80912592 -1012.85966698 1113.14186038 -1012.85942386 1112.45437468 C-1012.85569957 1101.38654439 -1012.85974596 1090.31872654 -1012.86604174 1079.25089781 C-1012.87096728 1069.61720683 -1012.86850645 1059.98353508 -1012.86030803 1050.3498464 C-1012.85587424 1044.90681356 -1012.85430838 1039.46383001 -1012.86194107 1034.02079958 C-1012.90838249 998.42029121 -1012.18994754 962.7783001 -1008.79026658 927.31747987 C-1008.66429597 925.95798219 -1008.66429597 925.95798219 -1008.5357805 924.57101991 C-1000.58166277 838.8744872 -981.84822573 755.13247028 -907.50962694 565.9690912 C-906.58248163 564.08884202 -905.65989897 562.20641473 -904.73850877 560.32333924 C-897.07481667 544.66923198 -889.15037664 529.23457547 -880.37180955 514.16757752 C-878.77957528 511.43357548 -877.19782826 508.69374082 -875.6189409 505.95201661 C-857.33622693 474.23476405 -837.35929724 443.58226716 -815.60276658 414.12997987 C-815.11002244 413.46240663 -814.6172783 412.79483338 -814.10960252 412.10703065 C-801.17245923 394.62613097 -787.77888984 377.52039673 -773.68137987 360.96030213 C-770.8270929 357.60182073 -768.04327813 354.19752121 -765.29026658 350.75497987 C-761.00525958 345.481719 -756.40972646 340.53616047 -751.73826463 335.60703065 C-748.17429162 331.84361389 -744.72372563 328.00448815 -741.32298143 324.09311463 C-730.94276324 312.24705524 -719.72402437 301.14730789 -708.60276658 290.00497987 C-707.97102525 289.37065034 -707.33928392 288.73632081 -706.68839891 288.08276917 C-694.58427659 275.93956836 -694.58427659 275.93956836 -688.37864549 270.66074159 C-685.07306006 267.81141238 -681.95094386 264.76282804 -678.79026658 261.75497987 C-673.41375158 256.67262449 -667.96401069 251.84603832 -662.17698533 247.23544862 C-659.3924631 244.9579714 -656.74862855 242.56685979 -654.10276658 240.12997987 C-648.77303043 235.23624469 -643.23515129 230.66876704 -637.60276658 226.12997987 C-636.32592535 225.08538352 -635.04993601 224.03974532 -633.77464158 222.99326112 C-626.41877753 216.96551466 -619.01464719 211.04541409 -611.34788377 205.41415955 C-609.3058678 203.91150091 -607.27082154 202.39961199 -605.23557908 200.88779237 C-577.59600523 180.38799102 -549.16759374 160.76513992 -519.60276658 143.12997987 C-518.67270799 142.57439393 -517.7426494 142.01880799 -516.78440721 141.44638612 C-501.93541488 132.60980884 -486.86659798 124.22630011 -471.60276658 116.12997987 C-470.57941209 115.5840619 -469.5560576 115.03814393 -468.50169237 114.47568299 C-415.69740427 86.37242269 -360.54750375 64.06743049 -303.63639696 45.78372743 C-301.73838445 45.1735767 -299.84166646 44.55940317 -297.94505174 43.94492127 C-222.88154785 19.82382082 -143.01561385 5.56280379 -64.30093766 1.33029831 C-62.42494762 1.22868176 -60.54893971 1.12661412 -58.67386166 1.00936716 C-39.13408949 -0.20655386 -19.56778442 -0.01270101 0 0 Z " fill="#1FB8EA" transform="translate(1012.602766584605,-0.12997986748814583)"/>
<path d="M0 0 C116.68017871 -0.02013078 116.68017871 -0.02013078 152.78923035 -0.02565002 C154.07703052 -0.02584736 155.36483069 -0.02604469 156.69165511 -0.02624801 C200.05605873 -0.03288188 243.42046241 -0.03812535 286.78486633 -0.04234314 C288.21476739 -0.04248259 289.64466845 -0.04262204 291.07456951 -0.04276149 C321.09255006 -0.04568456 351.11053062 -0.04840123 381.1285112 -0.05087968 C396.20888931 -0.05212501 411.28926742 -0.05340999 426.36964553 -0.05473244 C428.64437802 -0.05493169 430.91911052 -0.05512981 433.19384301 -0.05532788 C468.19648967 -0.05838568 503.19913599 -0.06229036 538.20178223 -0.06866455 C539.32954804 -0.0688699 539.32954804 -0.0688699 540.480097 -0.0690794 C552.60104097 -0.0712916 564.72198493 -0.07357527 576.84292889 -0.07586844 C611.78071426 -0.08247724 646.71849936 -0.08855231 681.65628529 -0.09113979 C682.37567796 -0.09119333 683.09507063 -0.09124686 683.83626307 -0.09130202 C699.63366175 -0.09246814 715.43106043 -0.09336283 731.22845913 -0.09400098 C737.58606578 -0.09426258 743.94367242 -0.09456321 750.30127907 -0.09487724 C751.34495795 -0.09492738 751.34495795 -0.09492738 752.40972126 -0.09497854 C774.77933808 -0.0960726 797.1489529 -0.10033555 819.51856891 -0.10628221 C842.70619292 -0.11243127 865.89381479 -0.11501 889.08143982 -0.11350138 C902.43493784 -0.11274277 915.78842863 -0.11475086 929.14192535 -0.12079754 C938.08000658 -0.12456705 947.01808311 -0.12464995 955.95616467 -0.12183181 C961.03740782 -0.1203324 966.11863736 -0.12034381 971.19987901 -0.12488318 C1000.56381228 -0.14956812 1029.80786186 0.44677977 1059.125 2.25 C1060.14582672 2.31246918 1061.16665344 2.37493835 1062.21841431 2.43930054 C1110.3740609 5.43326437 1158.60722441 10.51618029 1206.10742188 19.08374023 C1207.10997513 19.26456902 1207.10997513 19.26456902 1208.13278198 19.4490509 C1208.77603424 19.56512192 1209.4192865 19.68119293 1210.08203125 19.80078125 C1213.93415426 20.49323468 1217.73956521 21.1234574 1221.63671875 21.48046875 C1226.38643391 21.94175201 1230.9375836 23.09631725 1235.57177734 24.20605469 C1241.28342812 25.52882127 1247.04983431 26.55145357 1252.8125 27.625 C1287.27384481 34.14612444 1321.50343068 42.15393359 1355.12011719 52.15185547 C1358.80009521 53.23563333 1362.49066516 54.279559 1366.18286133 55.32080078 C1376.04621735 58.10279647 1385.824324 61.10202137 1395.58081055 64.23657227 C1397.24527953 64.76183158 1398.91370737 65.27465583 1400.58520508 65.77709961 C1411.25960423 68.98945519 1421.80128434 72.59286274 1432.35424805 76.18041992 C1435.66117737 77.30355999 1438.97017089 78.42046071 1442.27929688 79.53710938 C1453.99278726 83.5054854 1465.59777333 87.64478784 1477.08175659 92.23605347 C1479.97739699 93.38925146 1482.88552413 94.50977172 1485.79296875 95.6328125 C1524.63552993 110.73742113 1562.6142834 127.58001355 1600 146 C1600.71256958 146.35080627 1601.42513916 146.70161255 1602.15930176 147.06304932 C1620.98152518 156.33515357 1639.70453016 165.71711912 1658 176 C1659.83063569 177.01969909 1661.66136755 178.03922554 1663.4921875 179.05859375 C1692.91775413 195.50766826 1722.11673049 212.70830037 1750.01220703 231.65478516 C1752.58393122 233.39516839 1755.17165497 235.11078858 1757.76025391 236.82592773 C1771.62807633 246.02212053 1785.23707489 255.54534626 1798.69580078 265.32958984 C1801.02006626 267.01454687 1803.35071431 268.69027481 1805.68359375 270.36328125 C1813.97713622 276.31473848 1822.18644162 282.33735998 1830.23193359 288.62207031 C1832.22931095 290.17871182 1834.23356188 291.72626375 1836.23828125 293.2734375 C1845.6860845 300.57609721 1855.02061276 308.00225976 1864.25585938 315.57177734 C1865.82908924 316.86004648 1867.40648248 318.14322725 1868.984375 319.42578125 C1874.43337715 323.85900121 1879.81539933 328.36438808 1885.16479492 332.91674805 C1888.56982797 335.80918463 1892.01743763 338.63828926 1895.5 341.4375 C1900.88142204 345.81334245 1905.93998569 350.49308815 1911.0078125 355.22265625 C1913.32240262 357.38077719 1915.66895746 359.4917381 1918.0625 361.5625 C1922.94028037 365.78581927 1927.66792239 370.17278736 1932.41357422 374.54296875 C1934.00210515 376.00193345 1935.59586496 377.45495777 1937.19140625 378.90625 C1941.98303406 383.26930986 1946.71973579 387.6543983 1951.25453186 392.28697205 C1952.99425434 393.99436112 1954.79625727 395.57632378 1956.65014648 397.15844727 C1961.2430412 401.15595337 1965.54920699 405.40506431 1969.84765625 409.71484375 C1971.07094887 410.93670128 1971.07094887 410.93670128 1972.31895447 412.1832428 C1974.03198008 413.89559193 1975.74375965 415.60918842 1977.4543457 417.32397461 C1980.05503552 419.93002015 1982.66101956 422.53068522 1985.26757812 425.13085938 C1986.94042486 426.80436699 1988.61296134 428.47818482 1990.28515625 430.15234375 C1991.05513443 430.9202977 1991.82511261 431.68825165 1992.61842346 432.47947693 C1996.75387539 436.63267794 2000.72672238 440.86839249 2004.54014587 445.31996155 C2006.42505289 447.48916203 2008.43804681 449.49959765 2010.5 451.5 C2013.82769463 454.78854528 2016.95336441 458.16381624 2019.99609375 461.71484375 C2022.05673165 464.06469399 2024.17458872 466.35016036 2026.30761719 468.6340332 C2031.33439403 474.01706915 2036.11002462 479.5068842 2040.72265625 485.25390625 C2043.21827635 488.26320459 2045.83787519 491.13916806 2048.5 494 C2052.75533276 498.57927575 2056.77322923 503.29286299 2060.6953125 508.1640625 C2062.75814156 510.70239114 2064.85871397 513.19858988 2066.98364258 515.68457031 C2072.67471206 522.34329137 2078.13516746 529.15560976 2083.50488281 536.07519531 C2085.07988183 538.10283937 2086.66060866 540.12592233 2088.2421875 542.1484375 C2112.67921472 573.43133585 2112.67921472 573.43133585 2123.75634766 589.22949219 C2125.12701277 591.18081991 2126.5063264 593.12585466 2127.88671875 595.0703125 C2152.45734481 629.71307403 2175.67432687 665.26112525 2197 702 C2197.72751465 703.25248535 2197.72751465 703.25248535 2198.46972656 704.53027344 C2202.02248349 710.66292283 2205.52381312 716.82366203 2209 723 C2209.59119629 724.04945801 2210.18239258 725.09891602 2210.79150391 726.18017578 C2248.0494689 792.51847003 2279.75857793 861.71855295 2305.64501953 933.265625 C2306.86218262 936.62017035 2308.09675416 939.96749799 2309.33984375 943.3125 C2332.21572046 1005.24948524 2348.76086442 1069.38162401 2362.3125 1133.9375 C2362.52568878 1134.94798401 2362.73887756 1135.95846802 2362.95852661 1136.99957275 C2365.23858689 1147.83878325 2367.39522339 1158.66481345 2368.99641418 1169.62767029 C2369.65580146 1174.09818455 2370.52388439 1178.4719107 2371.53227234 1182.87660217 C2372.77165359 1188.5031658 2373.48246647 1194.23893628 2374.3125 1199.9375 C2374.41915985 1200.66597137 2374.5258197 1201.39444275 2374.63571167 1202.14498901 C2380.53732513 1242.65169099 2384.76280211 1283.42435928 2387.6875 1324.25 C2387.77877167 1325.51904175 2387.77877167 1325.51904175 2387.87188721 1326.8137207 C2389.35523053 1347.65502611 2390.16689822 1368.42481028 2390.203125 1389.3203125 C2390.20595238 1390.45098019 2390.20877975 1391.58164787 2390.21169281 1392.74657822 C2390.22657607 1398.75764942 2390.2358679 1404.7686974 2390.24023438 1410.77978516 C2390.24457054 1415.62296279 2390.25828741 1420.4659574 2390.28125 1425.30908203 C2390.43748863 1458.98808552 2389.46572696 1492.40909905 2387 1526 C2386.94449226 1526.76712311 2386.88898453 1527.53424622 2386.83179474 1528.32461548 C2386.20655928 1536.95441991 2385.48850148 1545.57235815 2384.6875 1554.1875 C2384.53217804 1555.89317139 2384.53217804 1555.89317139 2384.37371826 1557.63330078 C2382.16092026 1581.83087578 2379.30889344 1605.92915228 2376 1630 C2375.86057983 1631.0144519 2375.72115967 1632.02890381 2375.57751465 1633.07409668 C2371.93395574 1659.47671247 2367.99876355 1685.81724021 2363 1712 C2362.77570312 1713.17502075 2362.77570312 1713.17502075 2362.546875 1714.3737793 C2358.44157972 1735.8099518 2353.97693385 1757.12356787 2348.87207031 1778.34521484 C2347.9469343 1782.22239461 2347.04413524 1786.10422263 2346.1484375 1789.98828125 C2345.83797716 1791.33186968 2345.52751171 1792.67545693 2345.21704102 1794.01904297 C2344.63775369 1796.52680868 2344.0603821 1799.03498937 2343.48413086 1801.54345703 C2340.1865272 1815.75572046 2336.26215942 1829.78911396 2332.25 1843.8125 C2332.03345764 1844.57012634 2331.81691528 1845.32775269 2331.59381104 1846.1083374 C2327.86780291 1859.1280734 2324.00191602 1872.09863069 2319.93701172 1885.01708984 C2319.03442226 1887.89041918 2318.14359515 1890.76718622 2317.25390625 1893.64453125 C2291.04354619 1977.66954451 2256.9023135 2060.77447726 2204.62939453 2155.14404297 C2202.978246 2158.03812981 2201.34398779 2160.94113168 2199.71484375 2163.84765625 C2192.69438828 2176.36806068 2185.49775252 2188.75919409 2178 2201 C2177.45182617 2201.89702637 2176.90365234 2202.79405273 2176.33886719 2203.71826172 C2161.43137031 2228.04124229 2145.56245475 2251.77408134 2129 2275 C2128.47422363 2275.74040527 2127.94844727 2276.48081055 2127.40673828 2277.24365234 C2118.54593774 2289.70644855 2109.32812774 2301.88434268 2100 2314 C2099.38979004 2314.79470703 2098.77958008 2315.58941406 2098.15087891 2316.40820312 C2086.62765107 2331.40319286 2074.64572025 2346.00049781 2062.37402344 2360.38769531 C2060.92609978 2362.08671589 2059.48259688 2363.7894368 2058.0390625 2365.4921875 C2052.30415377 2372.23908463 2046.45072993 2378.84792609 2040.4375 2385.34765625 C2038.48256122 2387.47490534 2036.57117955 2389.62272252 2034.6875 2391.8125 C2031.21588787 2395.81368009 2027.61073299 2399.68727905 2024 2403.5625 C2023.41822998 2404.18809814 2022.83645996 2404.81369629 2022.23706055 2405.45825195 C2019.3769666 2408.51772842 2016.48438135 2411.52626066 2013.5 2414.46484375 C2011.1349656 2416.80927282 2008.91187858 2419.21682281 2006.74609375 2421.74609375 C2002.56096935 2426.59196583 1998.04691723 2431.10340122 1993.51196289 2435.6184082 C1992.06475615 2437.06025221 1990.62297974 2438.50737116 1989.18164062 2439.95507812 C1984.50417757 2444.6355472 1979.76121946 2449.17537606 1974.73608398 2453.48217773 C1972.1935027 2455.70510389 1969.85973553 2458.08340337 1967.5 2460.5 C1963.86440864 2464.18488963 1960.15387033 2467.70735904 1956.21484375 2471.06640625 C1953.88663662 2473.09896803 1951.62840339 2475.19400071 1949.37011719 2477.3034668 C1943.96407993 2482.3526052 1938.45100761 2487.15527795 1932.6796875 2491.7890625 C1929.86746685 2494.1093495 1927.18202737 2496.53071134 1924.5 2499 C1919.17368912 2503.89506128 1913.63059305 2508.4617902 1908 2513 C1906.22848705 2514.4575077 1904.45765983 2515.91584922 1902.6875 2517.375 C1896.84558604 2522.15249743 1890.91943292 2526.81689455 1884.97021484 2531.45947266 C1882.8891181 2533.08669948 1880.81360575 2534.72088808 1878.73828125 2536.35546875 C1868.35084048 2544.51458441 1857.7729751 2552.35852411 1847 2560 C1846.13882568 2560.61433899 1846.13882568 2560.61433899 1845.26025391 2561.24108887 C1834.66267926 2568.80030629 1823.93811067 2576.14673192 1813.09863281 2583.35449219 C1810.63115059 2584.99590851 1808.16700051 2586.64223864 1805.703125 2588.2890625 C1789.84259503 2598.86842549 1773.7992534 2609.11017988 1757.3125 2618.6875 C1756.04722136 2619.42535192 1754.7820042 2620.16330928 1753.5168457 2620.90136719 C1744.72684117 2626.02286791 1735.91878736 2631.10559381 1727 2636 C1726.16887695 2636.45729492 1725.33775391 2636.91458984 1724.48144531 2637.38574219 C1660.75077941 2672.38000007 1594.79452093 2701.35258537 1526.03759766 2724.94921875 C1522.69015284 2726.10718391 1519.35086418 2727.28707338 1516.01171875 2728.46875 C1501.43163082 2733.60375933 1486.82468807 2738.20154097 1471.89746094 2742.21191406 C1467.29171393 2743.46463999 1462.70987961 2744.7983674 1458.125 2746.125 C1449.4574431 2748.61006995 1440.76900505 2750.98395528 1432.03369141 2753.21923828 C1429.16214159 2753.95827066 1426.29406879 2754.70994672 1423.42608643 2755.462677 C1398.47672193 2761.98842958 1373.33474428 2767.20904644 1348 2772 C1347.07640686 2772.17573547 1346.15281372 2772.35147095 1345.20123291 2772.53253174 C1302.3249438 2780.68553811 1259.1835235 2786.80020801 1215.70068359 2790.58691406 C1211.89958097 2790.91807406 1208.10080233 2791.26991293 1204.30230713 2791.62960815 C1186.69976613 2793.28875746 1169.10232647 2794.38039701 1151.4375 2795.125 C1150.06558502 2795.18291718 1150.06558502 2795.18291718 1148.66595459 2795.24200439 C1142.92825359 2795.47918493 1137.18984705 2795.68403243 1131.45059204 2795.87950182 C1129.20420539 2795.95794792 1126.95793612 2796.03985688 1124.71182251 2796.12576628 C1095.74903667 2797.22513103 1066.77868513 2797.1571184 1037.79966182 2797.15978224 C1030.137301 2797.1606829 1022.47494754 2797.16740986 1014.81259 2797.17412117 C996.33285491 2797.19002522 977.8531208 2797.19606268 959.3733801 2797.20086992 C950.62142293 2797.20321769 941.86946641 2797.20682113 933.11750975 2797.2105653 C903.11050105 2797.22337556 873.10349269 2797.23410577 843.09648132 2797.2375679 C841.22072222 2797.23778952 839.34496311 2797.23801131 837.46920401 2797.23823325 C835.58925601 2797.23845388 833.70930801 2797.23867437 831.82936001 2797.2388947 C828.05860329 2797.23933722 824.28784656 2797.23978435 820.51708984 2797.24023438 C819.58219379 2797.24034377 818.64729773 2797.24045316 817.6840715 2797.24056586 C787.29320947 2797.24420564 756.90237115 2797.2601732 726.51151821 2797.28342474 C694.31080161 2797.30801577 662.11009859 2797.32173999 629.90937233 2797.32293582 C626.37691879 2797.32310726 622.84446525 2797.32332268 619.31201172 2797.32357025 C618.00751409 2797.3236539 618.00751409 2797.3236539 616.67666297 2797.32373925 C602.69326827 2797.32488898 588.70989806 2797.33590225 574.72651163 2797.35045731 C560.6910242 2797.36481499 546.65556817 2797.36806299 532.6200754 2797.36001733 C524.28603369 2797.35556098 515.95209339 2797.35942249 507.61806499 2797.37525584 C501.39609124 2797.38615086 495.17422218 2797.38136751 488.95225048 2797.37048396 C486.43561957 2797.36852041 483.91897853 2797.37163564 481.40236187 2797.38032833 C477.98191729 2797.39139602 474.56198612 2797.38394923 471.14155579 2797.3719368 C470.16490693 2797.37953199 469.18825808 2797.38712718 468.18201381 2797.39495254 C458.76355912 2797.32355079 449.65080348 2795.91104701 442.65625 2789.16015625 C437.19017727 2782.03105667 435.87550956 2772.59884501 435.87415886 2763.84955883 C435.87155127 2762.62427125 435.86894368 2761.39898367 435.86625707 2760.13656616 C435.86842184 2758.7790475 435.87067844 2757.42152899 435.87301636 2756.06401062 C435.87186077 2754.60677711 435.87026977 2753.1495439 435.86828482 2751.69231129 C435.86408214 2747.65172151 435.86618619 2743.61115523 435.86926901 2739.57056533 C435.8715577 2735.13960344 435.86806457 2730.70864535 435.86536407 2726.27768421 C435.86088778 2717.34326592 435.86202308 2708.40885583 435.86483331 2699.4744372 C435.86708744 2691.85241837 435.86707526 2684.23040218 435.86568069 2676.60838318 C435.86547845 2675.49302358 435.86527622 2674.37766398 435.86506785 2673.2285056 C435.86464648 2670.94399944 435.86422181 2668.65949327 435.86379392 2666.37498711 C435.8597701 2643.24172795 435.86311657 2620.10847299 435.86893139 2596.97521446 C435.8697737 2593.62092621 435.87060625 2590.26663796 435.87142944 2586.9123497 C435.87159369 2586.24444062 435.87175794 2585.57653154 435.87192716 2584.88838279 C435.87536388 2570.72225262 435.87654411 2556.55612257 435.87742338 2542.38999205 C435.8824936 2461.63812209 435.91293287 2380.88626536 437 1300 C489.12824334 1299.94862982 541.25648866 1299.90086993 593.38475037 1299.87297058 C594.15662542 1299.87255641 594.92850048 1299.87214224 595.72376568 1299.87171552 C612.49987229 1299.86273618 629.27597917 1299.85442572 646.05208645 1299.84680401 C654.27943464 1299.8430621 662.50678277 1299.83917242 670.73413086 1299.83520508 C671.55283811 1299.8348128 672.37154536 1299.83442052 673.21506193 1299.83401636 C699.73771889 1299.82123901 726.26035664 1299.79871008 752.78300196 1299.77110834 C780.04513145 1299.74278865 807.30725031 1299.72433858 834.56939426 1299.71825503 C838.4225694 1299.7173906 842.27574451 1299.71641369 846.1289196 1299.71536827 C846.88725787 1299.715166 847.64559614 1299.71496373 848.42691436 1299.71475533 C860.61965874 1299.71121423 872.81237021 1299.69731097 885.00510118 1299.6795039 C897.2716391 1299.66181121 909.53814449 1299.6551038 921.80469472 1299.65949587 C928.44743135 1299.66157261 935.09009169 1299.65847749 941.7328167 1299.64238358 C947.81969369 1299.62774431 953.90640982 1299.62707388 959.99329435 1299.63730332 C962.19005061 1299.63856692 964.38681706 1299.63479574 966.58355338 1299.62535045 C984.54909219 1299.55262425 999.4876536 1301.61289766 1016 1309 C1017.051875 1309.4640625 1018.10375 1309.928125 1019.1875 1310.40625 C1045.54491427 1322.76128794 1063.89203868 1346.41223533 1073.6875 1373.375 C1074.1510238 1374.90904304 1074.58585734 1376.45189528 1075 1378 C1075.2784375 1379.01578125 1075.556875 1380.0315625 1075.84375 1381.078125 C1082.48723165 1409.00535341 1076.74565886 1437.76387137 1062.17431641 1462.15771484 C1058.58216713 1467.7931324 1054.3639291 1472.95047865 1050 1478 C1049.34386719 1478.75925781 1048.68773438 1479.51851562 1048.01171875 1480.30078125 C1031.91748163 1497.49783547 1008.74734734 1507.20877544 986 1511 C874.79 1511 763.58 1511 649 1511 C649 1863.44 649 2215.88 649 2579 C936.09159708 2585.58212893 936.09159708 2585.58212893 1221.98852539 2571.22528076 C1223.8506944 2571.0167219 1225.7134121 2570.81307806 1227.57617188 2570.60986328 C1265.57820576 2566.45018119 1303.7486301 2560.62197879 1341 2552 C1343.05324753 2551.53324721 1345.10663838 2551.06712447 1347.16015625 2550.6015625 C1352.62688798 2549.35700514 1358.08785712 2548.08910603 1363.54638672 2546.80908203 C1365.89896047 2546.25794182 1368.25217908 2545.70954871 1370.60595703 2545.16357422 C1385.86441839 2541.61777915 1400.88737557 2537.70769175 1415.82275391 2532.98632812 C1419.32412051 2531.89938168 1422.83769553 2530.86071645 1426.35546875 2529.828125 C1481.43871775 2513.62127976 1534.46509306 2492.26205565 1586 2467 C1587.13324707 2466.44699219 1588.26649414 2465.89398437 1589.43408203 2465.32421875 C1604.59232818 2457.9113825 1619.46609299 2450.15929673 1634.06347656 2441.69482422 C1637.16510135 2439.90471121 1640.28038943 2438.1402428 1643.3984375 2436.37890625 C1656.90612576 2428.71896691 1670.04455986 2420.65345239 1682.95751953 2412.03027344 C1685.66227669 2410.22536568 1688.37237623 2408.42899379 1691.08518982 2406.63624573 C1724.63814445 2384.46047759 1756.66746345 2360.53507068 1787.29541016 2334.45019531 C1789.02119329 2332.98196961 1790.75074272 2331.51826467 1792.48046875 2330.0546875 C1799.85614057 2323.79505106 1807.0399044 2317.37058233 1814.09985352 2310.7565918 C1815.49504447 2309.46680651 1816.90381668 2308.19167232 1818.32006836 2306.92504883 C1828.53415754 2297.73155137 1838.1824508 2287.96785016 1847.88555908 2278.24139404 C1849.79406141 2276.33027945 1851.70627382 2274.42289832 1853.61846638 2272.51547718 C1855.93168385 2270.20677247 1858.24105587 2267.89422878 1860.55078125 2265.58203125 C1861.39570633 2264.7391304 1862.24063141 2263.89622955 1863.11116028 2263.02778625 C1867.40241195 2258.71966016 1871.55268445 2254.34831335 1875.50874329 2249.72937012 C1877.88435703 2246.97443505 1880.38673512 2244.34025405 1882.875 2241.6875 C1887.31465293 2236.91589105 1891.51659141 2232.0183201 1895.59765625 2226.93359375 C1898.4496097 2223.45096441 1901.40827123 2220.0722482 1904.375 2216.6875 C1909.53952821 2210.77470633 1914.45972409 2204.7178596 1919.265625 2198.51171875 C1921.57951755 2195.52446683 1923.94573109 2192.58345821 1926.32592773 2189.64892578 C1931.36996236 2183.41781583 1936.24210669 2177.0773769 1941 2170.625 C1941.52053955 2169.91964111 1942.0410791 2169.21428223 1942.57739258 2168.48754883 C1953.06930121 2154.16159929 1963.10427621 2139.53357537 1972.9375 2124.75 C1973.50682251 2123.89493866 1974.07614502 2123.03987732 1974.66271973 2122.15890503 C1983.02657027 2109.58776022 1991.29027121 2096.98630976 1999 2084 C1999.53383301 2083.10522949 2000.06766602 2082.21045898 2000.61767578 2081.28857422 C2042.62204424 2010.69370719 2076.47097371 1936.41502289 2121 1803 C2121.45252417 1801.43868808 2121.90516894 1799.87741111 2122.35791016 1798.31616211 C2131.84370993 1765.49305618 2140.45988779 1732.41564027 2147.03759766 1698.88183594 C2147.69818131 1695.51503425 2148.37351415 1692.15164297 2149.06005859 1688.79003906 C2159.03527697 1639.91252129 2166.21009005 1590.56810913 2170.73498535 1540.89147949 C2171.0039038 1537.95740705 2171.27992054 1535.02407409 2171.55761719 1532.09082031 C2178.34998212 1460.03058415 2179.17022331 1388.12226437 2173 1316 C2172.91558655 1315.00629395 2172.8311731 1314.01258789 2172.74420166 1312.98876953 C2171.68603379 1300.63672993 2170.43051197 1288.3142211 2169 1276 C2168.90996704 1275.2167334 2168.81993408 1274.4334668 2168.72717285 1273.62646484 C2162.40232032 1218.73488441 2153.32237791 1163.03318269 2137.2109375 1110.09375 C2135.86723839 1105.63639063 2134.71729231 1101.13427625 2133.5625 1096.625 C2131.71871731 1089.47071633 2129.62172928 1082.43405717 2127.34332275 1075.40687561 C2125.7749239 1070.5413978 2124.31529726 1065.65858493 2122.94450378 1060.73399353 C2119.72505457 1049.17146749 2116.07905267 1037.78952556 2112.1875 1026.4375 C2111.87007843 1025.50844849 2111.55265686 1024.57939697 2111.22561646 1023.62219238 C2099.98836749 990.82269831 2087.4035853 958.54030865 2073 927 C2072.71727234 926.38058533 2072.43454468 925.76117065 2072.14324951 925.12298584 C2068.61831742 917.41034162 2065.04304662 909.72185578 2061.43261719 902.04882812 C2060.12707043 899.27042529 2058.83124456 896.48776135 2057.5390625 893.703125 C2052.849397 883.63577404 2047.83114744 873.78281601 2042.59326172 863.99072266 C2040.70794983 860.4517906 2038.84026018 856.90376663 2036.97265625 853.35546875 C2029.26764273 838.73186961 2021.51537092 824.17260443 2013 810 C2012.06486572 808.43934814 2012.06486572 808.43934814 2011.11083984 806.84716797 C1984.76627871 762.92982273 1956.35346139 720.51005119 1925 680 C1924.53529297 679.39881348 1924.07058594 678.79762695 1923.59179688 678.17822266 C1912.8887264 664.36048168 1901.71965018 650.91374495 1890.37841797 637.61669922 C1888.91804713 635.90388028 1887.46106922 634.18820469 1886.00390625 632.47265625 C1880.51538496 626.0255024 1874.94604707 619.67790077 1869.22265625 613.4375 C1867.32578236 611.35727275 1865.46607057 609.25443102 1863.625 607.125 C1856.91093676 599.4086003 1849.97701132 591.85343485 1842.66625977 584.69873047 C1841.06061057 583.06179169 1839.58789358 581.36902547 1838.109375 579.6171875 C1833.26496538 574.05093087 1828.02773687 568.87819777 1822.80297852 563.67260742 C1821.066064 561.941053 1819.33456111 560.20421641 1817.60351562 558.46679688 C1812.40701997 553.26750786 1807.19997897 548.15817551 1801.60327148 543.38500977 C1799.45573074 541.52982495 1797.47530664 539.53608531 1795.5 537.5 C1792.19013302 534.15066271 1788.79253051 531.00074044 1785.21875 527.9375 C1783.0160873 526.01404807 1780.86703514 524.03910099 1778.72363281 522.05004883 C1773.53519133 517.23680456 1768.22072548 512.67600849 1762.703125 508.23828125 C1759.94184175 505.95184295 1757.31461778 503.56391782 1754.6875 501.125 C1750.07728643 496.88202961 1745.28073042 493.00123337 1740.32836914 489.17407227 C1736.32958918 486.07489557 1732.45571743 482.86627176 1728.625 479.5625 C1722.75605909 474.52994112 1716.63866526 469.89413099 1710.42578125 465.296875 C1707.25090211 462.94468615 1704.1086704 460.55454103 1700.98046875 458.140625 C1691.01739491 450.4575516 1680.94435459 443.06718631 1670.4921875 436.0625 C1667.22041107 433.86048254 1664.02837833 431.57119546 1660.8515625 429.234375 C1654.20117716 424.37043629 1647.36303588 419.80586511 1640.5 415.25 C1639.83848938 414.81013763 1639.17697876 414.37027527 1638.49542236 413.91708374 C1627.76228129 406.78335155 1616.97556088 399.75657178 1606 393 C1604.97261719 392.36529785 1603.94523437 391.7305957 1602.88671875 391.07666016 C1587.47180536 381.57124139 1571.92554341 372.37182338 1556.04052734 363.66650391 C1554.05678175 362.57921891 1552.07522442 361.48792905 1550.09619141 360.39208984 C1516.61614959 341.86122337 1482.20902217 324.98158852 1447 310 C1446.34940613 309.72303284 1445.69881226 309.44606567 1445.02850342 309.16070557 C1436.05637634 305.34825191 1427.04219388 301.64328182 1418 298 C1416.83033691 297.52723633 1415.66067383 297.05447266 1414.45556641 296.56738281 C1397.80265103 289.85872171 1381.01714085 283.71644711 1364 278 C1361.57421056 277.1784096 1359.14842955 276.35679432 1356.72265625 275.53515625 C1331.49549254 267.02417374 1306.20514202 259.03257886 1280.35943604 252.59356689 C1275.8959214 251.48075483 1271.43968463 250.34241331 1266.98664856 249.18840027 C1242.80953009 242.92723636 1218.54852217 237.58810863 1194 233 C1193.25083313 232.85927063 1192.50166626 232.71854126 1191.72979736 232.57354736 C1169.57875443 228.4174501 1147.35115266 224.89462541 1125 222 C1123.96084442 221.8652829 1123.96084442 221.8652829 1122.9006958 221.72784424 C1102.40550104 219.09267015 1081.85424378 217.34918428 1061.25 215.8125 C1060.12153656 215.72773407 1058.99307312 215.64296814 1057.83041382 215.55563354 C1054.51751461 215.30909881 1051.2042041 215.0692393 1047.890625 214.83203125 C1046.94760025 214.7624118 1046.0045755 214.69279236 1045.03297424 214.62106323 C1041.6897852 214.38790557 1038.34587418 214.19135473 1035 214 C1034.2870778 213.95880461 1033.57415561 213.91760921 1032.83962971 213.87516547 C1012.81596756 212.76722517 992.78863598 212.84528748 972.74207295 212.8427946 C967.54796542 212.84104638 962.35386542 212.83355068 957.15976238 212.82681805 C948.07735144 212.81582061 938.99494323 212.80841276 929.91252708 212.80341911 C916.40751731 212.79597728 902.90251704 212.78288612 889.39751291 212.76867336 C866.6748112 212.74491807 843.9521084 212.72568364 821.22940063 212.70907402 C798.74191047 212.69262241 776.25442347 212.67413329 753.76693726 212.65294075 C753.06733537 212.65228236 752.36773349 212.65162396 751.64693155 212.65094561 C745.25670025 212.6449307 738.86646898 212.63889085 732.47623773 212.63282111 C716.59421022 212.61773593 700.71218242 212.60296314 684.83015442 212.58840275 C684.10709814 212.58773961 683.38404186 212.58707647 682.63907479 212.58639324 C647.50726935 212.55420004 612.3754611 212.52560709 577.24365234 212.49731445 C565.05938718 212.48750011 552.87512203 212.47766981 540.69085693 212.46777344 C539.55727946 212.46685274 539.55727946 212.46685274 538.40080143 212.46591344 C503.23792764 212.43733211 468.07505626 212.40618526 432.91218526 212.37438093 C430.62804448 212.372315 428.3439037 212.37025017 426.05976292 212.36818558 C410.92203644 212.35450106 395.78431 212.34077242 380.64658358 212.32701423 C350.52891195 212.29964166 320.41124009 212.27252827 290.29356807 212.24559305 C288.85944058 212.24431046 287.4253131 212.24302769 285.99118561 212.24174474 C241.83657265 212.20224562 197.68195879 212.16391593 153.52734375 212.1268158 C152.29443273 212.1257794 151.06152171 212.12474301 149.79124975 212.12367522 C99.86083377 212.08172137 49.93041676 212.04101781 0 212 C0 142.04 0 72.08 0 0 Z " fill="#FEFEFE" transform="translate(1030,904)"/>
<path d="M0 0 C87.74667256 -0.03150056 175.4933463 -0.06215445 286.64744568 -0.08468628 C288.0773762 -0.08496518 289.50730672 -0.08524408 290.93723725 -0.08552299 C320.95804437 -0.09136954 350.97885155 -0.09680284 380.99965883 -0.10175936 C396.08220694 -0.10424997 411.16475504 -0.1068199 426.24730313 -0.10946488 C428.52231546 -0.10986338 430.79732779 -0.11025962 433.07234013 -0.11065576 C468.06541936 -0.11676895 503.0584972 -0.12457372 538.05157471 -0.1373291 C538.80280016 -0.1376029 539.5540256 -0.1378767 540.32801546 -0.13815879 C552.43843117 -0.14258302 564.54884683 -0.14715043 576.65926248 -0.15173688 C611.58098456 -0.16496022 646.50270556 -0.17710831 681.42442989 -0.18227959 C682.14400315 -0.18238666 682.8635764 -0.18249373 683.6049549 -0.18260404 C699.4090705 -0.18493667 715.21318611 -0.18672587 731.01730182 -0.18800197 C737.37830943 -0.18852514 743.73931703 -0.18912639 750.10032463 -0.18975449 C750.79646819 -0.18982134 751.49261176 -0.18988819 752.20985058 -0.18995707 C774.56411394 -0.1921426 796.91836927 -0.20065953 819.2726294 -0.21256442 C842.45928636 -0.22488237 865.6459348 -0.23001494 888.83259583 -0.22700275 C902.1751126 -0.22548916 915.51760034 -0.22946896 928.86011184 -0.24159509 C937.80363571 -0.24916299 946.74714085 -0.24928011 955.69066608 -0.24366363 C960.76682835 -0.24067954 965.84293622 -0.24062434 970.91909236 -0.24976636 C1005.63974252 -0.30854861 1040.27321045 0.73599184 1074.80859375 4.54052734 C1077.69875665 4.85785481 1080.58939579 5.17007877 1083.48046875 5.47900391 C1111.91667252 8.55142606 1139.94623715 13.47246054 1168 19 C1169.14813171 19.22620026 1169.14813171 19.22620026 1170.31945801 19.45697021 C1198.63097239 25.06222666 1226.36253409 32.7499519 1254 41 C1254.99427002 41.29535645 1255.98854004 41.59071289 1257.01293945 41.89501953 C1286.47394831 50.79352502 1315.66086343 60.99721474 1344 73 C1345.23031461 73.51648062 1346.4607865 74.03258672 1347.69140625 74.54833984 C1366.43378235 82.41795265 1384.774495 91.00218843 1403 100 C1404.52082262 100.74611558 1406.04165434 101.49221263 1407.5625 102.23828125 C1411.39175392 104.12649136 1415.19966309 106.05432646 1419 108 C1419.84127441 108.42958008 1420.68254883 108.85916016 1421.54931641 109.30175781 C1435.59056495 116.49115301 1449.39496907 124.01580237 1463 132 C1464.2384668 132.72654785 1464.2384668 132.72654785 1465.50195312 133.46777344 C1491.45718502 148.75297491 1516.6589974 165.25441755 1541 183 C1541.72783691 183.52948242 1542.45567383 184.05896484 1543.20556641 184.60449219 C1558.5794799 195.80562168 1573.4720678 207.49944265 1588.20019531 219.53222656 C1589.77310294 220.81496132 1591.35098284 222.09159413 1592.9296875 223.3671875 C1604.03203853 232.36108018 1614.76991606 241.77188032 1625.2578125 251.47265625 C1627.71349521 253.73594217 1630.19362593 255.96652461 1632.6875 258.1875 C1644.30416485 268.64433936 1655.56017639 279.46330572 1666.625 290.5 C1667.54893555 291.41934326 1668.47287109 292.33868652 1669.42480469 293.28588867 C1673.96942984 297.84087643 1678.36568287 302.45497538 1682.55615234 307.33789062 C1684.28124545 309.32376041 1686.10802989 311.17327024 1688 313 C1691.21434731 316.1711603 1694.21750963 319.45582753 1697.16015625 322.87890625 C1699.19508819 325.22491058 1701.28290967 327.5173645 1703.375 329.8125 C1707.25033743 334.10608632 1710.9222131 338.53088002 1714.55859375 343.02734375 C1717.27720323 346.33752266 1720.0710689 349.57474976 1722.875 352.8125 C1728.28129636 359.07987813 1733.43113551 365.51458583 1738.49462891 372.06054688 C1740.1376503 374.17734252 1741.79268508 376.28438887 1743.44921875 378.390625 C1750.09527107 386.85703141 1756.57454566 395.39803952 1762.74609375 404.21630859 C1764.05999447 406.0853426 1765.38794717 407.94374899 1766.71875 409.80078125 C1784.76085468 435.04435974 1801.43835144 461.16395335 1817 488 C1817.52706543 488.9070166 1818.05413086 489.8140332 1818.59716797 490.74853516 C1827.94064083 506.88464664 1836.62661151 523.3445066 1845 540 C1845.31151001 540.61959595 1845.62302002 541.23919189 1845.94396973 541.87756348 C1861.63133228 573.14837177 1875.1489167 605.2631034 1887.28442383 638.0668335 C1887.96651549 639.90953986 1888.65211306 641.75094736 1889.33789062 643.59228516 C1906.43085937 689.66584414 1919.16838213 736.88173344 1929 785 C1929.38922171 786.85418791 1929.77852868 788.70835794 1930.16796875 790.5625 C1936.69511258 822.41444793 1940.54903377 854.98959644 1943.73571777 887.32220459 C1943.90679026 889.0555679 1944.08021981 890.78870089 1944.25646973 892.52154541 C1949.96107444 948.77567566 1949.70077718 1007.74962148 1944 1064 C1943.84846125 1065.54441677 1943.69709427 1067.0888504 1943.54589844 1068.63330078 C1942.53803043 1078.77879119 1941.32884035 1088.89194068 1940 1099 C1939.90889954 1099.69941711 1939.81779907 1100.39883423 1939.72393799 1101.1194458 C1934.30583879 1142.63204913 1926.81898918 1183.7457026 1916.4375 1224.3125 C1916.19322266 1225.26938721 1915.94894531 1226.22627441 1915.69726562 1227.2121582 C1900.52009868 1284.86889566 1879.4844458 1341.1462355 1854 1395 C1853.51176758 1396.03817871 1853.02353516 1397.07635742 1852.52050781 1398.14599609 C1818.51877728 1470.37445795 1774.84270794 1538.36331508 1723.07861328 1599.16967773 C1720.22432632 1602.52815914 1717.44051155 1605.93245866 1714.6875 1609.375 C1709.82043639 1615.36455756 1704.53089616 1620.93265253 1699.23828125 1626.54296875 C1696.23915174 1629.72724029 1693.35576016 1632.99605836 1690.50390625 1636.3125 C1688.38018349 1638.69548242 1686.10295059 1640.90873586 1683.82470703 1643.14282227 C1682.13704218 1644.86051916 1680.58133845 1646.62667004 1679.02734375 1648.46484375 C1674.47407132 1653.69972215 1669.5703073 1658.57971817 1664.6574707 1663.47290039 C1663.06541034 1665.05959946 1661.4787701 1666.65157742 1659.89257812 1668.24414062 C1654.9596828 1673.1799231 1650.00090823 1678.03794974 1644.66772461 1682.54663086 C1642.85946032 1684.12247588 1641.17900376 1685.78779067 1639.5 1687.5 C1636.53264677 1690.51413582 1633.42654708 1693.29917333 1630.22265625 1696.05859375 C1627.67023117 1698.28804061 1625.18112486 1700.58001382 1622.6875 1702.875 C1618.22126486 1706.94859909 1613.63078621 1710.80827703 1608.92578125 1714.6015625 C1606.27768561 1716.77236453 1603.68853577 1718.99294623 1601.10766602 1721.2421875 C1594.09500507 1727.34479339 1586.83966323 1733.044176 1579.421875 1738.64453125 C1575.66661644 1741.48096767 1571.96020416 1744.37495968 1568.26196289 1747.28515625 C1559.81318275 1753.92380918 1551.19549721 1760.24022228 1542.36230469 1766.35595703 C1539.78601808 1768.14892045 1537.22468498 1769.96208607 1534.6640625 1771.77734375 C1522.10534982 1780.64850767 1509.31331377 1789.02024037 1496.19677734 1797.04199219 C1493.43074756 1798.73616959 1490.67140585 1800.44066859 1487.91455078 1802.14971924 C1472.84763923 1811.48085938 1457.57584505 1820.24656664 1441.87744141 1828.48779297 C1439.29123544 1829.84694448 1436.7124291 1831.21875146 1434.13671875 1832.59765625 C1429.44398357 1835.10327044 1424.72762487 1837.56092934 1420 1840 C1419.01467285 1840.50966309 1418.0293457 1841.01932617 1417.01416016 1841.54443359 C1361.73649226 1870.01062665 1303.09774476 1892.19889266 1243.28515625 1909.07250977 C1240.09520954 1909.97311972 1236.91280035 1910.89711605 1233.73046875 1911.82421875 C1198.0434995 1922.07053875 1161.59373593 1928.90278761 1125 1935 C1124.31395691 1935.11494812 1123.62791382 1935.22989624 1122.92108154 1935.34832764 C1091.15286803 1940.65707419 1059.04132218 1943.27556552 1026.92578125 1945.38671875 C1025.84300652 1945.45833725 1025.84300652 1945.45833725 1024.73835754 1945.53140259 C1022.15938187 1945.69643536 1019.57981326 1945.84858233 1017 1946 C1016.36509203 1946.03927675 1015.73018406 1946.0785535 1015.07603645 1946.11902046 C1001.82643255 1946.93154003 988.60423805 1947.2058275 975.33203125 1947.31640625 C973.19707429 1947.3370755 971.0621205 1947.35807371 968.9271698 1947.37937927 C964.48068107 1947.42294313 960.03417948 1947.46390585 955.58764648 1947.50268555 C949.96196433 1947.55176677 944.33633734 1947.60534352 938.71071339 1947.66066074 C933.25116733 1947.71414712 927.79160059 1947.76536112 922.33203125 1947.81640625 C921.32854959 1947.82596407 920.32506794 1947.83552189 919.29117775 1947.84536934 C913.52453479 1947.89946121 907.75794664 1947.94289499 901.99115372 1947.97728348 C898.75414053 1948.0018672 895.51747107 1948.04189415 892.28060913 1948.08151245 C890.07599243 1948.10026874 887.87137208 1948.11860077 885.66674805 1948.13647461 C884.10989776 1948.16057703 884.10989776 1948.16057703 882.52159595 1948.18516636 C881.08780362 1948.19338366 881.08780362 1948.19338366 879.62504578 1948.20176697 C878.77855311 1948.21107207 877.93206045 1948.22037718 877.0599165 1948.22996426 C875 1948 875 1948 873 1946 C872.74552441 1943.94292355 872.74552441 1943.94292355 872.73930359 1941.35618591 C872.73221878 1940.37671997 872.72513397 1939.39725403 872.71783447 1938.3881073 C872.72031189 1937.30926773 872.72278931 1936.23042816 872.7253418 1935.11889648 C872.72023087 1933.98523651 872.71511993 1932.85157654 872.70985413 1931.68356323 C872.69588904 1927.91268714 872.69692197 1924.14199273 872.69921875 1920.37109375 C872.69533182 1917.74666781 872.69099715 1915.12224249 872.68623352 1912.49781799 C872.67800535 1906.97875358 872.67893434 1901.45974027 872.68432617 1895.94067383 C872.69032544 1889.60158735 872.67816374 1883.26272511 872.6567561 1876.92367691 C872.6368412 1870.79732514 872.63398846 1864.67107607 872.63749123 1858.5446949 C872.6369813 1855.95465637 872.63180603 1853.36461404 872.62167931 1850.77459526 C872.51749021 1820.36183473 877.00397564 1794.2038629 898.99609375 1771.81640625 C916.08988023 1755.31225618 937.56794454 1747.99363261 961.046875 1747.75390625 C963.25732924 1747.72276636 965.4677783 1747.69125745 967.67822266 1747.65942383 C968.8315509 1747.644086 969.98487915 1747.62874817 971.17315674 1747.61294556 C1042.60670462 1746.60549155 1114.94968864 1739.67781975 1183.34057617 1717.82275391 C1186.13976787 1716.9567596 1188.95170689 1716.13978106 1191.76647949 1715.32609558 C1201.62082379 1712.47040158 1211.35582794 1709.32121059 1221.0625 1706 C1221.87483093 1705.72265015 1222.68716187 1705.44530029 1223.52410889 1705.1595459 C1247.18741608 1697.04973482 1270.35858496 1687.64111431 1293 1677 C1294.41442383 1676.33798584 1294.41442383 1676.33798584 1295.85742188 1675.66259766 C1321.33905724 1663.69705832 1345.94824888 1650.6177232 1370 1636 C1371.44729492 1635.12529053 1371.44729492 1635.12529053 1372.92382812 1634.23291016 C1411.74930268 1610.73435783 1448.88423211 1583.26891156 1482.26953125 1552.484375 C1484.44750928 1550.50269542 1486.6461566 1548.55763759 1488.8671875 1546.625 C1499.30961077 1537.51098912 1509.24856971 1527.8448188 1519.0625 1518.0625 C1519.84729736 1517.28229492 1520.63209473 1516.50208984 1521.44067383 1515.69824219 C1525.57470163 1511.55315729 1529.53895787 1507.323381 1533.3581543 1502.88696289 C1535.94841737 1499.90998991 1538.66770363 1497.057607 1541.375 1494.1875 C1546.02639178 1489.21681045 1550.4515005 1484.13778808 1554.70703125 1478.8203125 C1556.83469077 1476.20332753 1559.02003861 1473.6553046 1561.23608398 1471.11376953 C1567.97826382 1463.37021127 1574.24645735 1455.32121645 1580.41064453 1447.11279297 C1581.93133815 1445.09127491 1583.46210146 1443.07784289 1584.99609375 1441.06640625 C1597.05146133 1425.20639424 1608.36733046 1408.84489152 1619 1392 C1619.49822266 1391.21608887 1619.99644531 1390.43217773 1620.50976562 1389.62451172 C1660.75490609 1326.18704404 1690.73479214 1257.23877002 1711 1185 C1711.31267822 1183.89277588 1711.62535645 1182.78555176 1711.94750977 1181.64477539 C1717.22189321 1162.82478537 1721.54450623 1143.93156876 1725.27001953 1124.75048828 C1725.89529233 1121.53796631 1726.53675215 1118.32931509 1727.18359375 1115.12109375 C1730.01710199 1100.71098503 1731.70028928 1086.15368136 1733.36009216 1071.57128906 C1733.7585005 1068.07156209 1734.17278891 1064.57520913 1734.625 1061.08203125 C1738.02731129 1034.31595664 1738.38323221 1007.15906621 1738.31805801 980.21494675 C1738.31238498 977.82657555 1738.30958548 975.43821154 1738.30697632 973.04983521 C1738.26994471 949.70074318 1737.85627144 926.49766147 1735.25323486 903.27081299 C1734.98724621 900.88563394 1734.73299048 898.49938167 1734.47998047 896.11279297 C1730.89803579 862.71076864 1725.12565434 829.79827309 1716.81884766 797.24316406 C1716.03381972 794.13394788 1715.28226985 791.018805 1714.54296875 787.8984375 C1710.91140414 772.68797124 1706.45927315 757.78021445 1701.62176514 742.91143799 C1701.20737946 741.63752847 1700.79417039 740.36323562 1700.38214111 739.08856201 C1688.85100949 703.42799537 1674.31438612 668.59329641 1657.16210938 635.26220703 C1656.31022276 633.60389161 1655.46326489 631.94304179 1654.61914062 630.28076172 C1646.61483618 614.52325811 1638.10865618 599.14563792 1629 584 C1628.45875488 583.09797852 1627.91750977 582.19595703 1627.35986328 581.26660156 C1603.38633873 541.48323367 1575.2794659 503.62501433 1544.02734375 469.2421875 C1542.26032801 467.28791576 1540.53086471 465.30940263 1538.8125 463.3125 C1529.01305902 452.12572243 1518.62514971 441.52334197 1508.125 431 C1507.58538635 430.45779816 1507.04577271 429.91559631 1506.48980713 429.35696411 C1501.04430148 423.89087308 1495.5861812 418.48827343 1489.71679688 413.47167969 C1487.13829167 411.26132284 1484.67262043 408.93981148 1482.1875 406.625 C1477.56353334 402.35284099 1472.8023522 398.31310363 1467.89453125 394.3671875 C1465.23734453 392.19410363 1462.64498683 389.96633509 1460.05957031 387.70947266 C1452.69160867 381.29082077 1445.02748783 375.3969564 1437.16015625 369.60693359 C1434.95307839 367.96509516 1432.77149937 366.29379056 1430.59375 364.61328125 C1365.21254635 314.38415261 1290.25678278 276.92591488 1212.29980469 250.77352905 C1209.94270986 249.98073072 1207.5884374 249.17992712 1205.234375 248.37817383 C1197.05204624 245.60334447 1188.89376107 243.01011924 1180.5 240.9375 C1178.51786713 240.4363255 1176.53609861 239.93370794 1174.5546875 239.4296875 C1173.60432617 239.18831055 1172.65396484 238.94693359 1171.67480469 238.69824219 C1168.65276124 237.90935535 1165.65988536 237.04238353 1162.66455078 236.15869141 C1136.36961019 228.47228431 1109.02944837 224.18513953 1082 220 C1080.93749023 219.83516113 1079.87498047 219.67032227 1078.78027344 219.50048828 C1067.35201345 217.76021368 1055.87636336 216.51884109 1044.375 215.375 C1043.14869873 215.25165283 1041.92239746 215.12830566 1040.65893555 215.0012207 C1020.02481725 213.03275824 999.41852574 212.85443461 978.70812805 212.87773381 C974.61326025 212.88120895 970.5183949 212.87878952 966.42352653 212.87715632 C959.26491029 212.87509452 952.10630241 212.87670579 944.94768715 212.88079453 C934.30327238 212.88685723 923.65886282 212.88712777 913.01444664 212.88625254 C895.10437895 212.88494191 877.19431497 212.88826757 859.28424835 212.89426994 C841.56063061 212.90019455 823.83701441 212.90403742 806.11339569 212.90512276 C805.0098521 212.9051915 803.90630851 212.90526024 802.7693242 212.90533106 C797.16458758 212.90566941 791.55985096 212.90597079 785.95511433 212.90625793 C746.29543325 212.90835625 706.63575417 212.91508777 666.97607422 212.92456055 C628.45621756 212.93375043 589.93636145 212.94083137 551.41650391 212.94506836 C550.22837187 212.94519989 549.04023983 212.94533141 547.81610379 212.94546692 C535.88398645 212.94678549 523.95186911 212.94806129 512.01975176 212.94930578 C487.71440072 212.95184174 463.40904972 212.95466299 439.10369873 212.95765686 C437.98626986 212.95779415 436.86884099 212.95793144 435.71755063 212.95807289 C361.14503292 212.96726774 286.57251632 212.98311226 212 213 C211.99977194 213.76507076 211.99954388 214.53014151 211.99930891 215.31839623 C211.97993256 280.29217965 211.96010189 345.26596292 211.93994141 410.23974609 C211.93954227 411.52622151 211.93914313 412.81269692 211.9387319 414.13815644 C211.91488856 490.96664732 211.89056505 567.79513808 211.79953316 825.26199243 C211.79867482 827.55432137 211.7978169 829.84665031 211.79695912 832.13897924 C211.77265345 897.0912899 211.74796014 962.04360039 211.72274766 1026.9959107 C211.72181455 1029.39979653 211.72088146 1031.80368236 211.71994839 1034.20756819 C211.71948611 1035.39851013 211.71948611 1035.39851013 211.7190145 1036.61351149 C211.70742728 1066.46796745 211.69592864 1096.32242343 211.68448287 1126.17687944 C211.68323917 1129.42065158 211.68199446 1132.66442373 211.68074883 1135.90819587 C211.6513399 1212.49476567 211.62352563 1289.08133558 211.60089111 1365.66790771 C211.60065268 1366.474297 211.60041425 1367.28068628 211.60016859 1368.1115116 C211.5922419 1394.92831397 211.58446974 1421.74511638 211.57671889 1448.56191879 C211.56971529 1472.79171855 211.56265622 1497.02151829 211.5554142 1521.25131798 C211.55517633 1522.04725202 211.55493845 1522.84318605 211.55469337 1523.6632393 C211.53978653 1573.49370789 211.52247754 1623.3241752 211.50273705 1673.15464211 C211.50243257 1673.92401285 211.5021281 1674.69338359 211.50181441 1675.48606859 C211.48844222 1709.27157842 211.4745686 1743.05708801 211.46012124 1776.84259739 C211.45431171 1790.43375094 211.44857649 1804.02490453 211.44288195 1817.61605813 C211.44193712 1819.86961361 211.44098988 1822.12316909 211.44004238 1824.37672457 C211.42555772 1858.86834664 211.41273567 1893.35996831 211.40471697 1927.85159254 C211.40454387 1928.59603688 211.40437078 1929.34048122 211.40419244 1930.10748449 C211.4014179 1942.08375909 211.3987814 1954.06003372 211.39616872 1966.03630836 C211.38875551 2000.01738574 211.38042011 2033.99846147 211.36497664 2067.97953629 C211.36466404 2068.66839252 211.36435144 2069.35724874 211.36402937 2070.06697939 C211.35719116 2085.09211583 211.3498074 2100.11725194 211.34188902 2115.14238784 C211.33874024 2121.13395273 211.33566705 2127.12551766 211.33261681 2133.1170826 C211.33161555 2135.07623898 211.33161555 2135.07623898 211.33059406 2137.07497428 C211.32018079 2157.81345351 211.3165164 2178.55192832 211.31562213 2199.29040992 C211.31460707 2219.64879636 211.30655165 2240.00716967 211.29084408 2260.3655502 C211.28183473 2272.32319717 211.27838928 2284.28081556 211.28291753 2296.23846524 C211.28537905 2304.15941073 211.28071815 2312.0803304 211.27002892 2320.00126903 C211.2641582 2324.5046706 211.26152851 2329.00801264 211.26760875 2333.51141529 C211.27305585 2337.5879706 211.26949891 2341.66440959 211.25840162 2345.74095253 C211.25603316 2347.21189584 211.25708639 2348.6828492 211.26179989 2350.15378686 C211.26767519 2352.13496011 211.26023478 2354.11615989 211.25197301 2356.09732463 C211.25139695 2357.74773431 211.25139695 2357.74773431 211.25080925 2359.4314856 C211 2362 211 2362 209 2364 C206.25891836 2364.1977349 203.6187643 2364.26921999 200.87646484 2364.25396729 C199.60194993 2364.25864726 199.60194993 2364.25864726 198.30168724 2364.26342177 C195.43803463 2364.27143604 192.57459191 2364.26506485 189.7109375 2364.25878906 C187.66465124 2364.2614974 185.61836595 2364.26505745 183.57208252 2364.26940918 C178.00197221 2364.27855411 172.43193569 2364.27498028 166.86182404 2364.26865101 C161.04378555 2364.26360188 155.22575356 2364.26827942 149.40771484 2364.27142334 C139.6357306 2364.27506617 129.86377654 2364.2702556 120.09179688 2364.26074219 C108.77987689 2364.24985704 97.468029 2364.2533824 86.15611076 2364.264395 C76.45929788 2364.27345887 66.76250675 2364.27475757 57.06569099 2364.26951766 C51.26747582 2364.266393 45.46929457 2364.26600218 39.67108154 2364.27259064 C34.22106283 2364.27835041 28.77113743 2364.27439239 23.32112885 2364.26280212 C21.31594752 2364.26014819 19.3107584 2364.26093305 17.30558014 2364.26532745 C14.57812428 2364.27075552 11.85097146 2364.26398233 9.12353516 2364.25396729 C7.92034417 2364.26065945 7.92034417 2364.26065945 6.6928463 2364.26748681 C1.22830008 2364.22830008 1.22830008 2364.22830008 -1 2362 C-1.24992421 2359.20420323 -1.24992421 2359.20420323 -1.249815 2355.54319632 C-1.25252467 2354.86781402 -1.25523434 2354.19243172 -1.25802613 2353.49658329 C-1.26473285 2351.2048035 -1.25703363 2348.91328965 -1.24954766 2346.62151527 C-1.25140265 2344.96378057 -1.2541351 2343.30604666 -1.25767009 2341.64831469 C-1.26489423 2337.04698114 -1.25950843 2332.44573211 -1.25224611 2327.84440172 C-1.2465322 2322.83722673 -1.25238008 2317.83006354 -1.25678983 2312.82288909 C-1.26294106 2303.99798567 -1.26157445 2295.17310744 -1.25544515 2286.34820437 C-1.24630756 2273.13697424 -1.24864495 2259.92576346 -1.25329436 2246.71453188 C-1.2608778 2224.20386168 -1.25893736 2201.69320241 -1.2518692 2179.18253326 C-1.24473299 2156.35600892 -1.24194349 2133.52949017 -1.24450874 2110.70296478 C-1.24462695 2109.62440493 -1.24462695 2109.62440493 -1.24474754 2108.52405598 C-1.2454708 2101.93482904 -1.24624081 2095.3456021 -1.24706676 2088.75637517 C-1.24913444 2072.23087369 -1.25052271 2055.70537219 -1.2514559 2039.17987061 C-1.25149906 2038.42248673 -1.25154221 2037.66510285 -1.25158667 2036.88476795 C-1.25365299 1999.51894209 -1.24814462 1962.15311775 -1.24202538 1924.78729248 C-1.23987413 1911.62833405 -1.23774243 1898.46937562 -1.23571944 1885.31041718 C-1.23559351 1884.49244131 -1.23546759 1883.67446545 -1.23533784 1882.83170244 C-1.22954261 1844.95882638 -1.22853591 1807.08595067 -1.22868393 1769.21307423 C-1.22869301 1766.73692178 -1.22869942 1764.26076933 -1.22870489 1761.78461687 C-1.2287381 1746.8535949 -1.22880688 1731.92257293 -1.22892199 1716.99155096 C-1.2292025 1679.87084231 -1.2288129 1642.75013369 -1.22793293 1605.62942505 C-1.22791316 1604.78429786 -1.2278934 1603.93917067 -1.22787304 1603.06843357 C-1.22658397 1548.31961903 -1.22243446 1493.57080514 -1.21607494 1438.82199097 C-1.21597354 1437.94770927 -1.21587213 1437.07342757 -1.21576765 1436.17265249 C-1.21247106 1407.77736389 -1.20898468 1379.38207531 -1.20548091 1350.98678674 C-1.20206671 1323.3154913 -1.19872256 1295.64419586 -1.19561768 1267.97290039 C-1.19551827 1267.08728289 -1.19541886 1266.20166539 -1.19531644 1265.28921099 C-1.18590395 1181.19721175 -1.18477228 1097.10521294 -1.1852866 1013.01321326 C-1.18531348 1008.56199086 -1.18533837 1004.11076845 -1.18536337 999.65954605 C-1.18539348 994.32358485 -1.18542373 988.98762365 -1.18545464 983.65166245 C-1.18556241 965.04355747 -1.18566163 946.43545249 -1.18574377 927.82734751 C-1.18575573 925.17879146 -1.18576848 922.53023541 -1.1857814 919.88167935 C-1.18603938 866.04464447 -1.18501819 812.20760977 -1.18244648 758.37057495 C-1.18240618 757.52572521 -1.18236589 756.68087547 -1.18232437 755.81042422 C-1.18046962 717.04659614 -1.17820046 678.2827681 -1.17559667 639.51894006 C-1.17542923 637.02550265 -1.17526221 634.53206524 -1.17509531 632.03862782 C-1.17476207 627.06137873 -1.17442799 622.08412964 -1.17409355 617.10688055 C-1.17401093 615.87691448 -1.17401093 615.87691448 -1.17392665 614.62210061 C-1.17337153 606.36204134 -1.17281367 598.10198208 -1.17224177 589.84192281 C-1.16967688 552.79114281 -1.16763959 515.74036292 -1.16725707 478.68958282 C-1.16723939 477.03857872 -1.16722168 475.38757461 -1.16720395 473.7365705 C-1.16713421 467.14867979 -1.1670693 460.56078908 -1.16700647 453.97289837 C-1.1665954 410.92197518 -1.16605842 367.87105229 -1.16051352 324.82012939 C-1.16041617 324.06373823 -1.16031882 323.30734706 -1.16021852 322.52803495 C-1.1580819 306.02993814 -1.15563914 289.53184138 -1.15289382 273.03374465 C-1.15192289 267.18114445 -1.15097588 261.32854423 -1.15004213 255.47594402 C-1.14981056 254.02472524 -1.1495779 252.57350646 -1.14934415 251.12228768 C-1.14568664 228.32282637 -1.14508392 205.52336637 -1.14622694 182.72390483 C-1.14736743 159.67356081 -1.14505704 136.6232197 -1.13848015 113.57287633 C-1.13483917 100.44282137 -1.13396435 87.31277306 -1.13705815 74.18271793 C-1.13883664 65.48542306 -1.13704886 56.78813386 -1.13224037 48.09084014 C-1.12960896 43.14590649 -1.1285977 38.20098648 -1.13193924 33.25605294 C-1.13493487 28.7800701 -1.13342893 24.30411349 -1.12814881 19.82813297 C-1.12706147 18.21283032 -1.12768609 16.59752548 -1.13013968 14.98222433 C-1.133207 12.80705143 -1.13022714 10.63197177 -1.1256165 8.45680368 C-1.12549656 7.2486714 -1.12537662 6.04053912 -1.12525304 4.79579677 C-1 2 -1 2 0 0 Z " fill="#FEFEFE" transform="translate(1031,1338)"/>
<path d="M0 0 C65.4786194 -0.06039235 65.4786194 -0.06039235 85.75413513 -0.07695007 C86.83878764 -0.07783807 86.83878764 -0.07783807 87.94535232 -0.07874402 C112.31582565 -0.09864189 136.68629982 -0.11438438 161.05677795 -0.12702942 C161.85295299 -0.12744359 162.64912804 -0.12785776 163.46942959 -0.12828448 C180.77774397 -0.13726586 198.08605862 -0.14557603 215.39437365 -0.15319599 C223.8839282 -0.15693758 232.37348267 -0.1608273 240.86303711 -0.16479492 C241.70779271 -0.1651872 242.55254831 -0.16557948 243.42290257 -0.16598364 C270.74127762 -0.1787387 298.0596339 -0.20125082 325.37799761 -0.22889166 C353.48096728 -0.25727433 381.58392659 -0.27567593 409.68691035 -0.28174497 C413.66783062 -0.28260927 417.64875087 -0.28358618 421.6296711 -0.28463173 C422.80477787 -0.28493513 422.80477787 -0.28493513 424.00362417 -0.28524467 C436.54986928 -0.28877232 449.09608209 -0.3026388 461.6423141 -0.3204961 C474.29451458 -0.33827907 486.94668345 -0.34487393 499.59889596 -0.34050413 C506.43829748 -0.33844107 513.27759982 -0.34137877 520.11698532 -0.35761642 C553.56337612 -0.43308315 586.48400928 -0.08316751 619.5 5.875 C621.00703958 6.1373385 622.51420447 6.39895795 624.02148438 6.65991211 C628.35214518 7.41600545 632.67700834 8.20132913 637 9 C638.21816406 9.22478027 639.43632812 9.44956055 640.69140625 9.68115234 C647.8179074 11.01585115 654.91564211 12.45773012 662 14 C662.81082031 14.17289551 663.62164063 14.34579102 664.45703125 14.52392578 C679.73912299 17.84074793 694.47827976 22.96948719 709.24925232 28.03559875 C712.97100813 29.31195981 716.69876871 30.56365261 720.44140625 31.77734375 C777.03801801 50.38156387 833.13014533 82.45452207 878.09375 121.4921875 C880.85022342 123.8707573 883.65962943 126.16030636 886.5 128.4375 C892.36377014 133.21191952 897.86767103 138.33505311 903.38574219 143.49902344 C904.93670998 144.94115139 906.49992116 146.36813606 908.0703125 147.7890625 C917.19753825 156.04921662 926.1810456 164.50062658 934.16796875 173.88671875 C936.04890907 176.05641749 937.98914739 178.1646569 939.94287109 180.26879883 C945.55410247 186.31718205 950.84341679 192.55640181 956 199 C956.92240375 200.13083957 957.84562196 201.26101515 958.76953125 202.390625 C1007.53039449 262.27948607 1043.80898431 333.89173419 1062 409 C1062.33209473 410.35714111 1062.33209473 410.35714111 1062.67089844 411.74169922 C1064.15498711 417.81861739 1065.59960419 423.9032874 1067 430 C1067.14890686 430.62948547 1067.29781372 431.25897095 1067.45123291 431.90753174 C1070.14236551 443.29610732 1072.15986858 454.64166255 1073.625 466.25 C1073.73016937 467.07568481 1073.83533875 467.90136963 1073.94369507 468.7520752 C1079.72920685 514.53931478 1081.0545781 562.16399935 1075 608 C1074.9104303 608.68223633 1074.8208606 609.36447266 1074.72857666 610.06738281 C1070.46638677 642.30476775 1064.27681867 674.11302148 1054 705 C1053.62101562 706.1554834 1053.24203125 707.3109668 1052.8515625 708.50146484 C1040.65303269 745.64706704 1024.98606875 781.34464048 1005 815 C1004.46906738 815.89412598 1003.93813477 816.78825195 1003.39111328 817.70947266 C992.70330068 835.57881942 980.9323578 852.68113726 968 869 C967.33871094 869.84304688 966.67742188 870.68609375 965.99609375 871.5546875 C958.42526385 881.12911077 950.52211927 890.4420206 942.30078125 899.46362305 C940.86181341 901.04993851 939.43041215 902.64318903 938.01049805 904.24658203 C932.51942662 910.43680089 926.79501906 916.36032183 920.93383789 922.1965332 C919.43193075 923.69304925 917.93548938 925.194883 916.43945312 926.69726562 C911.13162768 932.0091385 905.72182949 937.1324954 900 942 C898.80824372 943.04499385 897.61812074 944.09185352 896.4296875 945.140625 C888.16511103 952.3863757 879.73427595 959.32937529 871 966 C870.25089355 966.57508301 869.50178711 967.15016602 868.72998047 967.74267578 C857.11716022 976.63904685 845.31690878 985.10614676 833 993 C832.22172852 993.50176758 831.44345703 994.00353516 830.64160156 994.52050781 C782.88566399 1025.16695865 729.4314332 1050.74406817 674.22802734 1064.44140625 C671.03354686 1065.24230164 667.86265514 1066.12603943 664.6875 1067 C662.82987501 1067.48590191 660.97216075 1067.97149395 659.11279297 1068.45068359 C657.61523976 1068.84004051 656.11964598 1069.23696965 654.62548828 1069.63916016 C615.21440407 1080.18097514 573.9970645 1084.88953595 533.33096313 1086.88516235 C531.70158332 1086.96543567 530.07233902 1087.04848626 528.44320679 1087.13363647 C509.72502657 1088.09459724 491.0337288 1088.12299343 472.29760742 1088.06866455 C468.30062408 1088.05822451 464.30363382 1088.05382381 460.30664062 1088.04882812 C452.53774237 1088.03827152 444.76887699 1088.02132673 437 1088 C436.9060994 1071.49140006 436.83579881 1054.9828882 436.79275131 1038.47408485 C436.77222253 1030.80685057 436.74429006 1023.13978327 436.69824219 1015.47265625 C436.65807473 1008.78138426 436.63249705 1002.09023335 436.62364602 995.39884412 C436.61848119 991.86354838 436.60655108 988.32859866 436.57707977 984.79341507 C436.31633276 952.21704496 442.06195836 925.51256108 465.5625 901.3671875 C478.8275997 888.75763052 495.00960909 880.2860241 513 877 C514.37514771 876.74331543 514.37514771 876.74331543 515.77807617 876.48144531 C519.0602653 875.99099468 522.20660385 875.82511484 525.5234375 875.75390625 C526.77906494 875.72264648 528.03469238 875.69138672 529.32836914 875.65917969 C529.98773468 875.64383179 530.64710022 875.62848389 531.32644653 875.6126709 C555.93633529 875.00995281 579.78744553 872.59161796 604 868 C605.41611572 867.73195557 605.41611572 867.73195557 606.86083984 867.45849609 C630.99256126 862.7104513 654.95059921 853.77350469 677 843 C678.36568625 842.34984189 679.73156742 841.70009304 681.09765625 841.05078125 C703.3459537 830.33631915 724.28724363 817.0004035 743.37451172 801.33300781 C744.43374094 800.46436985 745.49767396 799.60142659 746.56689453 798.74511719 C755.34628612 791.70294188 763.34157552 783.86660351 771.3125 775.9375 C771.82455994 775.43070709 772.33661987 774.92391418 772.86419678 774.40176392 C779.71183799 767.60863034 786.03839048 760.60030429 792 753 C792.57903076 752.26966553 793.15806152 751.53933105 793.75463867 750.78686523 C805.94320272 735.31046319 816.37917333 719.17953171 826 702 C826.39574219 701.30181152 826.79148437 700.60362305 827.19921875 699.88427734 C847.45714698 663.97485252 858.79959848 623.68718336 864 583 C864.17877686 581.74437256 864.35755371 580.48874512 864.54174805 579.19506836 C866.17563903 567.27766795 866.35722064 555.45326258 866.3125 543.4375 C866.31067719 542.42020813 866.30885437 541.40291626 866.30697632 540.35479736 C866.26474599 526.35331087 865.95557815 512.64965032 863.50048828 498.83056641 C862.93573722 495.63655478 862.43531925 492.43496578 861.93359375 489.23046875 C859.38399642 473.47971894 855.76913811 458.22354954 851 443 C850.72961914 442.13503906 850.45923828 441.27007813 850.18066406 440.37890625 C836.92544249 398.77989999 814.80611457 359.76812061 786 327 C785.38898437 326.28972656 784.77796875 325.57945312 784.1484375 324.84765625 C782.45114643 322.88089005 780.72956874 320.93843616 779 319 C778.2265625 318.12214844 777.453125 317.24429688 776.65625 316.33984375 C719.38025275 252.40972328 635.70181307 217.25907687 551 212 C543.10850986 211.68155135 535.21257157 211.71352274 527.3160553 211.7215271 C525.02343805 211.71650988 522.73082255 211.71062998 520.43820947 211.70397437 C514.2078981 211.68833276 507.977632 211.68475253 501.74730337 211.68332577 C495.69741713 211.67998717 489.64755453 211.66731321 483.5976818 211.6549259 C471.24021152 211.62993957 458.88274551 211.61398802 446.5252552 211.60334396 C434.30534007 211.59278831 422.08544102 211.57811985 409.86553764 211.55806351 C409.10324158 211.55681464 408.34094552 211.55556577 407.55554957 211.55427906 C403.68359078 211.54791454 399.8116321 211.54147754 395.93967348 211.53501268 C368.57722235 211.4894566 341.21476599 211.45296352 313.85229492 211.421875 C287.2845788 211.39166854 260.71687329 211.35731039 234.14916992 211.31738281 C233.32897022 211.31615181 232.50877051 211.31492081 231.66371627 211.3136525 C223.42627405 211.30128471 215.18883196 211.28883307 206.95138996 211.27632002 C190.17360293 211.2508357 173.3958151 211.22591073 156.61802673 211.20132446 C155.46112664 211.1996281 155.46112664 211.1996281 154.28085483 211.19789747 C130.66014498 211.16329183 107.03943272 211.13105497 83.41871643 211.10116577 C82.74863438 211.10031694 82.07855233 211.09946811 81.38816476 211.09859355 C54.2587783 211.06426313 27.12938877 211.03244748 0 211 C0 141.37 0 71.74 0 0 Z " fill="#FEFEFE" transform="translate(1467,1768)"/>
</svg>
